<?xml version="1.0" encoding="utf-8" standalone="no"?>
<!DOCTYPE svg PUBLIC "-//W3C//DTD SVG 1.1//EN"
  "http://www.w3.org/Graphics/SVG/1.1/DTD/svg11.dtd">
<!-- Created with matplotlib (https://matplotlib.org/) -->
<svg height="576pt" version="1.1" viewBox="0 0 432 576" width="432pt" xmlns="http://www.w3.org/2000/svg" xmlns:xlink="http://www.w3.org/1999/xlink">
 <metadata>
  <rdf:RDF xmlns:cc="http://creativecommons.org/ns#" xmlns:dc="http://purl.org/dc/elements/1.1/" xmlns:rdf="http://www.w3.org/1999/02/22-rdf-syntax-ns#">
   <cc:Work>
    <dc:type rdf:resource="http://purl.org/dc/dcmitype/StillImage"/>
    <dc:date>2022-01-23T15:33:55.303541</dc:date>
    <dc:format>image/svg+xml</dc:format>
    <dc:creator>
     <cc:Agent>
      <dc:title>Matplotlib v3.3.4, https://matplotlib.org/</dc:title>
     </cc:Agent>
    </dc:creator>
   </cc:Work>
  </rdf:RDF>
 </metadata>
 <defs>
  <style type="text/css">*{stroke-linecap:butt;stroke-linejoin:round;}</style>
 </defs>
 <g id="figure_1">
  <g id="patch_1">
   <path d="M 0 576 
L 432 576 
L 432 0 
L 0 0 
z
" style="fill:none;"/>
  </g>
  <g id="axes_1">
   <g id="patch_2">
    <path d="M 54 266.792727 
L 388.8 266.792727 
L 388.8 69.12 
L 54 69.12 
z
" style="fill:#ffffff;"/>
   </g>
   <g id="matplotlib.axis_1">
    <g id="xtick_1">
     <g id="line2d_1">
      <defs>
       <path d="M 0 0 
L 0 3.5 
" id="mbe664d9135" style="stroke:#000000;stroke-width:0.8;"/>
      </defs>
      <g>
       <use style="stroke:#000000;stroke-width:0.8;" x="113.519333" xlink:href="#mbe664d9135" y="266.792727"/>
      </g>
     </g>
     <g id="text_1">
      <!-- 0.2 -->
      <g transform="translate(105.56777 281.391165)scale(0.1 -0.1)">
       <defs>
        <path d="M 31.78125 66.40625 
Q 24.171875 66.40625 20.328125 58.90625 
Q 16.5 51.421875 16.5 36.375 
Q 16.5 21.390625 20.328125 13.890625 
Q 24.171875 6.390625 31.78125 6.390625 
Q 39.453125 6.390625 43.28125 13.890625 
Q 47.125 21.390625 47.125 36.375 
Q 47.125 51.421875 43.28125 58.90625 
Q 39.453125 66.40625 31.78125 66.40625 
z
M 31.78125 74.21875 
Q 44.046875 74.21875 50.515625 64.515625 
Q 56.984375 54.828125 56.984375 36.375 
Q 56.984375 17.96875 50.515625 8.265625 
Q 44.046875 -1.421875 31.78125 -1.421875 
Q 19.53125 -1.421875 13.0625 8.265625 
Q 6.59375 17.96875 6.59375 36.375 
Q 6.59375 54.828125 13.0625 64.515625 
Q 19.53125 74.21875 31.78125 74.21875 
z
" id="DejaVuSans-48"/>
        <path d="M 10.6875 12.40625 
L 21 12.40625 
L 21 0 
L 10.6875 0 
z
" id="DejaVuSans-46"/>
        <path d="M 19.1875 8.296875 
L 53.609375 8.296875 
L 53.609375 0 
L 7.328125 0 
L 7.328125 8.296875 
Q 12.9375 14.109375 22.625 23.890625 
Q 32.328125 33.6875 34.8125 36.53125 
Q 39.546875 41.84375 41.421875 45.53125 
Q 43.3125 49.21875 43.3125 52.78125 
Q 43.3125 58.59375 39.234375 62.25 
Q 35.15625 65.921875 28.609375 65.921875 
Q 23.96875 65.921875 18.8125 64.3125 
Q 13.671875 62.703125 7.8125 59.421875 
L 7.8125 69.390625 
Q 13.765625 71.78125 18.9375 73 
Q 24.125 74.21875 28.421875 74.21875 
Q 39.75 74.21875 46.484375 68.546875 
Q 53.21875 62.890625 53.21875 53.421875 
Q 53.21875 48.921875 51.53125 44.890625 
Q 49.859375 40.875 45.40625 35.40625 
Q 44.1875 33.984375 37.640625 27.21875 
Q 31.109375 20.453125 19.1875 8.296875 
z
" id="DejaVuSans-50"/>
       </defs>
       <use xlink:href="#DejaVuSans-48"/>
       <use x="63.623047" xlink:href="#DejaVuSans-46"/>
       <use x="95.410156" xlink:href="#DejaVuSans-50"/>
      </g>
     </g>
    </g>
    <g id="xtick_2">
     <g id="line2d_2">
      <g>
       <use style="stroke:#000000;stroke-width:0.8;" x="178.851045" xlink:href="#mbe664d9135" y="266.792727"/>
      </g>
     </g>
     <g id="text_2">
      <!-- 0.4 -->
      <g transform="translate(170.899482 281.391165)scale(0.1 -0.1)">
       <defs>
        <path d="M 37.796875 64.3125 
L 12.890625 25.390625 
L 37.796875 25.390625 
z
M 35.203125 72.90625 
L 47.609375 72.90625 
L 47.609375 25.390625 
L 58.015625 25.390625 
L 58.015625 17.1875 
L 47.609375 17.1875 
L 47.609375 0 
L 37.796875 0 
L 37.796875 17.1875 
L 4.890625 17.1875 
L 4.890625 26.703125 
z
" id="DejaVuSans-52"/>
       </defs>
       <use xlink:href="#DejaVuSans-48"/>
       <use x="63.623047" xlink:href="#DejaVuSans-46"/>
       <use x="95.410156" xlink:href="#DejaVuSans-52"/>
      </g>
     </g>
    </g>
    <g id="xtick_3">
     <g id="line2d_3">
      <g>
       <use style="stroke:#000000;stroke-width:0.8;" x="244.182757" xlink:href="#mbe664d9135" y="266.792727"/>
      </g>
     </g>
     <g id="text_3">
      <!-- 0.6 -->
      <g transform="translate(236.231194 281.391165)scale(0.1 -0.1)">
       <defs>
        <path d="M 33.015625 40.375 
Q 26.375 40.375 22.484375 35.828125 
Q 18.609375 31.296875 18.609375 23.390625 
Q 18.609375 15.53125 22.484375 10.953125 
Q 26.375 6.390625 33.015625 6.390625 
Q 39.65625 6.390625 43.53125 10.953125 
Q 47.40625 15.53125 47.40625 23.390625 
Q 47.40625 31.296875 43.53125 35.828125 
Q 39.65625 40.375 33.015625 40.375 
z
M 52.59375 71.296875 
L 52.59375 62.3125 
Q 48.875 64.0625 45.09375 64.984375 
Q 41.3125 65.921875 37.59375 65.921875 
Q 27.828125 65.921875 22.671875 59.328125 
Q 17.53125 52.734375 16.796875 39.40625 
Q 19.671875 43.65625 24.015625 45.921875 
Q 28.375 48.1875 33.59375 48.1875 
Q 44.578125 48.1875 50.953125 41.515625 
Q 57.328125 34.859375 57.328125 23.390625 
Q 57.328125 12.15625 50.6875 5.359375 
Q 44.046875 -1.421875 33.015625 -1.421875 
Q 20.359375 -1.421875 13.671875 8.265625 
Q 6.984375 17.96875 6.984375 36.375 
Q 6.984375 53.65625 15.1875 63.9375 
Q 23.390625 74.21875 37.203125 74.21875 
Q 40.921875 74.21875 44.703125 73.484375 
Q 48.484375 72.75 52.59375 71.296875 
z
" id="DejaVuSans-54"/>
       </defs>
       <use xlink:href="#DejaVuSans-48"/>
       <use x="63.623047" xlink:href="#DejaVuSans-46"/>
       <use x="95.410156" xlink:href="#DejaVuSans-54"/>
      </g>
     </g>
    </g>
    <g id="xtick_4">
     <g id="line2d_4">
      <g>
       <use style="stroke:#000000;stroke-width:0.8;" x="309.514469" xlink:href="#mbe664d9135" y="266.792727"/>
      </g>
     </g>
     <g id="text_4">
      <!-- 0.8 -->
      <g transform="translate(301.562906 281.391165)scale(0.1 -0.1)">
       <defs>
        <path d="M 31.78125 34.625 
Q 24.75 34.625 20.71875 30.859375 
Q 16.703125 27.09375 16.703125 20.515625 
Q 16.703125 13.921875 20.71875 10.15625 
Q 24.75 6.390625 31.78125 6.390625 
Q 38.8125 6.390625 42.859375 10.171875 
Q 46.921875 13.96875 46.921875 20.515625 
Q 46.921875 27.09375 42.890625 30.859375 
Q 38.875 34.625 31.78125 34.625 
z
M 21.921875 38.8125 
Q 15.578125 40.375 12.03125 44.71875 
Q 8.5 49.078125 8.5 55.328125 
Q 8.5 64.0625 14.71875 69.140625 
Q 20.953125 74.21875 31.78125 74.21875 
Q 42.671875 74.21875 48.875 69.140625 
Q 55.078125 64.0625 55.078125 55.328125 
Q 55.078125 49.078125 51.53125 44.71875 
Q 48 40.375 41.703125 38.8125 
Q 48.828125 37.15625 52.796875 32.3125 
Q 56.78125 27.484375 56.78125 20.515625 
Q 56.78125 9.90625 50.3125 4.234375 
Q 43.84375 -1.421875 31.78125 -1.421875 
Q 19.734375 -1.421875 13.25 4.234375 
Q 6.78125 9.90625 6.78125 20.515625 
Q 6.78125 27.484375 10.78125 32.3125 
Q 14.796875 37.15625 21.921875 38.8125 
z
M 18.3125 54.390625 
Q 18.3125 48.734375 21.84375 45.5625 
Q 25.390625 42.390625 31.78125 42.390625 
Q 38.140625 42.390625 41.71875 45.5625 
Q 45.3125 48.734375 45.3125 54.390625 
Q 45.3125 60.0625 41.71875 63.234375 
Q 38.140625 66.40625 31.78125 66.40625 
Q 25.390625 66.40625 21.84375 63.234375 
Q 18.3125 60.0625 18.3125 54.390625 
z
" id="DejaVuSans-56"/>
       </defs>
       <use xlink:href="#DejaVuSans-48"/>
       <use x="63.623047" xlink:href="#DejaVuSans-46"/>
       <use x="95.410156" xlink:href="#DejaVuSans-56"/>
      </g>
     </g>
    </g>
    <g id="xtick_5">
     <g id="line2d_5">
      <g>
       <use style="stroke:#000000;stroke-width:0.8;" x="374.846181" xlink:href="#mbe664d9135" y="266.792727"/>
      </g>
     </g>
     <g id="text_5">
      <!-- 1.0 -->
      <g transform="translate(366.894618 281.391165)scale(0.1 -0.1)">
       <defs>
        <path d="M 12.40625 8.296875 
L 28.515625 8.296875 
L 28.515625 63.921875 
L 10.984375 60.40625 
L 10.984375 69.390625 
L 28.421875 72.90625 
L 38.28125 72.90625 
L 38.28125 8.296875 
L 54.390625 8.296875 
L 54.390625 0 
L 12.40625 0 
z
" id="DejaVuSans-49"/>
       </defs>
       <use xlink:href="#DejaVuSans-49"/>
       <use x="63.623047" xlink:href="#DejaVuSans-46"/>
       <use x="95.410156" xlink:href="#DejaVuSans-48"/>
      </g>
     </g>
    </g>
   </g>
   <g id="matplotlib.axis_2">
    <g id="ytick_1">
     <g id="line2d_6">
      <defs>
       <path d="M 0 0 
L -3.5 0 
" id="m58b12d0228" style="stroke:#000000;stroke-width:0.8;"/>
      </defs>
      <g>
       <use style="stroke:#000000;stroke-width:0.8;" x="54" xlink:href="#m58b12d0228" y="256.983122"/>
      </g>
     </g>
     <g id="text_6">
      <!-- 0.1 -->
      <g transform="translate(31.096875 260.782341)scale(0.1 -0.1)">
       <use xlink:href="#DejaVuSans-48"/>
       <use x="63.623047" xlink:href="#DejaVuSans-46"/>
       <use x="95.410156" xlink:href="#DejaVuSans-49"/>
      </g>
     </g>
    </g>
    <g id="ytick_2">
     <g id="line2d_7">
      <g>
       <use style="stroke:#000000;stroke-width:0.8;" x="54" xlink:href="#m58b12d0228" y="221.805265"/>
      </g>
     </g>
     <g id="text_7">
      <!-- 0.2 -->
      <g transform="translate(31.096875 225.604484)scale(0.1 -0.1)">
       <use xlink:href="#DejaVuSans-48"/>
       <use x="63.623047" xlink:href="#DejaVuSans-46"/>
       <use x="95.410156" xlink:href="#DejaVuSans-50"/>
      </g>
     </g>
    </g>
    <g id="ytick_3">
     <g id="line2d_8">
      <g>
       <use style="stroke:#000000;stroke-width:0.8;" x="54" xlink:href="#m58b12d0228" y="186.627407"/>
      </g>
     </g>
     <g id="text_8">
      <!-- 0.3 -->
      <g transform="translate(31.096875 190.426626)scale(0.1 -0.1)">
       <defs>
        <path d="M 40.578125 39.3125 
Q 47.65625 37.796875 51.625 33 
Q 55.609375 28.21875 55.609375 21.1875 
Q 55.609375 10.40625 48.1875 4.484375 
Q 40.765625 -1.421875 27.09375 -1.421875 
Q 22.515625 -1.421875 17.65625 -0.515625 
Q 12.796875 0.390625 7.625 2.203125 
L 7.625 11.71875 
Q 11.71875 9.328125 16.59375 8.109375 
Q 21.484375 6.890625 26.8125 6.890625 
Q 36.078125 6.890625 40.9375 10.546875 
Q 45.796875 14.203125 45.796875 21.1875 
Q 45.796875 27.640625 41.28125 31.265625 
Q 36.765625 34.90625 28.71875 34.90625 
L 20.21875 34.90625 
L 20.21875 43.015625 
L 29.109375 43.015625 
Q 36.375 43.015625 40.234375 45.921875 
Q 44.09375 48.828125 44.09375 54.296875 
Q 44.09375 59.90625 40.109375 62.90625 
Q 36.140625 65.921875 28.71875 65.921875 
Q 24.65625 65.921875 20.015625 65.03125 
Q 15.375 64.15625 9.8125 62.3125 
L 9.8125 71.09375 
Q 15.4375 72.65625 20.34375 73.4375 
Q 25.25 74.21875 29.59375 74.21875 
Q 40.828125 74.21875 47.359375 69.109375 
Q 53.90625 64.015625 53.90625 55.328125 
Q 53.90625 49.265625 50.4375 45.09375 
Q 46.96875 40.921875 40.578125 39.3125 
z
" id="DejaVuSans-51"/>
       </defs>
       <use xlink:href="#DejaVuSans-48"/>
       <use x="63.623047" xlink:href="#DejaVuSans-46"/>
       <use x="95.410156" xlink:href="#DejaVuSans-51"/>
      </g>
     </g>
    </g>
    <g id="ytick_4">
     <g id="line2d_9">
      <g>
       <use style="stroke:#000000;stroke-width:0.8;" x="54" xlink:href="#m58b12d0228" y="151.44955"/>
      </g>
     </g>
     <g id="text_9">
      <!-- 0.4 -->
      <g transform="translate(31.096875 155.248769)scale(0.1 -0.1)">
       <use xlink:href="#DejaVuSans-48"/>
       <use x="63.623047" xlink:href="#DejaVuSans-46"/>
       <use x="95.410156" xlink:href="#DejaVuSans-52"/>
      </g>
     </g>
    </g>
    <g id="ytick_5">
     <g id="line2d_10">
      <g>
       <use style="stroke:#000000;stroke-width:0.8;" x="54" xlink:href="#m58b12d0228" y="116.271692"/>
      </g>
     </g>
     <g id="text_10">
      <!-- 0.5 -->
      <g transform="translate(31.096875 120.070911)scale(0.1 -0.1)">
       <defs>
        <path d="M 10.796875 72.90625 
L 49.515625 72.90625 
L 49.515625 64.59375 
L 19.828125 64.59375 
L 19.828125 46.734375 
Q 21.96875 47.46875 24.109375 47.828125 
Q 26.265625 48.1875 28.421875 48.1875 
Q 40.625 48.1875 47.75 41.5 
Q 54.890625 34.8125 54.890625 23.390625 
Q 54.890625 11.625 47.5625 5.09375 
Q 40.234375 -1.421875 26.90625 -1.421875 
Q 22.3125 -1.421875 17.546875 -0.640625 
Q 12.796875 0.140625 7.71875 1.703125 
L 7.71875 11.625 
Q 12.109375 9.234375 16.796875 8.0625 
Q 21.484375 6.890625 26.703125 6.890625 
Q 35.15625 6.890625 40.078125 11.328125 
Q 45.015625 15.765625 45.015625 23.390625 
Q 45.015625 31 40.078125 35.4375 
Q 35.15625 39.890625 26.703125 39.890625 
Q 22.75 39.890625 18.8125 39.015625 
Q 14.890625 38.140625 10.796875 36.28125 
z
" id="DejaVuSans-53"/>
       </defs>
       <use xlink:href="#DejaVuSans-48"/>
       <use x="63.623047" xlink:href="#DejaVuSans-46"/>
       <use x="95.410156" xlink:href="#DejaVuSans-53"/>
      </g>
     </g>
    </g>
    <g id="ytick_6">
     <g id="line2d_11">
      <g>
       <use style="stroke:#000000;stroke-width:0.8;" x="54" xlink:href="#m58b12d0228" y="81.093835"/>
      </g>
     </g>
     <g id="text_11">
      <!-- 0.6 -->
      <g transform="translate(31.096875 84.893053)scale(0.1 -0.1)">
       <use xlink:href="#DejaVuSans-48"/>
       <use x="63.623047" xlink:href="#DejaVuSans-46"/>
       <use x="95.410156" xlink:href="#DejaVuSans-54"/>
      </g>
     </g>
    </g>
   </g>
   <g id="line2d_12">
    <path clip-path="url(#pa9b10b4b50)" d="M 108.408148 83.704696 
L 137.725551 87.517912 
L 166.721595 83.051973 
L 208.993444 87.586623 
L 235.113064 84.632241 
L 260.168512 82.914572 
L 283.669848 89.029469 
L 295.228227 85.284942 
L 316.148157 87.930157 
L 321.505892 91.537261 
L 331.009683 99.472883 
L 339.159552 105.759567 
L 345.623605 115.241091 
L 348.547443 121.390343 
L 353.620697 137.227252 
L 354.084296 137.948675 
L 354.774428 146.605719 
L 356.454976 152.480149 
L 357.893188 167.836112 
L 359.041651 177.970358 
L 359.879291 185.940336 
L 360.564154 223.454227 
L 361.333308 232.042571 
L 362.081389 233.794595 
L 362.792592 232.283044 
L 363.472187 236.577216 
L 364.020078 240.733976 
L 364.615382 243.173063 
L 365.147467 242.589056 
L 365.584726 249.32232 
L 366.18003 257.46407 
L 366.617289 257.532775 
L 367.070352 257.292303 
L 368.819387 257.292303 
L 370.173308 257.292303 
" style="fill:none;stroke:#ff0000;stroke-linecap:square;stroke-width:1.5;"/>
    <defs>
     <path d="M 0 1.5 
C 0.397805 1.5 0.77937 1.341951 1.06066 1.06066 
C 1.341951 0.77937 1.5 0.397805 1.5 0 
C 1.5 -0.397805 1.341951 -0.77937 1.06066 -1.06066 
C 0.77937 -1.341951 0.397805 -1.5 0 -1.5 
C -0.397805 -1.5 -0.77937 -1.341951 -1.06066 -1.06066 
C -1.341951 -0.77937 -1.5 -0.397805 -1.5 0 
C -1.5 0.397805 -1.341951 0.77937 -1.06066 1.06066 
C -0.77937 1.341951 -0.397805 1.5 0 1.5 
z
" id="md379834403" style="stroke:#ff0000;"/>
    </defs>
    <g clip-path="url(#pa9b10b4b50)">
     <use style="fill:#ff0000;stroke:#ff0000;" x="108.408148" xlink:href="#md379834403" y="83.704696"/>
     <use style="fill:#ff0000;stroke:#ff0000;" x="137.725551" xlink:href="#md379834403" y="87.517912"/>
     <use style="fill:#ff0000;stroke:#ff0000;" x="166.721595" xlink:href="#md379834403" y="83.051973"/>
     <use style="fill:#ff0000;stroke:#ff0000;" x="208.993444" xlink:href="#md379834403" y="87.586623"/>
     <use style="fill:#ff0000;stroke:#ff0000;" x="235.113064" xlink:href="#md379834403" y="84.632241"/>
     <use style="fill:#ff0000;stroke:#ff0000;" x="260.168512" xlink:href="#md379834403" y="82.914572"/>
     <use style="fill:#ff0000;stroke:#ff0000;" x="283.669848" xlink:href="#md379834403" y="89.029469"/>
     <use style="fill:#ff0000;stroke:#ff0000;" x="295.228227" xlink:href="#md379834403" y="85.284942"/>
     <use style="fill:#ff0000;stroke:#ff0000;" x="316.148157" xlink:href="#md379834403" y="87.930157"/>
     <use style="fill:#ff0000;stroke:#ff0000;" x="321.505892" xlink:href="#md379834403" y="91.537261"/>
     <use style="fill:#ff0000;stroke:#ff0000;" x="331.009683" xlink:href="#md379834403" y="99.472883"/>
     <use style="fill:#ff0000;stroke:#ff0000;" x="339.159552" xlink:href="#md379834403" y="105.759567"/>
     <use style="fill:#ff0000;stroke:#ff0000;" x="345.623605" xlink:href="#md379834403" y="115.241091"/>
     <use style="fill:#ff0000;stroke:#ff0000;" x="348.547443" xlink:href="#md379834403" y="121.390343"/>
     <use style="fill:#ff0000;stroke:#ff0000;" x="353.620697" xlink:href="#md379834403" y="137.227252"/>
     <use style="fill:#ff0000;stroke:#ff0000;" x="354.084296" xlink:href="#md379834403" y="137.948675"/>
     <use style="fill:#ff0000;stroke:#ff0000;" x="354.774428" xlink:href="#md379834403" y="146.605719"/>
     <use style="fill:#ff0000;stroke:#ff0000;" x="356.454976" xlink:href="#md379834403" y="152.480149"/>
     <use style="fill:#ff0000;stroke:#ff0000;" x="357.893188" xlink:href="#md379834403" y="167.836112"/>
     <use style="fill:#ff0000;stroke:#ff0000;" x="359.041651" xlink:href="#md379834403" y="177.970358"/>
     <use style="fill:#ff0000;stroke:#ff0000;" x="359.879291" xlink:href="#md379834403" y="185.940336"/>
     <use style="fill:#ff0000;stroke:#ff0000;" x="360.564154" xlink:href="#md379834403" y="223.454227"/>
     <use style="fill:#ff0000;stroke:#ff0000;" x="361.333308" xlink:href="#md379834403" y="232.042571"/>
     <use style="fill:#ff0000;stroke:#ff0000;" x="362.081389" xlink:href="#md379834403" y="233.794595"/>
     <use style="fill:#ff0000;stroke:#ff0000;" x="362.792592" xlink:href="#md379834403" y="232.283044"/>
     <use style="fill:#ff0000;stroke:#ff0000;" x="363.472187" xlink:href="#md379834403" y="236.577216"/>
     <use style="fill:#ff0000;stroke:#ff0000;" x="364.020078" xlink:href="#md379834403" y="240.733976"/>
     <use style="fill:#ff0000;stroke:#ff0000;" x="364.615382" xlink:href="#md379834403" y="243.173063"/>
     <use style="fill:#ff0000;stroke:#ff0000;" x="365.147467" xlink:href="#md379834403" y="242.589056"/>
     <use style="fill:#ff0000;stroke:#ff0000;" x="365.584726" xlink:href="#md379834403" y="249.32232"/>
     <use style="fill:#ff0000;stroke:#ff0000;" x="366.18003" xlink:href="#md379834403" y="257.46407"/>
     <use style="fill:#ff0000;stroke:#ff0000;" x="366.617289" xlink:href="#md379834403" y="257.532775"/>
     <use style="fill:#ff0000;stroke:#ff0000;" x="367.070352" xlink:href="#md379834403" y="257.292303"/>
     <use style="fill:#ff0000;stroke:#ff0000;" x="368.819387" xlink:href="#md379834403" y="257.292303"/>
     <use style="fill:#ff0000;stroke:#ff0000;" x="370.173308" xlink:href="#md379834403" y="257.292303"/>
    </g>
   </g>
   <g id="line2d_13">
    <path clip-path="url(#pa9b10b4b50)" d="M 69.218182 84.769642 
L 109.330079 83.292451 
L 129.0594 83.979518 
L 168.35473 86.86521 
L 225.740978 83.292451 
L 260.310753 84.151285 
L 292.141076 84.426108 
L 306.338812 89.304292 
L 314.931208 87.105667 
L 321.843056 90.987616 
L 328.349254 93.461042 
L 334.096834 94.835177 
L 339.533593 105.244267 
L 340.423915 102.805164 
L 341.79364 104.660255 
L 348.025893 115.61897 
L 351.61879 131.558945 
L 353.083343 135.990528 
L 355.943963 144.235339 
L 357.434857 147.395853 
L 361.796907 206.071416 
L 365.094786 245.509093 
L 366.380221 257.807603 
L 368.413737 257.807603 
L 368.603391 257.807603 
L 368.840459 257.807603 
L 369.404154 257.807603 
L 369.873022 257.807603 
L 370.157503 257.807603 
L 370.468326 257.807603 
L 370.694857 257.807603 
L 370.952998 257.807603 
L 371.184798 257.807603 
L 371.427134 257.807603 
L 371.543034 257.807603 
L 371.695811 257.807603 
L 371.848588 257.807603 
L 372.011902 257.807603 
L 372.143606 257.807603 
L 372.238433 257.807603 
L 372.375406 257.807603 
L 372.475501 257.807603 
L 372.85481 257.807603 
L 373.076073 257.807603 
L 373.423773 257.807603 
L 373.581818 257.807603 
" style="fill:none;stroke:#008000;stroke-linecap:square;stroke-width:1.5;"/>
    <defs>
     <path d="M 0 1.5 
C 0.397805 1.5 0.77937 1.341951 1.06066 1.06066 
C 1.341951 0.77937 1.5 0.397805 1.5 0 
C 1.5 -0.397805 1.341951 -0.77937 1.06066 -1.06066 
C 0.77937 -1.341951 0.397805 -1.5 0 -1.5 
C -0.397805 -1.5 -0.77937 -1.341951 -1.06066 -1.06066 
C -1.341951 -0.77937 -1.5 -0.397805 -1.5 0 
C -1.5 0.397805 -1.341951 0.77937 -1.06066 1.06066 
C -0.77937 1.341951 -0.397805 1.5 0 1.5 
z
" id="m817dc589ed" style="stroke:#008000;"/>
    </defs>
    <g clip-path="url(#pa9b10b4b50)">
     <use style="fill:#008000;stroke:#008000;" x="69.218182" xlink:href="#m817dc589ed" y="84.769642"/>
     <use style="fill:#008000;stroke:#008000;" x="109.330079" xlink:href="#m817dc589ed" y="83.292451"/>
     <use style="fill:#008000;stroke:#008000;" x="129.0594" xlink:href="#m817dc589ed" y="83.979518"/>
     <use style="fill:#008000;stroke:#008000;" x="168.35473" xlink:href="#m817dc589ed" y="86.86521"/>
     <use style="fill:#008000;stroke:#008000;" x="225.740978" xlink:href="#m817dc589ed" y="83.292451"/>
     <use style="fill:#008000;stroke:#008000;" x="260.310753" xlink:href="#m817dc589ed" y="84.151285"/>
     <use style="fill:#008000;stroke:#008000;" x="292.141076" xlink:href="#m817dc589ed" y="84.426108"/>
     <use style="fill:#008000;stroke:#008000;" x="306.338812" xlink:href="#m817dc589ed" y="89.304292"/>
     <use style="fill:#008000;stroke:#008000;" x="314.931208" xlink:href="#m817dc589ed" y="87.105667"/>
     <use style="fill:#008000;stroke:#008000;" x="321.843056" xlink:href="#m817dc589ed" y="90.987616"/>
     <use style="fill:#008000;stroke:#008000;" x="328.349254" xlink:href="#m817dc589ed" y="93.461042"/>
     <use style="fill:#008000;stroke:#008000;" x="334.096834" xlink:href="#m817dc589ed" y="94.835177"/>
     <use style="fill:#008000;stroke:#008000;" x="339.533593" xlink:href="#m817dc589ed" y="105.244267"/>
     <use style="fill:#008000;stroke:#008000;" x="340.423915" xlink:href="#m817dc589ed" y="102.805164"/>
     <use style="fill:#008000;stroke:#008000;" x="341.79364" xlink:href="#m817dc589ed" y="104.660255"/>
     <use style="fill:#008000;stroke:#008000;" x="348.025893" xlink:href="#m817dc589ed" y="115.61897"/>
     <use style="fill:#008000;stroke:#008000;" x="351.61879" xlink:href="#m817dc589ed" y="131.558945"/>
     <use style="fill:#008000;stroke:#008000;" x="353.083343" xlink:href="#m817dc589ed" y="135.990528"/>
     <use style="fill:#008000;stroke:#008000;" x="355.943963" xlink:href="#m817dc589ed" y="144.235339"/>
     <use style="fill:#008000;stroke:#008000;" x="357.434857" xlink:href="#m817dc589ed" y="147.395853"/>
     <use style="fill:#008000;stroke:#008000;" x="361.796907" xlink:href="#m817dc589ed" y="206.071416"/>
     <use style="fill:#008000;stroke:#008000;" x="365.094786" xlink:href="#m817dc589ed" y="245.509093"/>
     <use style="fill:#008000;stroke:#008000;" x="366.380221" xlink:href="#m817dc589ed" y="257.807603"/>
     <use style="fill:#008000;stroke:#008000;" x="368.413737" xlink:href="#m817dc589ed" y="257.807603"/>
     <use style="fill:#008000;stroke:#008000;" x="368.603391" xlink:href="#m817dc589ed" y="257.807603"/>
     <use style="fill:#008000;stroke:#008000;" x="368.840459" xlink:href="#m817dc589ed" y="257.807603"/>
     <use style="fill:#008000;stroke:#008000;" x="369.404154" xlink:href="#m817dc589ed" y="257.807603"/>
     <use style="fill:#008000;stroke:#008000;" x="369.873022" xlink:href="#m817dc589ed" y="257.807603"/>
     <use style="fill:#008000;stroke:#008000;" x="370.157503" xlink:href="#m817dc589ed" y="257.807603"/>
     <use style="fill:#008000;stroke:#008000;" x="370.468326" xlink:href="#m817dc589ed" y="257.807603"/>
     <use style="fill:#008000;stroke:#008000;" x="370.694857" xlink:href="#m817dc589ed" y="257.807603"/>
     <use style="fill:#008000;stroke:#008000;" x="370.952998" xlink:href="#m817dc589ed" y="257.807603"/>
     <use style="fill:#008000;stroke:#008000;" x="371.184798" xlink:href="#m817dc589ed" y="257.807603"/>
     <use style="fill:#008000;stroke:#008000;" x="371.427134" xlink:href="#m817dc589ed" y="257.807603"/>
     <use style="fill:#008000;stroke:#008000;" x="371.543034" xlink:href="#m817dc589ed" y="257.807603"/>
     <use style="fill:#008000;stroke:#008000;" x="371.695811" xlink:href="#m817dc589ed" y="257.807603"/>
     <use style="fill:#008000;stroke:#008000;" x="371.848588" xlink:href="#m817dc589ed" y="257.807603"/>
     <use style="fill:#008000;stroke:#008000;" x="372.011902" xlink:href="#m817dc589ed" y="257.807603"/>
     <use style="fill:#008000;stroke:#008000;" x="372.143606" xlink:href="#m817dc589ed" y="257.807603"/>
     <use style="fill:#008000;stroke:#008000;" x="372.238433" xlink:href="#m817dc589ed" y="257.807603"/>
     <use style="fill:#008000;stroke:#008000;" x="372.375406" xlink:href="#m817dc589ed" y="257.807603"/>
     <use style="fill:#008000;stroke:#008000;" x="372.475501" xlink:href="#m817dc589ed" y="257.807603"/>
     <use style="fill:#008000;stroke:#008000;" x="372.85481" xlink:href="#m817dc589ed" y="257.807603"/>
     <use style="fill:#008000;stroke:#008000;" x="373.076073" xlink:href="#m817dc589ed" y="257.807603"/>
     <use style="fill:#008000;stroke:#008000;" x="373.423773" xlink:href="#m817dc589ed" y="257.807603"/>
     <use style="fill:#008000;stroke:#008000;" x="373.581818" xlink:href="#m817dc589ed" y="257.807603"/>
    </g>
   </g>
   <g id="line2d_14">
    <path clip-path="url(#pa9b10b4b50)" d="M 101.612302 79.92593 
L 110.294233 80.200669 
L 138.062824 80.853218 
L 177.321303 80.166195 
L 276.457602 78.105124 
L 320.87892 82.296214 
L 325.947027 88.960659 
L 331.489117 88.033371 
L 340.439561 93.598508 
L 349.258689 101.946213 
L 355.464548 116.821522 
L 356.72349 123.69211 
L 358.203907 136.64319 
L 361.159514 148.323294 
L 361.918015 150.247171 
L 364.420546 173.33264 
L 364.920987 194.631777 
L 367.054394 207.857948 
L 372.322743 256.261624 
" style="fill:none;stroke:#0000ff;stroke-linecap:square;stroke-width:1.5;"/>
    <defs>
     <path d="M 0 1.5 
C 0.397805 1.5 0.77937 1.341951 1.06066 1.06066 
C 1.341951 0.77937 1.5 0.397805 1.5 0 
C 1.5 -0.397805 1.341951 -0.77937 1.06066 -1.06066 
C 0.77937 -1.341951 0.397805 -1.5 0 -1.5 
C -0.397805 -1.5 -0.77937 -1.341951 -1.06066 -1.06066 
C -1.341951 -0.77937 -1.5 -0.397805 -1.5 0 
C -1.5 0.397805 -1.341951 0.77937 -1.06066 1.06066 
C -0.77937 1.341951 -0.397805 1.5 0 1.5 
z
" id="me4a069a20e" style="stroke:#0000ff;"/>
    </defs>
    <g clip-path="url(#pa9b10b4b50)">
     <use style="fill:#0000ff;stroke:#0000ff;" x="101.612302" xlink:href="#me4a069a20e" y="79.92593"/>
     <use style="fill:#0000ff;stroke:#0000ff;" x="110.294233" xlink:href="#me4a069a20e" y="80.200669"/>
     <use style="fill:#0000ff;stroke:#0000ff;" x="138.062824" xlink:href="#me4a069a20e" y="80.853218"/>
     <use style="fill:#0000ff;stroke:#0000ff;" x="177.321303" xlink:href="#me4a069a20e" y="80.166195"/>
     <use style="fill:#0000ff;stroke:#0000ff;" x="276.457602" xlink:href="#me4a069a20e" y="78.105124"/>
     <use style="fill:#0000ff;stroke:#0000ff;" x="320.87892" xlink:href="#me4a069a20e" y="82.296214"/>
     <use style="fill:#0000ff;stroke:#0000ff;" x="325.947027" xlink:href="#me4a069a20e" y="88.960659"/>
     <use style="fill:#0000ff;stroke:#0000ff;" x="331.489117" xlink:href="#me4a069a20e" y="88.033371"/>
     <use style="fill:#0000ff;stroke:#0000ff;" x="340.439561" xlink:href="#me4a069a20e" y="93.598508"/>
     <use style="fill:#0000ff;stroke:#0000ff;" x="349.258689" xlink:href="#me4a069a20e" y="101.946213"/>
     <use style="fill:#0000ff;stroke:#0000ff;" x="355.464548" xlink:href="#me4a069a20e" y="116.821522"/>
     <use style="fill:#0000ff;stroke:#0000ff;" x="356.72349" xlink:href="#me4a069a20e" y="123.69211"/>
     <use style="fill:#0000ff;stroke:#0000ff;" x="358.203907" xlink:href="#me4a069a20e" y="136.64319"/>
     <use style="fill:#0000ff;stroke:#0000ff;" x="361.159514" xlink:href="#me4a069a20e" y="148.323294"/>
     <use style="fill:#0000ff;stroke:#0000ff;" x="361.918015" xlink:href="#me4a069a20e" y="150.247171"/>
     <use style="fill:#0000ff;stroke:#0000ff;" x="364.420546" xlink:href="#me4a069a20e" y="173.33264"/>
     <use style="fill:#0000ff;stroke:#0000ff;" x="364.920987" xlink:href="#me4a069a20e" y="194.631777"/>
     <use style="fill:#0000ff;stroke:#0000ff;" x="367.054394" xlink:href="#me4a069a20e" y="207.857948"/>
     <use style="fill:#0000ff;stroke:#0000ff;" x="372.322743" xlink:href="#me4a069a20e" y="256.261624"/>
    </g>
   </g>
   <g id="line2d_15">
    <path clip-path="url(#pa9b10b4b50)" d="M 85.849719 81.471645 
L 103.276954 81.196906 
L 126.52557 79.92593 
L 148.351588 80.784621 
L 172.58508 80.716025 
L 217.074669 82.021475 
L 258.877819 78.105124 
L 260.321323 79.204432 
L 283.833226 81.025238 
L 307.624096 78.895219 
L 327.469583 81.746384 
L 334.681551 83.18938 
L 347.409475 87.174327 
L 350.512404 89.201276 
L 353.731298 102.289901 
L 354.400295 103.595351 
L 355.859805 106.206252 
L 359.14697 114.931768 
L 360.890674 137.845569 
L 361.559997 148.220222 
L 362.360637 149.86936 
L 363.477483 150.934194 
L 364.610008 168.694791 
L 364.652147 169.450763 
L 365.163368 206.827237 
L 365.848044 207.582857 
L 366.274987 220.122004 
L 367.360146 222.663956 
L 369.757167 242.52045 
L 371.116393 256.261624 
" style="fill:none;stroke:#ffa500;stroke-linecap:square;stroke-width:1.5;"/>
    <defs>
     <path d="M 0 1.5 
C 0.397805 1.5 0.77937 1.341951 1.06066 1.06066 
C 1.341951 0.77937 1.5 0.397805 1.5 0 
C 1.5 -0.397805 1.341951 -0.77937 1.06066 -1.06066 
C 0.77937 -1.341951 0.397805 -1.5 0 -1.5 
C -0.397805 -1.5 -0.77937 -1.341951 -1.06066 -1.06066 
C -1.341951 -0.77937 -1.5 -0.397805 -1.5 0 
C -1.5 0.397805 -1.341951 0.77937 -1.06066 1.06066 
C -0.77937 1.341951 -0.397805 1.5 0 1.5 
z
" id="m22adc65eb9" style="stroke:#ffa500;"/>
    </defs>
    <g clip-path="url(#pa9b10b4b50)">
     <use style="fill:#ffa500;stroke:#ffa500;" x="85.849719" xlink:href="#m22adc65eb9" y="81.471645"/>
     <use style="fill:#ffa500;stroke:#ffa500;" x="103.276954" xlink:href="#m22adc65eb9" y="81.196906"/>
     <use style="fill:#ffa500;stroke:#ffa500;" x="126.52557" xlink:href="#m22adc65eb9" y="79.92593"/>
     <use style="fill:#ffa500;stroke:#ffa500;" x="148.351588" xlink:href="#m22adc65eb9" y="80.784621"/>
     <use style="fill:#ffa500;stroke:#ffa500;" x="172.58508" xlink:href="#m22adc65eb9" y="80.716025"/>
     <use style="fill:#ffa500;stroke:#ffa500;" x="217.074669" xlink:href="#m22adc65eb9" y="82.021475"/>
     <use style="fill:#ffa500;stroke:#ffa500;" x="258.877819" xlink:href="#m22adc65eb9" y="78.105124"/>
     <use style="fill:#ffa500;stroke:#ffa500;" x="260.321323" xlink:href="#m22adc65eb9" y="79.204432"/>
     <use style="fill:#ffa500;stroke:#ffa500;" x="283.833226" xlink:href="#m22adc65eb9" y="81.025238"/>
     <use style="fill:#ffa500;stroke:#ffa500;" x="307.624096" xlink:href="#m22adc65eb9" y="78.895219"/>
     <use style="fill:#ffa500;stroke:#ffa500;" x="327.469583" xlink:href="#m22adc65eb9" y="81.746384"/>
     <use style="fill:#ffa500;stroke:#ffa500;" x="334.681551" xlink:href="#m22adc65eb9" y="83.18938"/>
     <use style="fill:#ffa500;stroke:#ffa500;" x="347.409475" xlink:href="#m22adc65eb9" y="87.174327"/>
     <use style="fill:#ffa500;stroke:#ffa500;" x="350.512404" xlink:href="#m22adc65eb9" y="89.201276"/>
     <use style="fill:#ffa500;stroke:#ffa500;" x="353.731298" xlink:href="#m22adc65eb9" y="102.289901"/>
     <use style="fill:#ffa500;stroke:#ffa500;" x="354.400295" xlink:href="#m22adc65eb9" y="103.595351"/>
     <use style="fill:#ffa500;stroke:#ffa500;" x="355.859805" xlink:href="#m22adc65eb9" y="106.206252"/>
     <use style="fill:#ffa500;stroke:#ffa500;" x="359.14697" xlink:href="#m22adc65eb9" y="114.931768"/>
     <use style="fill:#ffa500;stroke:#ffa500;" x="360.890674" xlink:href="#m22adc65eb9" y="137.845569"/>
     <use style="fill:#ffa500;stroke:#ffa500;" x="361.559997" xlink:href="#m22adc65eb9" y="148.220222"/>
     <use style="fill:#ffa500;stroke:#ffa500;" x="362.360637" xlink:href="#m22adc65eb9" y="149.86936"/>
     <use style="fill:#ffa500;stroke:#ffa500;" x="363.477483" xlink:href="#m22adc65eb9" y="150.934194"/>
     <use style="fill:#ffa500;stroke:#ffa500;" x="364.610008" xlink:href="#m22adc65eb9" y="168.694791"/>
     <use style="fill:#ffa500;stroke:#ffa500;" x="364.652147" xlink:href="#m22adc65eb9" y="169.450763"/>
     <use style="fill:#ffa500;stroke:#ffa500;" x="365.163368" xlink:href="#m22adc65eb9" y="206.827237"/>
     <use style="fill:#ffa500;stroke:#ffa500;" x="365.848044" xlink:href="#m22adc65eb9" y="207.582857"/>
     <use style="fill:#ffa500;stroke:#ffa500;" x="366.274987" xlink:href="#m22adc65eb9" y="220.122004"/>
     <use style="fill:#ffa500;stroke:#ffa500;" x="367.360146" xlink:href="#m22adc65eb9" y="222.663956"/>
     <use style="fill:#ffa500;stroke:#ffa500;" x="369.757167" xlink:href="#m22adc65eb9" y="242.52045"/>
     <use style="fill:#ffa500;stroke:#ffa500;" x="371.116393" xlink:href="#m22adc65eb9" y="256.261624"/>
    </g>
   </g>
   <g id="line2d_16">
    <path clip-path="url(#pa9b10b4b50)" d="M 85.849719 94.59472 
L 103.276954 94.59472 
L 126.52557 94.59472 
L 148.351588 94.59472 
L 172.58508 94.59472 
L 217.074669 94.59472 
L 258.877819 94.59472 
L 260.321323 94.59472 
L 283.833226 94.59472 
L 307.624096 94.59472 
L 327.469583 94.59472 
L 334.681551 94.59472 
L 347.409475 94.59472 
L 350.512404 94.59472 
L 353.731298 94.59472 
L 354.400295 94.59472 
L 355.859805 94.59472 
L 359.14697 94.59472 
L 360.890674 94.59472 
L 361.559997 94.59472 
L 362.360637 94.59472 
L 363.477483 94.59472 
L 364.610008 94.59472 
L 364.652147 94.59472 
L 365.163368 94.59472 
L 365.848044 94.59472 
L 366.274987 94.59472 
L 367.360146 94.59472 
L 369.757167 94.59472 
L 371.116393 94.59472 
" style="fill:none;stroke:#000000;stroke-linecap:square;stroke-opacity:0.5;stroke-width:1.5;"/>
   </g>
   <g id="patch_3">
    <path d="M 54 266.792727 
L 54 69.12 
" style="fill:none;stroke:#000000;stroke-linecap:square;stroke-linejoin:miter;stroke-width:0.8;"/>
   </g>
   <g id="patch_4">
    <path d="M 388.8 266.792727 
L 388.8 69.12 
" style="fill:none;stroke:#000000;stroke-linecap:square;stroke-linejoin:miter;stroke-width:0.8;"/>
   </g>
   <g id="patch_5">
    <path d="M 54 266.792727 
L 388.8 266.792727 
" style="fill:none;stroke:#000000;stroke-linecap:square;stroke-linejoin:miter;stroke-width:0.8;"/>
   </g>
   <g id="patch_6">
    <path d="M 54 69.12 
L 388.8 69.12 
" style="fill:none;stroke:#000000;stroke-linecap:square;stroke-linejoin:miter;stroke-width:0.8;"/>
   </g>
   <g id="text_12">
    <!-- a. Different types of pruning, CIFAR10 -->
    <g transform="translate(107.749688 63.12)scale(0.12 -0.12)">
     <defs>
      <path d="M 34.28125 27.484375 
Q 23.390625 27.484375 19.1875 25 
Q 14.984375 22.515625 14.984375 16.5 
Q 14.984375 11.71875 18.140625 8.90625 
Q 21.296875 6.109375 26.703125 6.109375 
Q 34.1875 6.109375 38.703125 11.40625 
Q 43.21875 16.703125 43.21875 25.484375 
L 43.21875 27.484375 
z
M 52.203125 31.203125 
L 52.203125 0 
L 43.21875 0 
L 43.21875 8.296875 
Q 40.140625 3.328125 35.546875 0.953125 
Q 30.953125 -1.421875 24.3125 -1.421875 
Q 15.921875 -1.421875 10.953125 3.296875 
Q 6 8.015625 6 15.921875 
Q 6 25.140625 12.171875 29.828125 
Q 18.359375 34.515625 30.609375 34.515625 
L 43.21875 34.515625 
L 43.21875 35.40625 
Q 43.21875 41.609375 39.140625 45 
Q 35.0625 48.390625 27.6875 48.390625 
Q 23 48.390625 18.546875 47.265625 
Q 14.109375 46.140625 10.015625 43.890625 
L 10.015625 52.203125 
Q 14.9375 54.109375 19.578125 55.046875 
Q 24.21875 56 28.609375 56 
Q 40.484375 56 46.34375 49.84375 
Q 52.203125 43.703125 52.203125 31.203125 
z
" id="DejaVuSans-97"/>
      <path id="DejaVuSans-32"/>
      <path d="M 19.671875 64.796875 
L 19.671875 8.109375 
L 31.59375 8.109375 
Q 46.6875 8.109375 53.6875 14.9375 
Q 60.6875 21.78125 60.6875 36.53125 
Q 60.6875 51.171875 53.6875 57.984375 
Q 46.6875 64.796875 31.59375 64.796875 
z
M 9.8125 72.90625 
L 30.078125 72.90625 
Q 51.265625 72.90625 61.171875 64.09375 
Q 71.09375 55.28125 71.09375 36.53125 
Q 71.09375 17.671875 61.125 8.828125 
Q 51.171875 0 30.078125 0 
L 9.8125 0 
z
" id="DejaVuSans-68"/>
      <path d="M 9.421875 54.6875 
L 18.40625 54.6875 
L 18.40625 0 
L 9.421875 0 
z
M 9.421875 75.984375 
L 18.40625 75.984375 
L 18.40625 64.59375 
L 9.421875 64.59375 
z
" id="DejaVuSans-105"/>
      <path d="M 37.109375 75.984375 
L 37.109375 68.5 
L 28.515625 68.5 
Q 23.6875 68.5 21.796875 66.546875 
Q 19.921875 64.59375 19.921875 59.515625 
L 19.921875 54.6875 
L 34.71875 54.6875 
L 34.71875 47.703125 
L 19.921875 47.703125 
L 19.921875 0 
L 10.890625 0 
L 10.890625 47.703125 
L 2.296875 47.703125 
L 2.296875 54.6875 
L 10.890625 54.6875 
L 10.890625 58.5 
Q 10.890625 67.625 15.140625 71.796875 
Q 19.390625 75.984375 28.609375 75.984375 
z
" id="DejaVuSans-102"/>
      <path d="M 56.203125 29.59375 
L 56.203125 25.203125 
L 14.890625 25.203125 
Q 15.484375 15.921875 20.484375 11.0625 
Q 25.484375 6.203125 34.421875 6.203125 
Q 39.59375 6.203125 44.453125 7.46875 
Q 49.3125 8.734375 54.109375 11.28125 
L 54.109375 2.78125 
Q 49.265625 0.734375 44.1875 -0.34375 
Q 39.109375 -1.421875 33.890625 -1.421875 
Q 20.796875 -1.421875 13.15625 6.1875 
Q 5.515625 13.8125 5.515625 26.8125 
Q 5.515625 40.234375 12.765625 48.109375 
Q 20.015625 56 32.328125 56 
Q 43.359375 56 49.78125 48.890625 
Q 56.203125 41.796875 56.203125 29.59375 
z
M 47.21875 32.234375 
Q 47.125 39.59375 43.09375 43.984375 
Q 39.0625 48.390625 32.421875 48.390625 
Q 24.90625 48.390625 20.390625 44.140625 
Q 15.875 39.890625 15.1875 32.171875 
z
" id="DejaVuSans-101"/>
      <path d="M 41.109375 46.296875 
Q 39.59375 47.171875 37.8125 47.578125 
Q 36.03125 48 33.890625 48 
Q 26.265625 48 22.1875 43.046875 
Q 18.109375 38.09375 18.109375 28.8125 
L 18.109375 0 
L 9.078125 0 
L 9.078125 54.6875 
L 18.109375 54.6875 
L 18.109375 46.1875 
Q 20.953125 51.171875 25.484375 53.578125 
Q 30.03125 56 36.53125 56 
Q 37.453125 56 38.578125 55.875 
Q 39.703125 55.765625 41.0625 55.515625 
z
" id="DejaVuSans-114"/>
      <path d="M 54.890625 33.015625 
L 54.890625 0 
L 45.90625 0 
L 45.90625 32.71875 
Q 45.90625 40.484375 42.875 44.328125 
Q 39.84375 48.1875 33.796875 48.1875 
Q 26.515625 48.1875 22.3125 43.546875 
Q 18.109375 38.921875 18.109375 30.90625 
L 18.109375 0 
L 9.078125 0 
L 9.078125 54.6875 
L 18.109375 54.6875 
L 18.109375 46.1875 
Q 21.34375 51.125 25.703125 53.5625 
Q 30.078125 56 35.796875 56 
Q 45.21875 56 50.046875 50.171875 
Q 54.890625 44.34375 54.890625 33.015625 
z
" id="DejaVuSans-110"/>
      <path d="M 18.3125 70.21875 
L 18.3125 54.6875 
L 36.8125 54.6875 
L 36.8125 47.703125 
L 18.3125 47.703125 
L 18.3125 18.015625 
Q 18.3125 11.328125 20.140625 9.421875 
Q 21.96875 7.515625 27.59375 7.515625 
L 36.8125 7.515625 
L 36.8125 0 
L 27.59375 0 
Q 17.1875 0 13.234375 3.875 
Q 9.28125 7.765625 9.28125 18.015625 
L 9.28125 47.703125 
L 2.6875 47.703125 
L 2.6875 54.6875 
L 9.28125 54.6875 
L 9.28125 70.21875 
z
" id="DejaVuSans-116"/>
      <path d="M 32.171875 -5.078125 
Q 28.375 -14.84375 24.75 -17.8125 
Q 21.140625 -20.796875 15.09375 -20.796875 
L 7.90625 -20.796875 
L 7.90625 -13.28125 
L 13.1875 -13.28125 
Q 16.890625 -13.28125 18.9375 -11.515625 
Q 21 -9.765625 23.484375 -3.21875 
L 25.09375 0.875 
L 2.984375 54.6875 
L 12.5 54.6875 
L 29.59375 11.921875 
L 46.6875 54.6875 
L 56.203125 54.6875 
z
" id="DejaVuSans-121"/>
      <path d="M 18.109375 8.203125 
L 18.109375 -20.796875 
L 9.078125 -20.796875 
L 9.078125 54.6875 
L 18.109375 54.6875 
L 18.109375 46.390625 
Q 20.953125 51.265625 25.265625 53.625 
Q 29.59375 56 35.59375 56 
Q 45.5625 56 51.78125 48.09375 
Q 58.015625 40.1875 58.015625 27.296875 
Q 58.015625 14.40625 51.78125 6.484375 
Q 45.5625 -1.421875 35.59375 -1.421875 
Q 29.59375 -1.421875 25.265625 0.953125 
Q 20.953125 3.328125 18.109375 8.203125 
z
M 48.6875 27.296875 
Q 48.6875 37.203125 44.609375 42.84375 
Q 40.53125 48.484375 33.40625 48.484375 
Q 26.265625 48.484375 22.1875 42.84375 
Q 18.109375 37.203125 18.109375 27.296875 
Q 18.109375 17.390625 22.1875 11.75 
Q 26.265625 6.109375 33.40625 6.109375 
Q 40.53125 6.109375 44.609375 11.75 
Q 48.6875 17.390625 48.6875 27.296875 
z
" id="DejaVuSans-112"/>
      <path d="M 44.28125 53.078125 
L 44.28125 44.578125 
Q 40.484375 46.53125 36.375 47.5 
Q 32.28125 48.484375 27.875 48.484375 
Q 21.1875 48.484375 17.84375 46.4375 
Q 14.5 44.390625 14.5 40.28125 
Q 14.5 37.15625 16.890625 35.375 
Q 19.28125 33.59375 26.515625 31.984375 
L 29.59375 31.296875 
Q 39.15625 29.25 43.1875 25.515625 
Q 47.21875 21.78125 47.21875 15.09375 
Q 47.21875 7.46875 41.1875 3.015625 
Q 35.15625 -1.421875 24.609375 -1.421875 
Q 20.21875 -1.421875 15.453125 -0.5625 
Q 10.6875 0.296875 5.421875 2 
L 5.421875 11.28125 
Q 10.40625 8.6875 15.234375 7.390625 
Q 20.0625 6.109375 24.8125 6.109375 
Q 31.15625 6.109375 34.5625 8.28125 
Q 37.984375 10.453125 37.984375 14.40625 
Q 37.984375 18.0625 35.515625 20.015625 
Q 33.0625 21.96875 24.703125 23.78125 
L 21.578125 24.515625 
Q 13.234375 26.265625 9.515625 29.90625 
Q 5.8125 33.546875 5.8125 39.890625 
Q 5.8125 47.609375 11.28125 51.796875 
Q 16.75 56 26.8125 56 
Q 31.78125 56 36.171875 55.265625 
Q 40.578125 54.546875 44.28125 53.078125 
z
" id="DejaVuSans-115"/>
      <path d="M 30.609375 48.390625 
Q 23.390625 48.390625 19.1875 42.75 
Q 14.984375 37.109375 14.984375 27.296875 
Q 14.984375 17.484375 19.15625 11.84375 
Q 23.34375 6.203125 30.609375 6.203125 
Q 37.796875 6.203125 41.984375 11.859375 
Q 46.1875 17.53125 46.1875 27.296875 
Q 46.1875 37.015625 41.984375 42.703125 
Q 37.796875 48.390625 30.609375 48.390625 
z
M 30.609375 56 
Q 42.328125 56 49.015625 48.375 
Q 55.71875 40.765625 55.71875 27.296875 
Q 55.71875 13.875 49.015625 6.21875 
Q 42.328125 -1.421875 30.609375 -1.421875 
Q 18.84375 -1.421875 12.171875 6.21875 
Q 5.515625 13.875 5.515625 27.296875 
Q 5.515625 40.765625 12.171875 48.375 
Q 18.84375 56 30.609375 56 
z
" id="DejaVuSans-111"/>
      <path d="M 8.5 21.578125 
L 8.5 54.6875 
L 17.484375 54.6875 
L 17.484375 21.921875 
Q 17.484375 14.15625 20.5 10.265625 
Q 23.53125 6.390625 29.59375 6.390625 
Q 36.859375 6.390625 41.078125 11.03125 
Q 45.3125 15.671875 45.3125 23.6875 
L 45.3125 54.6875 
L 54.296875 54.6875 
L 54.296875 0 
L 45.3125 0 
L 45.3125 8.40625 
Q 42.046875 3.421875 37.71875 1 
Q 33.40625 -1.421875 27.6875 -1.421875 
Q 18.265625 -1.421875 13.375 4.4375 
Q 8.5 10.296875 8.5 21.578125 
z
M 31.109375 56 
z
" id="DejaVuSans-117"/>
      <path d="M 45.40625 27.984375 
Q 45.40625 37.75 41.375 43.109375 
Q 37.359375 48.484375 30.078125 48.484375 
Q 22.859375 48.484375 18.828125 43.109375 
Q 14.796875 37.75 14.796875 27.984375 
Q 14.796875 18.265625 18.828125 12.890625 
Q 22.859375 7.515625 30.078125 7.515625 
Q 37.359375 7.515625 41.375 12.890625 
Q 45.40625 18.265625 45.40625 27.984375 
z
M 54.390625 6.78125 
Q 54.390625 -7.171875 48.1875 -13.984375 
Q 42 -20.796875 29.203125 -20.796875 
Q 24.46875 -20.796875 20.265625 -20.09375 
Q 16.0625 -19.390625 12.109375 -17.921875 
L 12.109375 -9.1875 
Q 16.0625 -11.328125 19.921875 -12.34375 
Q 23.78125 -13.375 27.78125 -13.375 
Q 36.625 -13.375 41.015625 -8.765625 
Q 45.40625 -4.15625 45.40625 5.171875 
L 45.40625 9.625 
Q 42.625 4.78125 38.28125 2.390625 
Q 33.9375 0 27.875 0 
Q 17.828125 0 11.671875 7.65625 
Q 5.515625 15.328125 5.515625 27.984375 
Q 5.515625 40.671875 11.671875 48.328125 
Q 17.828125 56 27.875 56 
Q 33.9375 56 38.28125 53.609375 
Q 42.625 51.21875 45.40625 46.390625 
L 45.40625 54.6875 
L 54.390625 54.6875 
z
" id="DejaVuSans-103"/>
      <path d="M 11.71875 12.40625 
L 22.015625 12.40625 
L 22.015625 4 
L 14.015625 -11.625 
L 7.71875 -11.625 
L 11.71875 4 
z
" id="DejaVuSans-44"/>
      <path d="M 64.40625 67.28125 
L 64.40625 56.890625 
Q 59.421875 61.53125 53.78125 63.8125 
Q 48.140625 66.109375 41.796875 66.109375 
Q 29.296875 66.109375 22.65625 58.46875 
Q 16.015625 50.828125 16.015625 36.375 
Q 16.015625 21.96875 22.65625 14.328125 
Q 29.296875 6.6875 41.796875 6.6875 
Q 48.140625 6.6875 53.78125 8.984375 
Q 59.421875 11.28125 64.40625 15.921875 
L 64.40625 5.609375 
Q 59.234375 2.09375 53.4375 0.328125 
Q 47.65625 -1.421875 41.21875 -1.421875 
Q 24.65625 -1.421875 15.125 8.703125 
Q 5.609375 18.84375 5.609375 36.375 
Q 5.609375 53.953125 15.125 64.078125 
Q 24.65625 74.21875 41.21875 74.21875 
Q 47.75 74.21875 53.53125 72.484375 
Q 59.328125 70.75 64.40625 67.28125 
z
" id="DejaVuSans-67"/>
      <path d="M 9.8125 72.90625 
L 19.671875 72.90625 
L 19.671875 0 
L 9.8125 0 
z
" id="DejaVuSans-73"/>
      <path d="M 9.8125 72.90625 
L 51.703125 72.90625 
L 51.703125 64.59375 
L 19.671875 64.59375 
L 19.671875 43.109375 
L 48.578125 43.109375 
L 48.578125 34.8125 
L 19.671875 34.8125 
L 19.671875 0 
L 9.8125 0 
z
" id="DejaVuSans-70"/>
      <path d="M 34.1875 63.1875 
L 20.796875 26.90625 
L 47.609375 26.90625 
z
M 28.609375 72.90625 
L 39.796875 72.90625 
L 67.578125 0 
L 57.328125 0 
L 50.6875 18.703125 
L 17.828125 18.703125 
L 11.1875 0 
L 0.78125 0 
z
" id="DejaVuSans-65"/>
      <path d="M 44.390625 34.1875 
Q 47.5625 33.109375 50.5625 29.59375 
Q 53.5625 26.078125 56.59375 19.921875 
L 66.609375 0 
L 56 0 
L 46.6875 18.703125 
Q 43.0625 26.03125 39.671875 28.421875 
Q 36.28125 30.8125 30.421875 30.8125 
L 19.671875 30.8125 
L 19.671875 0 
L 9.8125 0 
L 9.8125 72.90625 
L 32.078125 72.90625 
Q 44.578125 72.90625 50.734375 67.671875 
Q 56.890625 62.453125 56.890625 51.90625 
Q 56.890625 45.015625 53.6875 40.46875 
Q 50.484375 35.9375 44.390625 34.1875 
z
M 19.671875 64.796875 
L 19.671875 38.921875 
L 32.078125 38.921875 
Q 39.203125 38.921875 42.84375 42.21875 
Q 46.484375 45.515625 46.484375 51.90625 
Q 46.484375 58.296875 42.84375 61.546875 
Q 39.203125 64.796875 32.078125 64.796875 
z
" id="DejaVuSans-82"/>
     </defs>
     <use xlink:href="#DejaVuSans-97"/>
     <use x="61.279297" xlink:href="#DejaVuSans-46"/>
     <use x="93.066406" xlink:href="#DejaVuSans-32"/>
     <use x="124.853516" xlink:href="#DejaVuSans-68"/>
     <use x="201.855469" xlink:href="#DejaVuSans-105"/>
     <use x="229.638672" xlink:href="#DejaVuSans-102"/>
     <use x="264.84375" xlink:href="#DejaVuSans-102"/>
     <use x="300.048828" xlink:href="#DejaVuSans-101"/>
     <use x="361.572266" xlink:href="#DejaVuSans-114"/>
     <use x="400.435547" xlink:href="#DejaVuSans-101"/>
     <use x="461.958984" xlink:href="#DejaVuSans-110"/>
     <use x="525.337891" xlink:href="#DejaVuSans-116"/>
     <use x="564.546875" xlink:href="#DejaVuSans-32"/>
     <use x="596.333984" xlink:href="#DejaVuSans-116"/>
     <use x="635.542969" xlink:href="#DejaVuSans-121"/>
     <use x="694.722656" xlink:href="#DejaVuSans-112"/>
     <use x="758.199219" xlink:href="#DejaVuSans-101"/>
     <use x="819.722656" xlink:href="#DejaVuSans-115"/>
     <use x="871.822266" xlink:href="#DejaVuSans-32"/>
     <use x="903.609375" xlink:href="#DejaVuSans-111"/>
     <use x="964.791016" xlink:href="#DejaVuSans-102"/>
     <use x="999.996094" xlink:href="#DejaVuSans-32"/>
     <use x="1031.783203" xlink:href="#DejaVuSans-112"/>
     <use x="1095.259766" xlink:href="#DejaVuSans-114"/>
     <use x="1136.373047" xlink:href="#DejaVuSans-117"/>
     <use x="1199.751953" xlink:href="#DejaVuSans-110"/>
     <use x="1263.130859" xlink:href="#DejaVuSans-105"/>
     <use x="1290.914062" xlink:href="#DejaVuSans-110"/>
     <use x="1354.292969" xlink:href="#DejaVuSans-103"/>
     <use x="1417.769531" xlink:href="#DejaVuSans-44"/>
     <use x="1449.556641" xlink:href="#DejaVuSans-32"/>
     <use x="1481.34375" xlink:href="#DejaVuSans-67"/>
     <use x="1551.167969" xlink:href="#DejaVuSans-73"/>
     <use x="1580.660156" xlink:href="#DejaVuSans-70"/>
     <use x="1629.054688" xlink:href="#DejaVuSans-65"/>
     <use x="1697.462891" xlink:href="#DejaVuSans-82"/>
     <use x="1766.945312" xlink:href="#DejaVuSans-49"/>
     <use x="1830.568359" xlink:href="#DejaVuSans-48"/>
    </g>
   </g>
   <g id="legend_1">
    <g id="patch_7">
     <path d="M 61 261.792727 
L 271.99375 261.792727 
Q 273.99375 261.792727 273.99375 259.792727 
L 273.99375 187.402102 
Q 273.99375 185.402102 271.99375 185.402102 
L 61 185.402102 
Q 59 185.402102 59 187.402102 
L 59 259.792727 
Q 59 261.792727 61 261.792727 
z
" style="fill:#ffffff;opacity:0.8;stroke:#cccccc;stroke-linejoin:miter;"/>
    </g>
    <g id="line2d_17">
     <path d="M 63 193.50054 
L 83 193.50054 
" style="fill:none;stroke:#ff0000;stroke-linecap:square;stroke-width:1.5;"/>
    </g>
    <g id="line2d_18">
     <g>
      <use style="fill:#ff0000;stroke:#ff0000;" x="73" xlink:href="#md379834403" y="193.50054"/>
     </g>
    </g>
    <g id="text_13">
     <!-- Standard Pruning -->
     <g transform="translate(91 197.00054)scale(0.1 -0.1)">
      <defs>
       <path d="M 53.515625 70.515625 
L 53.515625 60.890625 
Q 47.90625 63.578125 42.921875 64.890625 
Q 37.9375 66.21875 33.296875 66.21875 
Q 25.25 66.21875 20.875 63.09375 
Q 16.5 59.96875 16.5 54.203125 
Q 16.5 49.359375 19.40625 46.890625 
Q 22.3125 44.4375 30.421875 42.921875 
L 36.375 41.703125 
Q 47.40625 39.59375 52.65625 34.296875 
Q 57.90625 29 57.90625 20.125 
Q 57.90625 9.515625 50.796875 4.046875 
Q 43.703125 -1.421875 29.984375 -1.421875 
Q 24.8125 -1.421875 18.96875 -0.25 
Q 13.140625 0.921875 6.890625 3.21875 
L 6.890625 13.375 
Q 12.890625 10.015625 18.65625 8.296875 
Q 24.421875 6.59375 29.984375 6.59375 
Q 38.421875 6.59375 43.015625 9.90625 
Q 47.609375 13.234375 47.609375 19.390625 
Q 47.609375 24.75 44.3125 27.78125 
Q 41.015625 30.8125 33.5 32.328125 
L 27.484375 33.5 
Q 16.453125 35.6875 11.515625 40.375 
Q 6.59375 45.0625 6.59375 53.421875 
Q 6.59375 63.09375 13.40625 68.65625 
Q 20.21875 74.21875 32.171875 74.21875 
Q 37.3125 74.21875 42.625 73.28125 
Q 47.953125 72.359375 53.515625 70.515625 
z
" id="DejaVuSans-83"/>
       <path d="M 45.40625 46.390625 
L 45.40625 75.984375 
L 54.390625 75.984375 
L 54.390625 0 
L 45.40625 0 
L 45.40625 8.203125 
Q 42.578125 3.328125 38.25 0.953125 
Q 33.9375 -1.421875 27.875 -1.421875 
Q 17.96875 -1.421875 11.734375 6.484375 
Q 5.515625 14.40625 5.515625 27.296875 
Q 5.515625 40.1875 11.734375 48.09375 
Q 17.96875 56 27.875 56 
Q 33.9375 56 38.25 53.625 
Q 42.578125 51.265625 45.40625 46.390625 
z
M 14.796875 27.296875 
Q 14.796875 17.390625 18.875 11.75 
Q 22.953125 6.109375 30.078125 6.109375 
Q 37.203125 6.109375 41.296875 11.75 
Q 45.40625 17.390625 45.40625 27.296875 
Q 45.40625 37.203125 41.296875 42.84375 
Q 37.203125 48.484375 30.078125 48.484375 
Q 22.953125 48.484375 18.875 42.84375 
Q 14.796875 37.203125 14.796875 27.296875 
z
" id="DejaVuSans-100"/>
       <path d="M 19.671875 64.796875 
L 19.671875 37.40625 
L 32.078125 37.40625 
Q 38.96875 37.40625 42.71875 40.96875 
Q 46.484375 44.53125 46.484375 51.125 
Q 46.484375 57.671875 42.71875 61.234375 
Q 38.96875 64.796875 32.078125 64.796875 
z
M 9.8125 72.90625 
L 32.078125 72.90625 
Q 44.34375 72.90625 50.609375 67.359375 
Q 56.890625 61.8125 56.890625 51.125 
Q 56.890625 40.328125 50.609375 34.8125 
Q 44.34375 29.296875 32.078125 29.296875 
L 19.671875 29.296875 
L 19.671875 0 
L 9.8125 0 
z
" id="DejaVuSans-80"/>
      </defs>
      <use xlink:href="#DejaVuSans-83"/>
      <use x="63.476562" xlink:href="#DejaVuSans-116"/>
      <use x="102.685547" xlink:href="#DejaVuSans-97"/>
      <use x="163.964844" xlink:href="#DejaVuSans-110"/>
      <use x="227.34375" xlink:href="#DejaVuSans-100"/>
      <use x="290.820312" xlink:href="#DejaVuSans-97"/>
      <use x="352.099609" xlink:href="#DejaVuSans-114"/>
      <use x="391.462891" xlink:href="#DejaVuSans-100"/>
      <use x="454.939453" xlink:href="#DejaVuSans-32"/>
      <use x="486.726562" xlink:href="#DejaVuSans-80"/>
      <use x="545.279297" xlink:href="#DejaVuSans-114"/>
      <use x="586.392578" xlink:href="#DejaVuSans-117"/>
      <use x="649.771484" xlink:href="#DejaVuSans-110"/>
      <use x="713.150391" xlink:href="#DejaVuSans-105"/>
      <use x="740.933594" xlink:href="#DejaVuSans-110"/>
      <use x="804.3125" xlink:href="#DejaVuSans-103"/>
     </g>
    </g>
    <g id="line2d_19">
     <path d="M 63 208.178665 
L 83 208.178665 
" style="fill:none;stroke:#008000;stroke-linecap:square;stroke-width:1.5;"/>
    </g>
    <g id="line2d_20">
     <g>
      <use style="fill:#008000;stroke:#008000;" x="73" xlink:href="#m817dc589ed" y="208.178665"/>
     </g>
    </g>
    <g id="text_14">
     <!-- Pruning based on weight evolution -->
     <g transform="translate(91 211.678665)scale(0.1 -0.1)">
      <defs>
       <path d="M 48.6875 27.296875 
Q 48.6875 37.203125 44.609375 42.84375 
Q 40.53125 48.484375 33.40625 48.484375 
Q 26.265625 48.484375 22.1875 42.84375 
Q 18.109375 37.203125 18.109375 27.296875 
Q 18.109375 17.390625 22.1875 11.75 
Q 26.265625 6.109375 33.40625 6.109375 
Q 40.53125 6.109375 44.609375 11.75 
Q 48.6875 17.390625 48.6875 27.296875 
z
M 18.109375 46.390625 
Q 20.953125 51.265625 25.265625 53.625 
Q 29.59375 56 35.59375 56 
Q 45.5625 56 51.78125 48.09375 
Q 58.015625 40.1875 58.015625 27.296875 
Q 58.015625 14.40625 51.78125 6.484375 
Q 45.5625 -1.421875 35.59375 -1.421875 
Q 29.59375 -1.421875 25.265625 0.953125 
Q 20.953125 3.328125 18.109375 8.203125 
L 18.109375 0 
L 9.078125 0 
L 9.078125 75.984375 
L 18.109375 75.984375 
z
" id="DejaVuSans-98"/>
       <path d="M 4.203125 54.6875 
L 13.1875 54.6875 
L 24.421875 12.015625 
L 35.59375 54.6875 
L 46.1875 54.6875 
L 57.421875 12.015625 
L 68.609375 54.6875 
L 77.59375 54.6875 
L 63.28125 0 
L 52.6875 0 
L 40.921875 44.828125 
L 29.109375 0 
L 18.5 0 
z
" id="DejaVuSans-119"/>
       <path d="M 54.890625 33.015625 
L 54.890625 0 
L 45.90625 0 
L 45.90625 32.71875 
Q 45.90625 40.484375 42.875 44.328125 
Q 39.84375 48.1875 33.796875 48.1875 
Q 26.515625 48.1875 22.3125 43.546875 
Q 18.109375 38.921875 18.109375 30.90625 
L 18.109375 0 
L 9.078125 0 
L 9.078125 75.984375 
L 18.109375 75.984375 
L 18.109375 46.1875 
Q 21.34375 51.125 25.703125 53.5625 
Q 30.078125 56 35.796875 56 
Q 45.21875 56 50.046875 50.171875 
Q 54.890625 44.34375 54.890625 33.015625 
z
" id="DejaVuSans-104"/>
       <path d="M 2.984375 54.6875 
L 12.5 54.6875 
L 29.59375 8.796875 
L 46.6875 54.6875 
L 56.203125 54.6875 
L 35.6875 0 
L 23.484375 0 
z
" id="DejaVuSans-118"/>
       <path d="M 9.421875 75.984375 
L 18.40625 75.984375 
L 18.40625 0 
L 9.421875 0 
z
" id="DejaVuSans-108"/>
      </defs>
      <use xlink:href="#DejaVuSans-80"/>
      <use x="58.552734" xlink:href="#DejaVuSans-114"/>
      <use x="99.666016" xlink:href="#DejaVuSans-117"/>
      <use x="163.044922" xlink:href="#DejaVuSans-110"/>
      <use x="226.423828" xlink:href="#DejaVuSans-105"/>
      <use x="254.207031" xlink:href="#DejaVuSans-110"/>
      <use x="317.585938" xlink:href="#DejaVuSans-103"/>
      <use x="381.0625" xlink:href="#DejaVuSans-32"/>
      <use x="412.849609" xlink:href="#DejaVuSans-98"/>
      <use x="476.326172" xlink:href="#DejaVuSans-97"/>
      <use x="537.605469" xlink:href="#DejaVuSans-115"/>
      <use x="589.705078" xlink:href="#DejaVuSans-101"/>
      <use x="651.228516" xlink:href="#DejaVuSans-100"/>
      <use x="714.705078" xlink:href="#DejaVuSans-32"/>
      <use x="746.492188" xlink:href="#DejaVuSans-111"/>
      <use x="807.673828" xlink:href="#DejaVuSans-110"/>
      <use x="871.052734" xlink:href="#DejaVuSans-32"/>
      <use x="902.839844" xlink:href="#DejaVuSans-119"/>
      <use x="984.626953" xlink:href="#DejaVuSans-101"/>
      <use x="1046.150391" xlink:href="#DejaVuSans-105"/>
      <use x="1073.933594" xlink:href="#DejaVuSans-103"/>
      <use x="1137.410156" xlink:href="#DejaVuSans-104"/>
      <use x="1200.789062" xlink:href="#DejaVuSans-116"/>
      <use x="1239.998047" xlink:href="#DejaVuSans-32"/>
      <use x="1271.785156" xlink:href="#DejaVuSans-101"/>
      <use x="1333.308594" xlink:href="#DejaVuSans-118"/>
      <use x="1392.488281" xlink:href="#DejaVuSans-111"/>
      <use x="1453.669922" xlink:href="#DejaVuSans-108"/>
      <use x="1481.453125" xlink:href="#DejaVuSans-117"/>
      <use x="1544.832031" xlink:href="#DejaVuSans-116"/>
      <use x="1584.041016" xlink:href="#DejaVuSans-105"/>
      <use x="1611.824219" xlink:href="#DejaVuSans-111"/>
      <use x="1673.005859" xlink:href="#DejaVuSans-110"/>
     </g>
    </g>
    <g id="line2d_21">
     <path d="M 63 222.85679 
L 83 222.85679 
" style="fill:none;stroke:#0000ff;stroke-linecap:square;stroke-width:1.5;"/>
    </g>
    <g id="line2d_22">
     <g>
      <use style="fill:#0000ff;stroke:#0000ff;" x="73" xlink:href="#me4a069a20e" y="222.85679"/>
     </g>
    </g>
    <g id="text_15">
     <!-- Bezier Curve on weight evolution -->
     <g transform="translate(91 226.35679)scale(0.1 -0.1)">
      <defs>
       <path d="M 19.671875 34.8125 
L 19.671875 8.109375 
L 35.5 8.109375 
Q 43.453125 8.109375 47.28125 11.40625 
Q 51.125 14.703125 51.125 21.484375 
Q 51.125 28.328125 47.28125 31.5625 
Q 43.453125 34.8125 35.5 34.8125 
z
M 19.671875 64.796875 
L 19.671875 42.828125 
L 34.28125 42.828125 
Q 41.5 42.828125 45.03125 45.53125 
Q 48.578125 48.25 48.578125 53.8125 
Q 48.578125 59.328125 45.03125 62.0625 
Q 41.5 64.796875 34.28125 64.796875 
z
M 9.8125 72.90625 
L 35.015625 72.90625 
Q 46.296875 72.90625 52.390625 68.21875 
Q 58.5 63.53125 58.5 54.890625 
Q 58.5 48.1875 55.375 44.234375 
Q 52.25 40.28125 46.1875 39.3125 
Q 53.46875 37.75 57.5 32.78125 
Q 61.53125 27.828125 61.53125 20.40625 
Q 61.53125 10.640625 54.890625 5.3125 
Q 48.25 0 35.984375 0 
L 9.8125 0 
z
" id="DejaVuSans-66"/>
       <path d="M 5.515625 54.6875 
L 48.1875 54.6875 
L 48.1875 46.484375 
L 14.40625 7.171875 
L 48.1875 7.171875 
L 48.1875 0 
L 4.296875 0 
L 4.296875 8.203125 
L 38.09375 47.515625 
L 5.515625 47.515625 
z
" id="DejaVuSans-122"/>
      </defs>
      <use xlink:href="#DejaVuSans-66"/>
      <use x="68.603516" xlink:href="#DejaVuSans-101"/>
      <use x="130.126953" xlink:href="#DejaVuSans-122"/>
      <use x="182.617188" xlink:href="#DejaVuSans-105"/>
      <use x="210.400391" xlink:href="#DejaVuSans-101"/>
      <use x="271.923828" xlink:href="#DejaVuSans-114"/>
      <use x="313.037109" xlink:href="#DejaVuSans-32"/>
      <use x="344.824219" xlink:href="#DejaVuSans-67"/>
      <use x="414.648438" xlink:href="#DejaVuSans-117"/>
      <use x="478.027344" xlink:href="#DejaVuSans-114"/>
      <use x="519.140625" xlink:href="#DejaVuSans-118"/>
      <use x="578.320312" xlink:href="#DejaVuSans-101"/>
      <use x="639.84375" xlink:href="#DejaVuSans-32"/>
      <use x="671.630859" xlink:href="#DejaVuSans-111"/>
      <use x="732.8125" xlink:href="#DejaVuSans-110"/>
      <use x="796.191406" xlink:href="#DejaVuSans-32"/>
      <use x="827.978516" xlink:href="#DejaVuSans-119"/>
      <use x="909.765625" xlink:href="#DejaVuSans-101"/>
      <use x="971.289062" xlink:href="#DejaVuSans-105"/>
      <use x="999.072266" xlink:href="#DejaVuSans-103"/>
      <use x="1062.548828" xlink:href="#DejaVuSans-104"/>
      <use x="1125.927734" xlink:href="#DejaVuSans-116"/>
      <use x="1165.136719" xlink:href="#DejaVuSans-32"/>
      <use x="1196.923828" xlink:href="#DejaVuSans-101"/>
      <use x="1258.447266" xlink:href="#DejaVuSans-118"/>
      <use x="1317.626953" xlink:href="#DejaVuSans-111"/>
      <use x="1378.808594" xlink:href="#DejaVuSans-108"/>
      <use x="1406.591797" xlink:href="#DejaVuSans-117"/>
      <use x="1469.970703" xlink:href="#DejaVuSans-116"/>
      <use x="1509.179688" xlink:href="#DejaVuSans-105"/>
      <use x="1536.962891" xlink:href="#DejaVuSans-111"/>
      <use x="1598.144531" xlink:href="#DejaVuSans-110"/>
     </g>
    </g>
    <g id="line2d_23">
     <path d="M 63 237.534915 
L 83 237.534915 
" style="fill:none;stroke:#ffa500;stroke-linecap:square;stroke-width:1.5;"/>
    </g>
    <g id="line2d_24">
     <g>
      <use style="fill:#ffa500;stroke:#ffa500;" x="73" xlink:href="#m22adc65eb9" y="237.534915"/>
     </g>
    </g>
    <g id="text_16">
     <!-- Bezier Curve on weight magnitudes -->
     <g transform="translate(91 241.034915)scale(0.1 -0.1)">
      <defs>
       <path d="M 52 44.1875 
Q 55.375 50.25 60.0625 53.125 
Q 64.75 56 71.09375 56 
Q 79.640625 56 84.28125 50.015625 
Q 88.921875 44.046875 88.921875 33.015625 
L 88.921875 0 
L 79.890625 0 
L 79.890625 32.71875 
Q 79.890625 40.578125 77.09375 44.375 
Q 74.3125 48.1875 68.609375 48.1875 
Q 61.625 48.1875 57.5625 43.546875 
Q 53.515625 38.921875 53.515625 30.90625 
L 53.515625 0 
L 44.484375 0 
L 44.484375 32.71875 
Q 44.484375 40.625 41.703125 44.40625 
Q 38.921875 48.1875 33.109375 48.1875 
Q 26.21875 48.1875 22.15625 43.53125 
Q 18.109375 38.875 18.109375 30.90625 
L 18.109375 0 
L 9.078125 0 
L 9.078125 54.6875 
L 18.109375 54.6875 
L 18.109375 46.1875 
Q 21.1875 51.21875 25.484375 53.609375 
Q 29.78125 56 35.6875 56 
Q 41.65625 56 45.828125 52.96875 
Q 50 49.953125 52 44.1875 
z
" id="DejaVuSans-109"/>
      </defs>
      <use xlink:href="#DejaVuSans-66"/>
      <use x="68.603516" xlink:href="#DejaVuSans-101"/>
      <use x="130.126953" xlink:href="#DejaVuSans-122"/>
      <use x="182.617188" xlink:href="#DejaVuSans-105"/>
      <use x="210.400391" xlink:href="#DejaVuSans-101"/>
      <use x="271.923828" xlink:href="#DejaVuSans-114"/>
      <use x="313.037109" xlink:href="#DejaVuSans-32"/>
      <use x="344.824219" xlink:href="#DejaVuSans-67"/>
      <use x="414.648438" xlink:href="#DejaVuSans-117"/>
      <use x="478.027344" xlink:href="#DejaVuSans-114"/>
      <use x="519.140625" xlink:href="#DejaVuSans-118"/>
      <use x="578.320312" xlink:href="#DejaVuSans-101"/>
      <use x="639.84375" xlink:href="#DejaVuSans-32"/>
      <use x="671.630859" xlink:href="#DejaVuSans-111"/>
      <use x="732.8125" xlink:href="#DejaVuSans-110"/>
      <use x="796.191406" xlink:href="#DejaVuSans-32"/>
      <use x="827.978516" xlink:href="#DejaVuSans-119"/>
      <use x="909.765625" xlink:href="#DejaVuSans-101"/>
      <use x="971.289062" xlink:href="#DejaVuSans-105"/>
      <use x="999.072266" xlink:href="#DejaVuSans-103"/>
      <use x="1062.548828" xlink:href="#DejaVuSans-104"/>
      <use x="1125.927734" xlink:href="#DejaVuSans-116"/>
      <use x="1165.136719" xlink:href="#DejaVuSans-32"/>
      <use x="1196.923828" xlink:href="#DejaVuSans-109"/>
      <use x="1294.335938" xlink:href="#DejaVuSans-97"/>
      <use x="1355.615234" xlink:href="#DejaVuSans-103"/>
      <use x="1419.091797" xlink:href="#DejaVuSans-110"/>
      <use x="1482.470703" xlink:href="#DejaVuSans-105"/>
      <use x="1510.253906" xlink:href="#DejaVuSans-116"/>
      <use x="1549.462891" xlink:href="#DejaVuSans-117"/>
      <use x="1612.841797" xlink:href="#DejaVuSans-100"/>
      <use x="1676.318359" xlink:href="#DejaVuSans-101"/>
      <use x="1737.841797" xlink:href="#DejaVuSans-115"/>
     </g>
    </g>
    <g id="line2d_25">
     <path d="M 63 252.21304 
L 83 252.21304 
" style="fill:none;stroke:#000000;stroke-linecap:square;stroke-opacity:0.5;stroke-width:1.5;"/>
    </g>
    <g id="line2d_26"/>
    <g id="text_17">
     <!-- Baseline -->
     <g transform="translate(91 255.71304)scale(0.1 -0.1)">
      <use xlink:href="#DejaVuSans-66"/>
      <use x="68.603516" xlink:href="#DejaVuSans-97"/>
      <use x="129.882812" xlink:href="#DejaVuSans-115"/>
      <use x="181.982422" xlink:href="#DejaVuSans-101"/>
      <use x="243.505859" xlink:href="#DejaVuSans-108"/>
      <use x="271.289062" xlink:href="#DejaVuSans-105"/>
      <use x="299.072266" xlink:href="#DejaVuSans-110"/>
      <use x="362.451172" xlink:href="#DejaVuSans-101"/>
     </g>
    </g>
   </g>
  </g>
  <g id="axes_2">
   <g id="patch_8">
    <path d="M 54 504 
L 388.8 504 
L 388.8 306.327273 
L 54 306.327273 
z
" style="fill:#ffffff;"/>
   </g>
   <g id="matplotlib.axis_3">
    <g id="xtick_6">
     <g id="line2d_27">
      <g>
       <use style="stroke:#000000;stroke-width:0.8;" x="69.218182" xlink:href="#mbe664d9135" y="504"/>
      </g>
     </g>
     <g id="text_18">
      <!-- 0.800 -->
      <g transform="translate(54.904119 518.598437)scale(0.1 -0.1)">
       <use xlink:href="#DejaVuSans-48"/>
       <use x="63.623047" xlink:href="#DejaVuSans-46"/>
       <use x="95.410156" xlink:href="#DejaVuSans-56"/>
       <use x="159.033203" xlink:href="#DejaVuSans-48"/>
       <use x="222.65625" xlink:href="#DejaVuSans-48"/>
      </g>
     </g>
    </g>
    <g id="xtick_7">
     <g id="line2d_28">
      <g>
       <use style="stroke:#000000;stroke-width:0.8;" x="107.263636" xlink:href="#mbe664d9135" y="504"/>
      </g>
     </g>
     <g id="text_19">
      <!-- 0.825 -->
      <g transform="translate(92.949574 518.598437)scale(0.1 -0.1)">
       <use xlink:href="#DejaVuSans-48"/>
       <use x="63.623047" xlink:href="#DejaVuSans-46"/>
       <use x="95.410156" xlink:href="#DejaVuSans-56"/>
       <use x="159.033203" xlink:href="#DejaVuSans-50"/>
       <use x="222.65625" xlink:href="#DejaVuSans-53"/>
      </g>
     </g>
    </g>
    <g id="xtick_8">
     <g id="line2d_29">
      <g>
       <use style="stroke:#000000;stroke-width:0.8;" x="145.309091" xlink:href="#mbe664d9135" y="504"/>
      </g>
     </g>
     <g id="text_20">
      <!-- 0.850 -->
      <g transform="translate(130.995028 518.598437)scale(0.1 -0.1)">
       <use xlink:href="#DejaVuSans-48"/>
       <use x="63.623047" xlink:href="#DejaVuSans-46"/>
       <use x="95.410156" xlink:href="#DejaVuSans-56"/>
       <use x="159.033203" xlink:href="#DejaVuSans-53"/>
       <use x="222.65625" xlink:href="#DejaVuSans-48"/>
      </g>
     </g>
    </g>
    <g id="xtick_9">
     <g id="line2d_30">
      <g>
       <use style="stroke:#000000;stroke-width:0.8;" x="183.354545" xlink:href="#mbe664d9135" y="504"/>
      </g>
     </g>
     <g id="text_21">
      <!-- 0.875 -->
      <g transform="translate(169.040483 518.598437)scale(0.1 -0.1)">
       <defs>
        <path d="M 8.203125 72.90625 
L 55.078125 72.90625 
L 55.078125 68.703125 
L 28.609375 0 
L 18.3125 0 
L 43.21875 64.59375 
L 8.203125 64.59375 
z
" id="DejaVuSans-55"/>
       </defs>
       <use xlink:href="#DejaVuSans-48"/>
       <use x="63.623047" xlink:href="#DejaVuSans-46"/>
       <use x="95.410156" xlink:href="#DejaVuSans-56"/>
       <use x="159.033203" xlink:href="#DejaVuSans-55"/>
       <use x="222.65625" xlink:href="#DejaVuSans-53"/>
      </g>
     </g>
    </g>
    <g id="xtick_10">
     <g id="line2d_31">
      <g>
       <use style="stroke:#000000;stroke-width:0.8;" x="221.4" xlink:href="#mbe664d9135" y="504"/>
      </g>
     </g>
     <g id="text_22">
      <!-- 0.900 -->
      <g transform="translate(207.085937 518.598437)scale(0.1 -0.1)">
       <defs>
        <path d="M 10.984375 1.515625 
L 10.984375 10.5 
Q 14.703125 8.734375 18.5 7.8125 
Q 22.3125 6.890625 25.984375 6.890625 
Q 35.75 6.890625 40.890625 13.453125 
Q 46.046875 20.015625 46.78125 33.40625 
Q 43.953125 29.203125 39.59375 26.953125 
Q 35.25 24.703125 29.984375 24.703125 
Q 19.046875 24.703125 12.671875 31.3125 
Q 6.296875 37.9375 6.296875 49.421875 
Q 6.296875 60.640625 12.9375 67.421875 
Q 19.578125 74.21875 30.609375 74.21875 
Q 43.265625 74.21875 49.921875 64.515625 
Q 56.59375 54.828125 56.59375 36.375 
Q 56.59375 19.140625 48.40625 8.859375 
Q 40.234375 -1.421875 26.421875 -1.421875 
Q 22.703125 -1.421875 18.890625 -0.6875 
Q 15.09375 0.046875 10.984375 1.515625 
z
M 30.609375 32.421875 
Q 37.25 32.421875 41.125 36.953125 
Q 45.015625 41.5 45.015625 49.421875 
Q 45.015625 57.28125 41.125 61.84375 
Q 37.25 66.40625 30.609375 66.40625 
Q 23.96875 66.40625 20.09375 61.84375 
Q 16.21875 57.28125 16.21875 49.421875 
Q 16.21875 41.5 20.09375 36.953125 
Q 23.96875 32.421875 30.609375 32.421875 
z
" id="DejaVuSans-57"/>
       </defs>
       <use xlink:href="#DejaVuSans-48"/>
       <use x="63.623047" xlink:href="#DejaVuSans-46"/>
       <use x="95.410156" xlink:href="#DejaVuSans-57"/>
       <use x="159.033203" xlink:href="#DejaVuSans-48"/>
       <use x="222.65625" xlink:href="#DejaVuSans-48"/>
      </g>
     </g>
    </g>
    <g id="xtick_11">
     <g id="line2d_32">
      <g>
       <use style="stroke:#000000;stroke-width:0.8;" x="259.445455" xlink:href="#mbe664d9135" y="504"/>
      </g>
     </g>
     <g id="text_23">
      <!-- 0.925 -->
      <g transform="translate(245.131392 518.598437)scale(0.1 -0.1)">
       <use xlink:href="#DejaVuSans-48"/>
       <use x="63.623047" xlink:href="#DejaVuSans-46"/>
       <use x="95.410156" xlink:href="#DejaVuSans-57"/>
       <use x="159.033203" xlink:href="#DejaVuSans-50"/>
       <use x="222.65625" xlink:href="#DejaVuSans-53"/>
      </g>
     </g>
    </g>
    <g id="xtick_12">
     <g id="line2d_33">
      <g>
       <use style="stroke:#000000;stroke-width:0.8;" x="297.490909" xlink:href="#mbe664d9135" y="504"/>
      </g>
     </g>
     <g id="text_24">
      <!-- 0.950 -->
      <g transform="translate(283.176847 518.598437)scale(0.1 -0.1)">
       <use xlink:href="#DejaVuSans-48"/>
       <use x="63.623047" xlink:href="#DejaVuSans-46"/>
       <use x="95.410156" xlink:href="#DejaVuSans-57"/>
       <use x="159.033203" xlink:href="#DejaVuSans-53"/>
       <use x="222.65625" xlink:href="#DejaVuSans-48"/>
      </g>
     </g>
    </g>
    <g id="xtick_13">
     <g id="line2d_34">
      <g>
       <use style="stroke:#000000;stroke-width:0.8;" x="335.536364" xlink:href="#mbe664d9135" y="504"/>
      </g>
     </g>
     <g id="text_25">
      <!-- 0.975 -->
      <g transform="translate(321.222301 518.598437)scale(0.1 -0.1)">
       <use xlink:href="#DejaVuSans-48"/>
       <use x="63.623047" xlink:href="#DejaVuSans-46"/>
       <use x="95.410156" xlink:href="#DejaVuSans-57"/>
       <use x="159.033203" xlink:href="#DejaVuSans-55"/>
       <use x="222.65625" xlink:href="#DejaVuSans-53"/>
      </g>
     </g>
    </g>
    <g id="xtick_14">
     <g id="line2d_35">
      <g>
       <use style="stroke:#000000;stroke-width:0.8;" x="373.581818" xlink:href="#mbe664d9135" y="504"/>
      </g>
     </g>
     <g id="text_26">
      <!-- 1.000 -->
      <g transform="translate(359.267756 518.598437)scale(0.1 -0.1)">
       <use xlink:href="#DejaVuSans-49"/>
       <use x="63.623047" xlink:href="#DejaVuSans-46"/>
       <use x="95.410156" xlink:href="#DejaVuSans-48"/>
       <use x="159.033203" xlink:href="#DejaVuSans-48"/>
       <use x="222.65625" xlink:href="#DejaVuSans-48"/>
      </g>
     </g>
    </g>
   </g>
   <g id="matplotlib.axis_4">
    <g id="ytick_7">
     <g id="line2d_36">
      <g>
       <use style="stroke:#000000;stroke-width:0.8;" x="54" xlink:href="#m58b12d0228" y="494.173343"/>
      </g>
     </g>
     <g id="text_27">
      <!-- 0.1 -->
      <g transform="translate(31.096875 497.972562)scale(0.1 -0.1)">
       <use xlink:href="#DejaVuSans-48"/>
       <use x="63.623047" xlink:href="#DejaVuSans-46"/>
       <use x="95.410156" xlink:href="#DejaVuSans-49"/>
      </g>
     </g>
    </g>
    <g id="ytick_8">
     <g id="line2d_37">
      <g>
       <use style="stroke:#000000;stroke-width:0.8;" x="54" xlink:href="#m58b12d0228" y="458.267945"/>
      </g>
     </g>
     <g id="text_28">
      <!-- 0.2 -->
      <g transform="translate(31.096875 462.067164)scale(0.1 -0.1)">
       <use xlink:href="#DejaVuSans-48"/>
       <use x="63.623047" xlink:href="#DejaVuSans-46"/>
       <use x="95.410156" xlink:href="#DejaVuSans-50"/>
      </g>
     </g>
    </g>
    <g id="ytick_9">
     <g id="line2d_38">
      <g>
       <use style="stroke:#000000;stroke-width:0.8;" x="54" xlink:href="#m58b12d0228" y="422.362547"/>
      </g>
     </g>
     <g id="text_29">
      <!-- 0.3 -->
      <g transform="translate(31.096875 426.161765)scale(0.1 -0.1)">
       <use xlink:href="#DejaVuSans-48"/>
       <use x="63.623047" xlink:href="#DejaVuSans-46"/>
       <use x="95.410156" xlink:href="#DejaVuSans-51"/>
      </g>
     </g>
    </g>
    <g id="ytick_10">
     <g id="line2d_39">
      <g>
       <use style="stroke:#000000;stroke-width:0.8;" x="54" xlink:href="#m58b12d0228" y="386.457148"/>
      </g>
     </g>
     <g id="text_30">
      <!-- 0.4 -->
      <g transform="translate(31.096875 390.256367)scale(0.1 -0.1)">
       <use xlink:href="#DejaVuSans-48"/>
       <use x="63.623047" xlink:href="#DejaVuSans-46"/>
       <use x="95.410156" xlink:href="#DejaVuSans-52"/>
      </g>
     </g>
    </g>
    <g id="ytick_11">
     <g id="line2d_40">
      <g>
       <use style="stroke:#000000;stroke-width:0.8;" x="54" xlink:href="#m58b12d0228" y="350.55175"/>
      </g>
     </g>
     <g id="text_31">
      <!-- 0.5 -->
      <g transform="translate(31.096875 354.350969)scale(0.1 -0.1)">
       <use xlink:href="#DejaVuSans-48"/>
       <use x="63.623047" xlink:href="#DejaVuSans-46"/>
       <use x="95.410156" xlink:href="#DejaVuSans-53"/>
      </g>
     </g>
    </g>
    <g id="ytick_12">
     <g id="line2d_41">
      <g>
       <use style="stroke:#000000;stroke-width:0.8;" x="54" xlink:href="#m58b12d0228" y="314.646352"/>
      </g>
     </g>
     <g id="text_32">
      <!-- 0.6 -->
      <g transform="translate(31.096875 318.44557)scale(0.1 -0.1)">
       <use xlink:href="#DejaVuSans-48"/>
       <use x="63.623047" xlink:href="#DejaVuSans-46"/>
       <use x="95.410156" xlink:href="#DejaVuSans-54"/>
      </g>
     </g>
    </g>
   </g>
   <g id="line2d_42">
    <path clip-path="url(#pb044791e3a)" d="M 100.122827 321.624061 
L 125.083139 325.305767 
L 169.358854 333.405511 
L 207.326998 339.822216 
L 237.441357 349.499834 
L 251.062766 355.776264 
L 274.697751 371.940708 
L 276.857542 372.677051 
L 280.072686 381.513139 
L 287.901928 387.509062 
L 294.602189 403.182614 
L 299.95258 413.526455 
L 303.85493 421.661265 
L 307.04553 459.95101 
L 310.628819 468.716977 
L 314.113937 470.505236 
L 317.427252 468.962423 
L 320.59331 473.345406 
L 323.14579 477.588136 
L 325.919158 480.077667 
L 328.398009 479.481583 
L 330.435085 486.354102 
L 333.208453 494.664237 
L 335.245528 494.734364 
L 337.356233 494.488918 
L 345.504535 494.488918 
L 351.812107 494.488918 
" style="fill:none;stroke:#ff0000;stroke-linecap:square;stroke-width:1.5;"/>
    <g clip-path="url(#pb044791e3a)">
     <use style="fill:#ff0000;stroke:#ff0000;" x="100.122827" xlink:href="#md379834403" y="321.624061"/>
     <use style="fill:#ff0000;stroke:#ff0000;" x="125.083139" xlink:href="#md379834403" y="325.305767"/>
     <use style="fill:#ff0000;stroke:#ff0000;" x="169.358854" xlink:href="#md379834403" y="333.405511"/>
     <use style="fill:#ff0000;stroke:#ff0000;" x="207.326998" xlink:href="#md379834403" y="339.822216"/>
     <use style="fill:#ff0000;stroke:#ff0000;" x="237.441357" xlink:href="#md379834403" y="349.499834"/>
     <use style="fill:#ff0000;stroke:#ff0000;" x="251.062766" xlink:href="#md379834403" y="355.776264"/>
     <use style="fill:#ff0000;stroke:#ff0000;" x="274.697751" xlink:href="#md379834403" y="371.940708"/>
     <use style="fill:#ff0000;stroke:#ff0000;" x="276.857542" xlink:href="#md379834403" y="372.677051"/>
     <use style="fill:#ff0000;stroke:#ff0000;" x="280.072686" xlink:href="#md379834403" y="381.513139"/>
     <use style="fill:#ff0000;stroke:#ff0000;" x="287.901928" xlink:href="#md379834403" y="387.509062"/>
     <use style="fill:#ff0000;stroke:#ff0000;" x="294.602189" xlink:href="#md379834403" y="403.182614"/>
     <use style="fill:#ff0000;stroke:#ff0000;" x="299.95258" xlink:href="#md379834403" y="413.526455"/>
     <use style="fill:#ff0000;stroke:#ff0000;" x="303.85493" xlink:href="#md379834403" y="421.661265"/>
     <use style="fill:#ff0000;stroke:#ff0000;" x="307.04553" xlink:href="#md379834403" y="459.95101"/>
     <use style="fill:#ff0000;stroke:#ff0000;" x="310.628819" xlink:href="#md379834403" y="468.716977"/>
     <use style="fill:#ff0000;stroke:#ff0000;" x="314.113937" xlink:href="#md379834403" y="470.505236"/>
     <use style="fill:#ff0000;stroke:#ff0000;" x="317.427252" xlink:href="#md379834403" y="468.962423"/>
     <use style="fill:#ff0000;stroke:#ff0000;" x="320.59331" xlink:href="#md379834403" y="473.345406"/>
     <use style="fill:#ff0000;stroke:#ff0000;" x="323.14579" xlink:href="#md379834403" y="477.588136"/>
     <use style="fill:#ff0000;stroke:#ff0000;" x="325.919158" xlink:href="#md379834403" y="480.077667"/>
     <use style="fill:#ff0000;stroke:#ff0000;" x="328.398009" xlink:href="#md379834403" y="479.481583"/>
     <use style="fill:#ff0000;stroke:#ff0000;" x="330.435085" xlink:href="#md379834403" y="486.354102"/>
     <use style="fill:#ff0000;stroke:#ff0000;" x="333.208453" xlink:href="#md379834403" y="494.664237"/>
     <use style="fill:#ff0000;stroke:#ff0000;" x="335.245528" xlink:href="#md379834403" y="494.734364"/>
     <use style="fill:#ff0000;stroke:#ff0000;" x="337.356233" xlink:href="#md379834403" y="494.488918"/>
     <use style="fill:#ff0000;stroke:#ff0000;" x="345.504535" xlink:href="#md379834403" y="494.488918"/>
     <use style="fill:#ff0000;stroke:#ff0000;" x="351.812107" xlink:href="#md379834403" y="494.488918"/>
    </g>
   </g>
   <g id="line2d_43">
    <path clip-path="url(#pb044791e3a)" d="M 94.453376 320.782519 
L 126.653896 324.744753 
L 156.964599 327.269335 
L 183.741099 328.671889 
L 209.069557 339.296258 
L 213.217337 336.80671 
L 219.598538 338.700168 
L 248.633001 349.885528 
L 265.371381 366.15517 
L 272.194357 370.678407 
L 285.521249 379.093734 
L 292.466941 382.319614 
L 312.78861 442.208692 
L 328.152578 482.462011 
L 334.14109 495.014876 
L 343.614718 495.014876 
L 344.498269 495.014876 
L 345.602708 495.014876 
L 348.228817 495.014876 
L 350.413151 495.014876 
L 351.738478 495.014876 
L 353.186519 495.014876 
L 354.241872 495.014876 
L 355.444482 495.014876 
L 356.524378 495.014876 
L 357.65336 495.014876 
L 358.193307 495.014876 
L 358.905057 495.014876 
L 359.616806 495.014876 
L 360.377641 495.014876 
L 360.991218 495.014876 
L 361.432994 495.014876 
L 362.071114 495.014876 
L 362.537432 495.014876 
L 364.304534 495.014876 
L 365.335344 495.014876 
L 366.955187 495.014876 
L 367.691479 495.014876 
" style="fill:none;stroke:#008000;stroke-linecap:square;stroke-width:1.5;"/>
    <g clip-path="url(#pb044791e3a)">
     <use style="fill:#008000;stroke:#008000;" x="94.453376" xlink:href="#m817dc589ed" y="320.782519"/>
     <use style="fill:#008000;stroke:#008000;" x="126.653896" xlink:href="#m817dc589ed" y="324.744753"/>
     <use style="fill:#008000;stroke:#008000;" x="156.964599" xlink:href="#m817dc589ed" y="327.269335"/>
     <use style="fill:#008000;stroke:#008000;" x="183.741099" xlink:href="#m817dc589ed" y="328.671889"/>
     <use style="fill:#008000;stroke:#008000;" x="209.069557" xlink:href="#m817dc589ed" y="339.296258"/>
     <use style="fill:#008000;stroke:#008000;" x="213.217337" xlink:href="#m817dc589ed" y="336.80671"/>
     <use style="fill:#008000;stroke:#008000;" x="219.598538" xlink:href="#m817dc589ed" y="338.700168"/>
     <use style="fill:#008000;stroke:#008000;" x="248.633001" xlink:href="#m817dc589ed" y="349.885528"/>
     <use style="fill:#008000;stroke:#008000;" x="265.371381" xlink:href="#m817dc589ed" y="366.15517"/>
     <use style="fill:#008000;stroke:#008000;" x="272.194357" xlink:href="#m817dc589ed" y="370.678407"/>
     <use style="fill:#008000;stroke:#008000;" x="285.521249" xlink:href="#m817dc589ed" y="379.093734"/>
     <use style="fill:#008000;stroke:#008000;" x="292.466941" xlink:href="#m817dc589ed" y="382.319614"/>
     <use style="fill:#008000;stroke:#008000;" x="312.78861" xlink:href="#m817dc589ed" y="442.208692"/>
     <use style="fill:#008000;stroke:#008000;" x="328.152578" xlink:href="#m817dc589ed" y="482.462011"/>
     <use style="fill:#008000;stroke:#008000;" x="334.14109" xlink:href="#m817dc589ed" y="495.014876"/>
     <use style="fill:#008000;stroke:#008000;" x="343.614718" xlink:href="#m817dc589ed" y="495.014876"/>
     <use style="fill:#008000;stroke:#008000;" x="344.498269" xlink:href="#m817dc589ed" y="495.014876"/>
     <use style="fill:#008000;stroke:#008000;" x="345.602708" xlink:href="#m817dc589ed" y="495.014876"/>
     <use style="fill:#008000;stroke:#008000;" x="348.228817" xlink:href="#m817dc589ed" y="495.014876"/>
     <use style="fill:#008000;stroke:#008000;" x="350.413151" xlink:href="#m817dc589ed" y="495.014876"/>
     <use style="fill:#008000;stroke:#008000;" x="351.738478" xlink:href="#m817dc589ed" y="495.014876"/>
     <use style="fill:#008000;stroke:#008000;" x="353.186519" xlink:href="#m817dc589ed" y="495.014876"/>
     <use style="fill:#008000;stroke:#008000;" x="354.241872" xlink:href="#m817dc589ed" y="495.014876"/>
     <use style="fill:#008000;stroke:#008000;" x="355.444482" xlink:href="#m817dc589ed" y="495.014876"/>
     <use style="fill:#008000;stroke:#008000;" x="356.524378" xlink:href="#m817dc589ed" y="495.014876"/>
     <use style="fill:#008000;stroke:#008000;" x="357.65336" xlink:href="#m817dc589ed" y="495.014876"/>
     <use style="fill:#008000;stroke:#008000;" x="358.193307" xlink:href="#m817dc589ed" y="495.014876"/>
     <use style="fill:#008000;stroke:#008000;" x="358.905057" xlink:href="#m817dc589ed" y="495.014876"/>
     <use style="fill:#008000;stroke:#008000;" x="359.616806" xlink:href="#m817dc589ed" y="495.014876"/>
     <use style="fill:#008000;stroke:#008000;" x="360.377641" xlink:href="#m817dc589ed" y="495.014876"/>
     <use style="fill:#008000;stroke:#008000;" x="360.991218" xlink:href="#m817dc589ed" y="495.014876"/>
     <use style="fill:#008000;stroke:#008000;" x="361.432994" xlink:href="#m817dc589ed" y="495.014876"/>
     <use style="fill:#008000;stroke:#008000;" x="362.071114" xlink:href="#m817dc589ed" y="495.014876"/>
     <use style="fill:#008000;stroke:#008000;" x="362.537432" xlink:href="#m817dc589ed" y="495.014876"/>
     <use style="fill:#008000;stroke:#008000;" x="364.304534" xlink:href="#m817dc589ed" y="495.014876"/>
     <use style="fill:#008000;stroke:#008000;" x="365.335344" xlink:href="#m817dc589ed" y="495.014876"/>
     <use style="fill:#008000;stroke:#008000;" x="366.955187" xlink:href="#m817dc589ed" y="495.014876"/>
     <use style="fill:#008000;stroke:#008000;" x="367.691479" xlink:href="#m817dc589ed" y="495.014876"/>
    </g>
   </g>
   <g id="line2d_44">
    <path clip-path="url(#pb044791e3a)" d="M 122.162236 315.873598 
L 145.773245 322.675876 
L 171.592413 321.729409 
L 213.290231 327.409644 
L 254.376278 335.929995 
L 283.28778 351.112951 
L 289.152867 358.125635 
L 296.049747 371.344566 
L 309.819158 383.266235 
L 313.35282 385.229902 
L 325.011469 408.792819 
L 327.342895 430.532461 
L 337.281889 444.032173 
L 361.825773 493.436924 
" style="fill:none;stroke:#0000ff;stroke-linecap:square;stroke-width:1.5;"/>
    <g clip-path="url(#pb044791e3a)">
     <use style="fill:#0000ff;stroke:#0000ff;" x="122.162236" xlink:href="#me4a069a20e" y="315.873598"/>
     <use style="fill:#0000ff;stroke:#0000ff;" x="145.773245" xlink:href="#me4a069a20e" y="322.675876"/>
     <use style="fill:#0000ff;stroke:#0000ff;" x="171.592413" xlink:href="#me4a069a20e" y="321.729409"/>
     <use style="fill:#0000ff;stroke:#0000ff;" x="213.290231" xlink:href="#me4a069a20e" y="327.409644"/>
     <use style="fill:#0000ff;stroke:#0000ff;" x="254.376278" xlink:href="#me4a069a20e" y="335.929995"/>
     <use style="fill:#0000ff;stroke:#0000ff;" x="283.28778" xlink:href="#me4a069a20e" y="351.112951"/>
     <use style="fill:#0000ff;stroke:#0000ff;" x="289.152867" xlink:href="#me4a069a20e" y="358.125635"/>
     <use style="fill:#0000ff;stroke:#0000ff;" x="296.049747" xlink:href="#me4a069a20e" y="371.344566"/>
     <use style="fill:#0000ff;stroke:#0000ff;" x="309.819158" xlink:href="#me4a069a20e" y="383.266235"/>
     <use style="fill:#0000ff;stroke:#0000ff;" x="313.35282" xlink:href="#me4a069a20e" y="385.229902"/>
     <use style="fill:#0000ff;stroke:#0000ff;" x="325.011469" xlink:href="#me4a069a20e" y="408.792819"/>
     <use style="fill:#0000ff;stroke:#0000ff;" x="327.342895" xlink:href="#me4a069a20e" y="430.532461"/>
     <use style="fill:#0000ff;stroke:#0000ff;" x="337.281889" xlink:href="#me4a069a20e" y="444.032173"/>
     <use style="fill:#0000ff;stroke:#0000ff;" x="361.825773" xlink:href="#me4a069a20e" y="493.436924"/>
    </g>
   </g>
   <g id="line2d_45">
    <path clip-path="url(#pb044791e3a)" d="M 152.86644 315.312397 
L 186.465142 316.785236 
L 245.761265 320.8526 
L 260.217016 322.921469 
L 275.213013 336.28079 
L 278.329696 337.61324 
L 285.12918 340.278138 
L 300.443236 349.184113 
L 308.566702 372.571813 
L 311.684907 383.161033 
L 315.414884 384.844278 
L 320.61798 385.931134 
L 325.894124 404.059052 
L 326.090438 404.830659 
L 328.472084 442.980144 
L 331.661815 443.751392 
L 333.650831 456.549872 
L 338.706311 459.144396 
L 349.873413 479.411557 
L 356.205698 493.436924 
" style="fill:none;stroke:#ffa500;stroke-linecap:square;stroke-width:1.5;"/>
    <g clip-path="url(#pb044791e3a)">
     <use style="fill:#ffa500;stroke:#ffa500;" x="152.86644" xlink:href="#m22adc65eb9" y="315.312397"/>
     <use style="fill:#ffa500;stroke:#ffa500;" x="186.465142" xlink:href="#m22adc65eb9" y="316.785236"/>
     <use style="fill:#ffa500;stroke:#ffa500;" x="245.761265" xlink:href="#m22adc65eb9" y="320.8526"/>
     <use style="fill:#ffa500;stroke:#ffa500;" x="260.217016" xlink:href="#m22adc65eb9" y="322.921469"/>
     <use style="fill:#ffa500;stroke:#ffa500;" x="275.213013" xlink:href="#m22adc65eb9" y="336.28079"/>
     <use style="fill:#ffa500;stroke:#ffa500;" x="278.329696" xlink:href="#m22adc65eb9" y="337.61324"/>
     <use style="fill:#ffa500;stroke:#ffa500;" x="285.12918" xlink:href="#m22adc65eb9" y="340.278138"/>
     <use style="fill:#ffa500;stroke:#ffa500;" x="300.443236" xlink:href="#m22adc65eb9" y="349.184113"/>
     <use style="fill:#ffa500;stroke:#ffa500;" x="308.566702" xlink:href="#m22adc65eb9" y="372.571813"/>
     <use style="fill:#ffa500;stroke:#ffa500;" x="311.684907" xlink:href="#m22adc65eb9" y="383.161033"/>
     <use style="fill:#ffa500;stroke:#ffa500;" x="315.414884" xlink:href="#m22adc65eb9" y="384.844278"/>
     <use style="fill:#ffa500;stroke:#ffa500;" x="320.61798" xlink:href="#m22adc65eb9" y="385.931134"/>
     <use style="fill:#ffa500;stroke:#ffa500;" x="325.894124" xlink:href="#m22adc65eb9" y="404.059052"/>
     <use style="fill:#ffa500;stroke:#ffa500;" x="326.090438" xlink:href="#m22adc65eb9" y="404.830659"/>
     <use style="fill:#ffa500;stroke:#ffa500;" x="328.472084" xlink:href="#m22adc65eb9" y="442.980144"/>
     <use style="fill:#ffa500;stroke:#ffa500;" x="331.661815" xlink:href="#m22adc65eb9" y="443.751392"/>
     <use style="fill:#ffa500;stroke:#ffa500;" x="333.650831" xlink:href="#m22adc65eb9" y="456.549872"/>
     <use style="fill:#ffa500;stroke:#ffa500;" x="338.706311" xlink:href="#m22adc65eb9" y="459.144396"/>
     <use style="fill:#ffa500;stroke:#ffa500;" x="349.873413" xlink:href="#m22adc65eb9" y="479.411557"/>
     <use style="fill:#ffa500;stroke:#ffa500;" x="356.205698" xlink:href="#m22adc65eb9" y="493.436924"/>
    </g>
   </g>
   <g id="line2d_46">
    <path clip-path="url(#pb044791e3a)" d="M 69.218182 328.426459 
L 103.036364 328.426459 
L 136.854545 328.426459 
L 170.672727 328.426459 
L 204.490909 328.426459 
L 238.309091 328.426459 
L 272.127273 328.426459 
L 305.945455 328.426459 
L 339.763636 328.426459 
L 373.581818 328.426459 
" style="fill:none;stroke:#000000;stroke-linecap:square;stroke-opacity:0.5;stroke-width:1.5;"/>
   </g>
   <g id="patch_9">
    <path d="M 54 504 
L 54 306.327273 
" style="fill:none;stroke:#000000;stroke-linecap:square;stroke-linejoin:miter;stroke-width:0.8;"/>
   </g>
   <g id="patch_10">
    <path d="M 388.8 504 
L 388.8 306.327273 
" style="fill:none;stroke:#000000;stroke-linecap:square;stroke-linejoin:miter;stroke-width:0.8;"/>
   </g>
   <g id="patch_11">
    <path d="M 54 504 
L 388.8 504 
" style="fill:none;stroke:#000000;stroke-linecap:square;stroke-linejoin:miter;stroke-width:0.8;"/>
   </g>
   <g id="patch_12">
    <path d="M 54 306.327273 
L 388.8 306.327273 
" style="fill:none;stroke:#000000;stroke-linecap:square;stroke-linejoin:miter;stroke-width:0.8;"/>
   </g>
   <g id="text_33">
    <!-- b. Zoomed In -->
    <g transform="translate(181.5 300.327273)scale(0.12 -0.12)">
     <defs>
      <path d="M 5.609375 72.90625 
L 62.890625 72.90625 
L 62.890625 65.375 
L 16.796875 8.296875 
L 64.015625 8.296875 
L 64.015625 0 
L 4.5 0 
L 4.5 7.515625 
L 50.59375 64.59375 
L 5.609375 64.59375 
z
" id="DejaVuSans-90"/>
     </defs>
     <use xlink:href="#DejaVuSans-98"/>
     <use x="63.476562" xlink:href="#DejaVuSans-46"/>
     <use x="95.263672" xlink:href="#DejaVuSans-32"/>
     <use x="127.050781" xlink:href="#DejaVuSans-90"/>
     <use x="195.556641" xlink:href="#DejaVuSans-111"/>
     <use x="256.738281" xlink:href="#DejaVuSans-111"/>
     <use x="317.919922" xlink:href="#DejaVuSans-109"/>
     <use x="415.332031" xlink:href="#DejaVuSans-101"/>
     <use x="476.855469" xlink:href="#DejaVuSans-100"/>
     <use x="540.332031" xlink:href="#DejaVuSans-32"/>
     <use x="572.119141" xlink:href="#DejaVuSans-73"/>
     <use x="601.611328" xlink:href="#DejaVuSans-110"/>
    </g>
   </g>
   <g id="legend_2">
    <g id="patch_13">
     <path d="M 61 499 
L 271.99375 499 
Q 273.99375 499 273.99375 497 
L 273.99375 424.609375 
Q 273.99375 422.609375 271.99375 422.609375 
L 61 422.609375 
Q 59 422.609375 59 424.609375 
L 59 497 
Q 59 499 61 499 
z
" style="fill:#ffffff;opacity:0.8;stroke:#cccccc;stroke-linejoin:miter;"/>
    </g>
    <g id="line2d_47">
     <path d="M 63 430.707812 
L 83 430.707812 
" style="fill:none;stroke:#ff0000;stroke-linecap:square;stroke-width:1.5;"/>
    </g>
    <g id="line2d_48">
     <g>
      <use style="fill:#ff0000;stroke:#ff0000;" x="73" xlink:href="#md379834403" y="430.707812"/>
     </g>
    </g>
    <g id="text_34">
     <!-- Standard Pruning -->
     <g transform="translate(91 434.207812)scale(0.1 -0.1)">
      <use xlink:href="#DejaVuSans-83"/>
      <use x="63.476562" xlink:href="#DejaVuSans-116"/>
      <use x="102.685547" xlink:href="#DejaVuSans-97"/>
      <use x="163.964844" xlink:href="#DejaVuSans-110"/>
      <use x="227.34375" xlink:href="#DejaVuSans-100"/>
      <use x="290.820312" xlink:href="#DejaVuSans-97"/>
      <use x="352.099609" xlink:href="#DejaVuSans-114"/>
      <use x="391.462891" xlink:href="#DejaVuSans-100"/>
      <use x="454.939453" xlink:href="#DejaVuSans-32"/>
      <use x="486.726562" xlink:href="#DejaVuSans-80"/>
      <use x="545.279297" xlink:href="#DejaVuSans-114"/>
      <use x="586.392578" xlink:href="#DejaVuSans-117"/>
      <use x="649.771484" xlink:href="#DejaVuSans-110"/>
      <use x="713.150391" xlink:href="#DejaVuSans-105"/>
      <use x="740.933594" xlink:href="#DejaVuSans-110"/>
      <use x="804.3125" xlink:href="#DejaVuSans-103"/>
     </g>
    </g>
    <g id="line2d_49">
     <path d="M 63 445.385937 
L 83 445.385937 
" style="fill:none;stroke:#008000;stroke-linecap:square;stroke-width:1.5;"/>
    </g>
    <g id="line2d_50">
     <g>
      <use style="fill:#008000;stroke:#008000;" x="73" xlink:href="#m817dc589ed" y="445.385937"/>
     </g>
    </g>
    <g id="text_35">
     <!-- Pruning based on weight evolution -->
     <g transform="translate(91 448.885937)scale(0.1 -0.1)">
      <use xlink:href="#DejaVuSans-80"/>
      <use x="58.552734" xlink:href="#DejaVuSans-114"/>
      <use x="99.666016" xlink:href="#DejaVuSans-117"/>
      <use x="163.044922" xlink:href="#DejaVuSans-110"/>
      <use x="226.423828" xlink:href="#DejaVuSans-105"/>
      <use x="254.207031" xlink:href="#DejaVuSans-110"/>
      <use x="317.585938" xlink:href="#DejaVuSans-103"/>
      <use x="381.0625" xlink:href="#DejaVuSans-32"/>
      <use x="412.849609" xlink:href="#DejaVuSans-98"/>
      <use x="476.326172" xlink:href="#DejaVuSans-97"/>
      <use x="537.605469" xlink:href="#DejaVuSans-115"/>
      <use x="589.705078" xlink:href="#DejaVuSans-101"/>
      <use x="651.228516" xlink:href="#DejaVuSans-100"/>
      <use x="714.705078" xlink:href="#DejaVuSans-32"/>
      <use x="746.492188" xlink:href="#DejaVuSans-111"/>
      <use x="807.673828" xlink:href="#DejaVuSans-110"/>
      <use x="871.052734" xlink:href="#DejaVuSans-32"/>
      <use x="902.839844" xlink:href="#DejaVuSans-119"/>
      <use x="984.626953" xlink:href="#DejaVuSans-101"/>
      <use x="1046.150391" xlink:href="#DejaVuSans-105"/>
      <use x="1073.933594" xlink:href="#DejaVuSans-103"/>
      <use x="1137.410156" xlink:href="#DejaVuSans-104"/>
      <use x="1200.789062" xlink:href="#DejaVuSans-116"/>
      <use x="1239.998047" xlink:href="#DejaVuSans-32"/>
      <use x="1271.785156" xlink:href="#DejaVuSans-101"/>
      <use x="1333.308594" xlink:href="#DejaVuSans-118"/>
      <use x="1392.488281" xlink:href="#DejaVuSans-111"/>
      <use x="1453.669922" xlink:href="#DejaVuSans-108"/>
      <use x="1481.453125" xlink:href="#DejaVuSans-117"/>
      <use x="1544.832031" xlink:href="#DejaVuSans-116"/>
      <use x="1584.041016" xlink:href="#DejaVuSans-105"/>
      <use x="1611.824219" xlink:href="#DejaVuSans-111"/>
      <use x="1673.005859" xlink:href="#DejaVuSans-110"/>
     </g>
    </g>
    <g id="line2d_51">
     <path d="M 63 460.064062 
L 83 460.064062 
" style="fill:none;stroke:#0000ff;stroke-linecap:square;stroke-width:1.5;"/>
    </g>
    <g id="line2d_52">
     <g>
      <use style="fill:#0000ff;stroke:#0000ff;" x="73" xlink:href="#me4a069a20e" y="460.064062"/>
     </g>
    </g>
    <g id="text_36">
     <!-- Bezier Curve on weight evolution -->
     <g transform="translate(91 463.564062)scale(0.1 -0.1)">
      <use xlink:href="#DejaVuSans-66"/>
      <use x="68.603516" xlink:href="#DejaVuSans-101"/>
      <use x="130.126953" xlink:href="#DejaVuSans-122"/>
      <use x="182.617188" xlink:href="#DejaVuSans-105"/>
      <use x="210.400391" xlink:href="#DejaVuSans-101"/>
      <use x="271.923828" xlink:href="#DejaVuSans-114"/>
      <use x="313.037109" xlink:href="#DejaVuSans-32"/>
      <use x="344.824219" xlink:href="#DejaVuSans-67"/>
      <use x="414.648438" xlink:href="#DejaVuSans-117"/>
      <use x="478.027344" xlink:href="#DejaVuSans-114"/>
      <use x="519.140625" xlink:href="#DejaVuSans-118"/>
      <use x="578.320312" xlink:href="#DejaVuSans-101"/>
      <use x="639.84375" xlink:href="#DejaVuSans-32"/>
      <use x="671.630859" xlink:href="#DejaVuSans-111"/>
      <use x="732.8125" xlink:href="#DejaVuSans-110"/>
      <use x="796.191406" xlink:href="#DejaVuSans-32"/>
      <use x="827.978516" xlink:href="#DejaVuSans-119"/>
      <use x="909.765625" xlink:href="#DejaVuSans-101"/>
      <use x="971.289062" xlink:href="#DejaVuSans-105"/>
      <use x="999.072266" xlink:href="#DejaVuSans-103"/>
      <use x="1062.548828" xlink:href="#DejaVuSans-104"/>
      <use x="1125.927734" xlink:href="#DejaVuSans-116"/>
      <use x="1165.136719" xlink:href="#DejaVuSans-32"/>
      <use x="1196.923828" xlink:href="#DejaVuSans-101"/>
      <use x="1258.447266" xlink:href="#DejaVuSans-118"/>
      <use x="1317.626953" xlink:href="#DejaVuSans-111"/>
      <use x="1378.808594" xlink:href="#DejaVuSans-108"/>
      <use x="1406.591797" xlink:href="#DejaVuSans-117"/>
      <use x="1469.970703" xlink:href="#DejaVuSans-116"/>
      <use x="1509.179688" xlink:href="#DejaVuSans-105"/>
      <use x="1536.962891" xlink:href="#DejaVuSans-111"/>
      <use x="1598.144531" xlink:href="#DejaVuSans-110"/>
     </g>
    </g>
    <g id="line2d_53">
     <path d="M 63 474.742187 
L 83 474.742187 
" style="fill:none;stroke:#ffa500;stroke-linecap:square;stroke-width:1.5;"/>
    </g>
    <g id="line2d_54">
     <g>
      <use style="fill:#ffa500;stroke:#ffa500;" x="73" xlink:href="#m22adc65eb9" y="474.742187"/>
     </g>
    </g>
    <g id="text_37">
     <!-- Bezier Curve on weight magnitudes -->
     <g transform="translate(91 478.242187)scale(0.1 -0.1)">
      <use xlink:href="#DejaVuSans-66"/>
      <use x="68.603516" xlink:href="#DejaVuSans-101"/>
      <use x="130.126953" xlink:href="#DejaVuSans-122"/>
      <use x="182.617188" xlink:href="#DejaVuSans-105"/>
      <use x="210.400391" xlink:href="#DejaVuSans-101"/>
      <use x="271.923828" xlink:href="#DejaVuSans-114"/>
      <use x="313.037109" xlink:href="#DejaVuSans-32"/>
      <use x="344.824219" xlink:href="#DejaVuSans-67"/>
      <use x="414.648438" xlink:href="#DejaVuSans-117"/>
      <use x="478.027344" xlink:href="#DejaVuSans-114"/>
      <use x="519.140625" xlink:href="#DejaVuSans-118"/>
      <use x="578.320312" xlink:href="#DejaVuSans-101"/>
      <use x="639.84375" xlink:href="#DejaVuSans-32"/>
      <use x="671.630859" xlink:href="#DejaVuSans-111"/>
      <use x="732.8125" xlink:href="#DejaVuSans-110"/>
      <use x="796.191406" xlink:href="#DejaVuSans-32"/>
      <use x="827.978516" xlink:href="#DejaVuSans-119"/>
      <use x="909.765625" xlink:href="#DejaVuSans-101"/>
      <use x="971.289062" xlink:href="#DejaVuSans-105"/>
      <use x="999.072266" xlink:href="#DejaVuSans-103"/>
      <use x="1062.548828" xlink:href="#DejaVuSans-104"/>
      <use x="1125.927734" xlink:href="#DejaVuSans-116"/>
      <use x="1165.136719" xlink:href="#DejaVuSans-32"/>
      <use x="1196.923828" xlink:href="#DejaVuSans-109"/>
      <use x="1294.335938" xlink:href="#DejaVuSans-97"/>
      <use x="1355.615234" xlink:href="#DejaVuSans-103"/>
      <use x="1419.091797" xlink:href="#DejaVuSans-110"/>
      <use x="1482.470703" xlink:href="#DejaVuSans-105"/>
      <use x="1510.253906" xlink:href="#DejaVuSans-116"/>
      <use x="1549.462891" xlink:href="#DejaVuSans-117"/>
      <use x="1612.841797" xlink:href="#DejaVuSans-100"/>
      <use x="1676.318359" xlink:href="#DejaVuSans-101"/>
      <use x="1737.841797" xlink:href="#DejaVuSans-115"/>
     </g>
    </g>
    <g id="line2d_55">
     <path d="M 63 489.420312 
L 83 489.420312 
" style="fill:none;stroke:#000000;stroke-linecap:square;stroke-opacity:0.5;stroke-width:1.5;"/>
    </g>
    <g id="line2d_56"/>
    <g id="text_38">
     <!-- Baseline -->
     <g transform="translate(91 492.920312)scale(0.1 -0.1)">
      <use xlink:href="#DejaVuSans-66"/>
      <use x="68.603516" xlink:href="#DejaVuSans-97"/>
      <use x="129.882812" xlink:href="#DejaVuSans-115"/>
      <use x="181.982422" xlink:href="#DejaVuSans-101"/>
      <use x="243.505859" xlink:href="#DejaVuSans-108"/>
      <use x="271.289062" xlink:href="#DejaVuSans-105"/>
      <use x="299.072266" xlink:href="#DejaVuSans-110"/>
      <use x="362.451172" xlink:href="#DejaVuSans-101"/>
     </g>
    </g>
   </g>
  </g>
 </g>
 <defs>
  <clipPath id="pa9b10b4b50">
   <rect height="197.672727" width="334.8" x="54" y="69.12"/>
  </clipPath>
  <clipPath id="pb044791e3a">
   <rect height="197.672727" width="334.8" x="54" y="306.327273"/>
  </clipPath>
 </defs>
</svg>
