<?xml version="1.0" encoding="utf-8" standalone="no"?>
<!DOCTYPE svg PUBLIC "-//W3C//DTD SVG 1.1//EN"
  "http://www.w3.org/Graphics/SVG/1.1/DTD/svg11.dtd">
<!-- Created with matplotlib (https://matplotlib.org/) -->
<svg height="288pt" version="1.1" viewBox="0 0 432 288" width="432pt" xmlns="http://www.w3.org/2000/svg" xmlns:xlink="http://www.w3.org/1999/xlink">
 <metadata>
  <rdf:RDF xmlns:cc="http://creativecommons.org/ns#" xmlns:dc="http://purl.org/dc/elements/1.1/" xmlns:rdf="http://www.w3.org/1999/02/22-rdf-syntax-ns#">
   <cc:Work>
    <dc:type rdf:resource="http://purl.org/dc/dcmitype/StillImage"/>
    <dc:date>2022-01-22T00:25:06.944217</dc:date>
    <dc:format>image/svg+xml</dc:format>
    <dc:creator>
     <cc:Agent>
      <dc:title>Matplotlib v3.3.4, https://matplotlib.org/</dc:title>
     </cc:Agent>
    </dc:creator>
   </cc:Work>
  </rdf:RDF>
 </metadata>
 <defs>
  <style type="text/css">*{stroke-linecap:butt;stroke-linejoin:round;}</style>
 </defs>
 <g id="figure_1">
  <g id="patch_1">
   <path d="M 0 288 
L 432 288 
L 432 0 
L 0 0 
z
" style="fill:none;"/>
  </g>
  <g id="axes_1">
   <g id="patch_2">
    <path d="M 54 252 
L 388.8 252 
L 388.8 34.56 
L 54 34.56 
z
" style="fill:#ffffff;"/>
   </g>
   <g id="matplotlib.axis_1">
    <g id="xtick_1">
     <g id="line2d_1">
      <defs>
       <path d="M 0 0 
L 0 3.5 
" id="m4e73bb4960" style="stroke:#000000;stroke-width:0.8;"/>
      </defs>
      <g>
       <use style="stroke:#000000;stroke-width:0.8;" x="69.218182" xlink:href="#m4e73bb4960" y="252"/>
      </g>
     </g>
     <g id="text_1">
      <!-- 0.0 -->
      <g transform="translate(61.266619 266.598437)scale(0.1 -0.1)">
       <defs>
        <path d="M 31.78125 66.40625 
Q 24.171875 66.40625 20.328125 58.90625 
Q 16.5 51.421875 16.5 36.375 
Q 16.5 21.390625 20.328125 13.890625 
Q 24.171875 6.390625 31.78125 6.390625 
Q 39.453125 6.390625 43.28125 13.890625 
Q 47.125 21.390625 47.125 36.375 
Q 47.125 51.421875 43.28125 58.90625 
Q 39.453125 66.40625 31.78125 66.40625 
z
M 31.78125 74.21875 
Q 44.046875 74.21875 50.515625 64.515625 
Q 56.984375 54.828125 56.984375 36.375 
Q 56.984375 17.96875 50.515625 8.265625 
Q 44.046875 -1.421875 31.78125 -1.421875 
Q 19.53125 -1.421875 13.0625 8.265625 
Q 6.59375 17.96875 6.59375 36.375 
Q 6.59375 54.828125 13.0625 64.515625 
Q 19.53125 74.21875 31.78125 74.21875 
z
" id="DejaVuSans-48"/>
        <path d="M 10.6875 12.40625 
L 21 12.40625 
L 21 0 
L 10.6875 0 
z
" id="DejaVuSans-46"/>
       </defs>
       <use xlink:href="#DejaVuSans-48"/>
       <use x="63.623047" xlink:href="#DejaVuSans-46"/>
       <use x="95.410156" xlink:href="#DejaVuSans-48"/>
      </g>
     </g>
    </g>
    <g id="xtick_2">
     <g id="line2d_2">
      <g>
       <use style="stroke:#000000;stroke-width:0.8;" x="130.090909" xlink:href="#m4e73bb4960" y="252"/>
      </g>
     </g>
     <g id="text_2">
      <!-- 0.2 -->
      <g transform="translate(122.139347 266.598437)scale(0.1 -0.1)">
       <defs>
        <path d="M 19.1875 8.296875 
L 53.609375 8.296875 
L 53.609375 0 
L 7.328125 0 
L 7.328125 8.296875 
Q 12.9375 14.109375 22.625 23.890625 
Q 32.328125 33.6875 34.8125 36.53125 
Q 39.546875 41.84375 41.421875 45.53125 
Q 43.3125 49.21875 43.3125 52.78125 
Q 43.3125 58.59375 39.234375 62.25 
Q 35.15625 65.921875 28.609375 65.921875 
Q 23.96875 65.921875 18.8125 64.3125 
Q 13.671875 62.703125 7.8125 59.421875 
L 7.8125 69.390625 
Q 13.765625 71.78125 18.9375 73 
Q 24.125 74.21875 28.421875 74.21875 
Q 39.75 74.21875 46.484375 68.546875 
Q 53.21875 62.890625 53.21875 53.421875 
Q 53.21875 48.921875 51.53125 44.890625 
Q 49.859375 40.875 45.40625 35.40625 
Q 44.1875 33.984375 37.640625 27.21875 
Q 31.109375 20.453125 19.1875 8.296875 
z
" id="DejaVuSans-50"/>
       </defs>
       <use xlink:href="#DejaVuSans-48"/>
       <use x="63.623047" xlink:href="#DejaVuSans-46"/>
       <use x="95.410156" xlink:href="#DejaVuSans-50"/>
      </g>
     </g>
    </g>
    <g id="xtick_3">
     <g id="line2d_3">
      <g>
       <use style="stroke:#000000;stroke-width:0.8;" x="190.963636" xlink:href="#m4e73bb4960" y="252"/>
      </g>
     </g>
     <g id="text_3">
      <!-- 0.4 -->
      <g transform="translate(183.012074 266.598437)scale(0.1 -0.1)">
       <defs>
        <path d="M 37.796875 64.3125 
L 12.890625 25.390625 
L 37.796875 25.390625 
z
M 35.203125 72.90625 
L 47.609375 72.90625 
L 47.609375 25.390625 
L 58.015625 25.390625 
L 58.015625 17.1875 
L 47.609375 17.1875 
L 47.609375 0 
L 37.796875 0 
L 37.796875 17.1875 
L 4.890625 17.1875 
L 4.890625 26.703125 
z
" id="DejaVuSans-52"/>
       </defs>
       <use xlink:href="#DejaVuSans-48"/>
       <use x="63.623047" xlink:href="#DejaVuSans-46"/>
       <use x="95.410156" xlink:href="#DejaVuSans-52"/>
      </g>
     </g>
    </g>
    <g id="xtick_4">
     <g id="line2d_4">
      <g>
       <use style="stroke:#000000;stroke-width:0.8;" x="251.836364" xlink:href="#m4e73bb4960" y="252"/>
      </g>
     </g>
     <g id="text_4">
      <!-- 0.6 -->
      <g transform="translate(243.884801 266.598437)scale(0.1 -0.1)">
       <defs>
        <path d="M 33.015625 40.375 
Q 26.375 40.375 22.484375 35.828125 
Q 18.609375 31.296875 18.609375 23.390625 
Q 18.609375 15.53125 22.484375 10.953125 
Q 26.375 6.390625 33.015625 6.390625 
Q 39.65625 6.390625 43.53125 10.953125 
Q 47.40625 15.53125 47.40625 23.390625 
Q 47.40625 31.296875 43.53125 35.828125 
Q 39.65625 40.375 33.015625 40.375 
z
M 52.59375 71.296875 
L 52.59375 62.3125 
Q 48.875 64.0625 45.09375 64.984375 
Q 41.3125 65.921875 37.59375 65.921875 
Q 27.828125 65.921875 22.671875 59.328125 
Q 17.53125 52.734375 16.796875 39.40625 
Q 19.671875 43.65625 24.015625 45.921875 
Q 28.375 48.1875 33.59375 48.1875 
Q 44.578125 48.1875 50.953125 41.515625 
Q 57.328125 34.859375 57.328125 23.390625 
Q 57.328125 12.15625 50.6875 5.359375 
Q 44.046875 -1.421875 33.015625 -1.421875 
Q 20.359375 -1.421875 13.671875 8.265625 
Q 6.984375 17.96875 6.984375 36.375 
Q 6.984375 53.65625 15.1875 63.9375 
Q 23.390625 74.21875 37.203125 74.21875 
Q 40.921875 74.21875 44.703125 73.484375 
Q 48.484375 72.75 52.59375 71.296875 
z
" id="DejaVuSans-54"/>
       </defs>
       <use xlink:href="#DejaVuSans-48"/>
       <use x="63.623047" xlink:href="#DejaVuSans-46"/>
       <use x="95.410156" xlink:href="#DejaVuSans-54"/>
      </g>
     </g>
    </g>
    <g id="xtick_5">
     <g id="line2d_5">
      <g>
       <use style="stroke:#000000;stroke-width:0.8;" x="312.709091" xlink:href="#m4e73bb4960" y="252"/>
      </g>
     </g>
     <g id="text_5">
      <!-- 0.8 -->
      <g transform="translate(304.757528 266.598437)scale(0.1 -0.1)">
       <defs>
        <path d="M 31.78125 34.625 
Q 24.75 34.625 20.71875 30.859375 
Q 16.703125 27.09375 16.703125 20.515625 
Q 16.703125 13.921875 20.71875 10.15625 
Q 24.75 6.390625 31.78125 6.390625 
Q 38.8125 6.390625 42.859375 10.171875 
Q 46.921875 13.96875 46.921875 20.515625 
Q 46.921875 27.09375 42.890625 30.859375 
Q 38.875 34.625 31.78125 34.625 
z
M 21.921875 38.8125 
Q 15.578125 40.375 12.03125 44.71875 
Q 8.5 49.078125 8.5 55.328125 
Q 8.5 64.0625 14.71875 69.140625 
Q 20.953125 74.21875 31.78125 74.21875 
Q 42.671875 74.21875 48.875 69.140625 
Q 55.078125 64.0625 55.078125 55.328125 
Q 55.078125 49.078125 51.53125 44.71875 
Q 48 40.375 41.703125 38.8125 
Q 48.828125 37.15625 52.796875 32.3125 
Q 56.78125 27.484375 56.78125 20.515625 
Q 56.78125 9.90625 50.3125 4.234375 
Q 43.84375 -1.421875 31.78125 -1.421875 
Q 19.734375 -1.421875 13.25 4.234375 
Q 6.78125 9.90625 6.78125 20.515625 
Q 6.78125 27.484375 10.78125 32.3125 
Q 14.796875 37.15625 21.921875 38.8125 
z
M 18.3125 54.390625 
Q 18.3125 48.734375 21.84375 45.5625 
Q 25.390625 42.390625 31.78125 42.390625 
Q 38.140625 42.390625 41.71875 45.5625 
Q 45.3125 48.734375 45.3125 54.390625 
Q 45.3125 60.0625 41.71875 63.234375 
Q 38.140625 66.40625 31.78125 66.40625 
Q 25.390625 66.40625 21.84375 63.234375 
Q 18.3125 60.0625 18.3125 54.390625 
z
" id="DejaVuSans-56"/>
       </defs>
       <use xlink:href="#DejaVuSans-48"/>
       <use x="63.623047" xlink:href="#DejaVuSans-46"/>
       <use x="95.410156" xlink:href="#DejaVuSans-56"/>
      </g>
     </g>
    </g>
    <g id="xtick_6">
     <g id="line2d_6">
      <g>
       <use style="stroke:#000000;stroke-width:0.8;" x="373.581818" xlink:href="#m4e73bb4960" y="252"/>
      </g>
     </g>
     <g id="text_6">
      <!-- 1.0 -->
      <g transform="translate(365.630256 266.598437)scale(0.1 -0.1)">
       <defs>
        <path d="M 12.40625 8.296875 
L 28.515625 8.296875 
L 28.515625 63.921875 
L 10.984375 60.40625 
L 10.984375 69.390625 
L 28.421875 72.90625 
L 38.28125 72.90625 
L 38.28125 8.296875 
L 54.390625 8.296875 
L 54.390625 0 
L 12.40625 0 
z
" id="DejaVuSans-49"/>
       </defs>
       <use xlink:href="#DejaVuSans-49"/>
       <use x="63.623047" xlink:href="#DejaVuSans-46"/>
       <use x="95.410156" xlink:href="#DejaVuSans-48"/>
      </g>
     </g>
    </g>
    <g id="text_7">
     <!-- Noise -->
     <g transform="translate(207.529687 280.276563)scale(0.1 -0.1)">
      <defs>
       <path d="M 9.8125 72.90625 
L 23.09375 72.90625 
L 55.421875 11.921875 
L 55.421875 72.90625 
L 64.984375 72.90625 
L 64.984375 0 
L 51.703125 0 
L 19.390625 60.984375 
L 19.390625 0 
L 9.8125 0 
z
" id="DejaVuSans-78"/>
       <path d="M 30.609375 48.390625 
Q 23.390625 48.390625 19.1875 42.75 
Q 14.984375 37.109375 14.984375 27.296875 
Q 14.984375 17.484375 19.15625 11.84375 
Q 23.34375 6.203125 30.609375 6.203125 
Q 37.796875 6.203125 41.984375 11.859375 
Q 46.1875 17.53125 46.1875 27.296875 
Q 46.1875 37.015625 41.984375 42.703125 
Q 37.796875 48.390625 30.609375 48.390625 
z
M 30.609375 56 
Q 42.328125 56 49.015625 48.375 
Q 55.71875 40.765625 55.71875 27.296875 
Q 55.71875 13.875 49.015625 6.21875 
Q 42.328125 -1.421875 30.609375 -1.421875 
Q 18.84375 -1.421875 12.171875 6.21875 
Q 5.515625 13.875 5.515625 27.296875 
Q 5.515625 40.765625 12.171875 48.375 
Q 18.84375 56 30.609375 56 
z
" id="DejaVuSans-111"/>
       <path d="M 9.421875 54.6875 
L 18.40625 54.6875 
L 18.40625 0 
L 9.421875 0 
z
M 9.421875 75.984375 
L 18.40625 75.984375 
L 18.40625 64.59375 
L 9.421875 64.59375 
z
" id="DejaVuSans-105"/>
       <path d="M 44.28125 53.078125 
L 44.28125 44.578125 
Q 40.484375 46.53125 36.375 47.5 
Q 32.28125 48.484375 27.875 48.484375 
Q 21.1875 48.484375 17.84375 46.4375 
Q 14.5 44.390625 14.5 40.28125 
Q 14.5 37.15625 16.890625 35.375 
Q 19.28125 33.59375 26.515625 31.984375 
L 29.59375 31.296875 
Q 39.15625 29.25 43.1875 25.515625 
Q 47.21875 21.78125 47.21875 15.09375 
Q 47.21875 7.46875 41.1875 3.015625 
Q 35.15625 -1.421875 24.609375 -1.421875 
Q 20.21875 -1.421875 15.453125 -0.5625 
Q 10.6875 0.296875 5.421875 2 
L 5.421875 11.28125 
Q 10.40625 8.6875 15.234375 7.390625 
Q 20.0625 6.109375 24.8125 6.109375 
Q 31.15625 6.109375 34.5625 8.28125 
Q 37.984375 10.453125 37.984375 14.40625 
Q 37.984375 18.0625 35.515625 20.015625 
Q 33.0625 21.96875 24.703125 23.78125 
L 21.578125 24.515625 
Q 13.234375 26.265625 9.515625 29.90625 
Q 5.8125 33.546875 5.8125 39.890625 
Q 5.8125 47.609375 11.28125 51.796875 
Q 16.75 56 26.8125 56 
Q 31.78125 56 36.171875 55.265625 
Q 40.578125 54.546875 44.28125 53.078125 
z
" id="DejaVuSans-115"/>
       <path d="M 56.203125 29.59375 
L 56.203125 25.203125 
L 14.890625 25.203125 
Q 15.484375 15.921875 20.484375 11.0625 
Q 25.484375 6.203125 34.421875 6.203125 
Q 39.59375 6.203125 44.453125 7.46875 
Q 49.3125 8.734375 54.109375 11.28125 
L 54.109375 2.78125 
Q 49.265625 0.734375 44.1875 -0.34375 
Q 39.109375 -1.421875 33.890625 -1.421875 
Q 20.796875 -1.421875 13.15625 6.1875 
Q 5.515625 13.8125 5.515625 26.8125 
Q 5.515625 40.234375 12.765625 48.109375 
Q 20.015625 56 32.328125 56 
Q 43.359375 56 49.78125 48.890625 
Q 56.203125 41.796875 56.203125 29.59375 
z
M 47.21875 32.234375 
Q 47.125 39.59375 43.09375 43.984375 
Q 39.0625 48.390625 32.421875 48.390625 
Q 24.90625 48.390625 20.390625 44.140625 
Q 15.875 39.890625 15.1875 32.171875 
z
" id="DejaVuSans-101"/>
      </defs>
      <use xlink:href="#DejaVuSans-78"/>
      <use x="74.804688" xlink:href="#DejaVuSans-111"/>
      <use x="135.986328" xlink:href="#DejaVuSans-105"/>
      <use x="163.769531" xlink:href="#DejaVuSans-115"/>
      <use x="215.869141" xlink:href="#DejaVuSans-101"/>
     </g>
    </g>
   </g>
   <g id="matplotlib.axis_2">
    <g id="ytick_1">
     <g id="line2d_7">
      <defs>
       <path d="M 0 0 
L -3.5 0 
" id="m026eb24082" style="stroke:#000000;stroke-width:0.8;"/>
      </defs>
      <g>
       <use style="stroke:#000000;stroke-width:0.8;" x="54" xlink:href="#m026eb24082" y="216.092458"/>
      </g>
     </g>
     <g id="text_8">
      <!-- 0.2 -->
      <g transform="translate(31.096875 219.891677)scale(0.1 -0.1)">
       <use xlink:href="#DejaVuSans-48"/>
       <use x="63.623047" xlink:href="#DejaVuSans-46"/>
       <use x="95.410156" xlink:href="#DejaVuSans-50"/>
      </g>
     </g>
    </g>
    <g id="ytick_2">
     <g id="line2d_8">
      <g>
       <use style="stroke:#000000;stroke-width:0.8;" x="54" xlink:href="#m026eb24082" y="173.180255"/>
      </g>
     </g>
     <g id="text_9">
      <!-- 0.3 -->
      <g transform="translate(31.096875 176.979474)scale(0.1 -0.1)">
       <defs>
        <path d="M 40.578125 39.3125 
Q 47.65625 37.796875 51.625 33 
Q 55.609375 28.21875 55.609375 21.1875 
Q 55.609375 10.40625 48.1875 4.484375 
Q 40.765625 -1.421875 27.09375 -1.421875 
Q 22.515625 -1.421875 17.65625 -0.515625 
Q 12.796875 0.390625 7.625 2.203125 
L 7.625 11.71875 
Q 11.71875 9.328125 16.59375 8.109375 
Q 21.484375 6.890625 26.8125 6.890625 
Q 36.078125 6.890625 40.9375 10.546875 
Q 45.796875 14.203125 45.796875 21.1875 
Q 45.796875 27.640625 41.28125 31.265625 
Q 36.765625 34.90625 28.71875 34.90625 
L 20.21875 34.90625 
L 20.21875 43.015625 
L 29.109375 43.015625 
Q 36.375 43.015625 40.234375 45.921875 
Q 44.09375 48.828125 44.09375 54.296875 
Q 44.09375 59.90625 40.109375 62.90625 
Q 36.140625 65.921875 28.71875 65.921875 
Q 24.65625 65.921875 20.015625 65.03125 
Q 15.375 64.15625 9.8125 62.3125 
L 9.8125 71.09375 
Q 15.4375 72.65625 20.34375 73.4375 
Q 25.25 74.21875 29.59375 74.21875 
Q 40.828125 74.21875 47.359375 69.109375 
Q 53.90625 64.015625 53.90625 55.328125 
Q 53.90625 49.265625 50.4375 45.09375 
Q 46.96875 40.921875 40.578125 39.3125 
z
" id="DejaVuSans-51"/>
       </defs>
       <use xlink:href="#DejaVuSans-48"/>
       <use x="63.623047" xlink:href="#DejaVuSans-46"/>
       <use x="95.410156" xlink:href="#DejaVuSans-51"/>
      </g>
     </g>
    </g>
    <g id="ytick_3">
     <g id="line2d_9">
      <g>
       <use style="stroke:#000000;stroke-width:0.8;" x="54" xlink:href="#m026eb24082" y="130.268052"/>
      </g>
     </g>
     <g id="text_10">
      <!-- 0.4 -->
      <g transform="translate(31.096875 134.067271)scale(0.1 -0.1)">
       <use xlink:href="#DejaVuSans-48"/>
       <use x="63.623047" xlink:href="#DejaVuSans-46"/>
       <use x="95.410156" xlink:href="#DejaVuSans-52"/>
      </g>
     </g>
    </g>
    <g id="ytick_4">
     <g id="line2d_10">
      <g>
       <use style="stroke:#000000;stroke-width:0.8;" x="54" xlink:href="#m026eb24082" y="87.355849"/>
      </g>
     </g>
     <g id="text_11">
      <!-- 0.5 -->
      <g transform="translate(31.096875 91.155068)scale(0.1 -0.1)">
       <defs>
        <path d="M 10.796875 72.90625 
L 49.515625 72.90625 
L 49.515625 64.59375 
L 19.828125 64.59375 
L 19.828125 46.734375 
Q 21.96875 47.46875 24.109375 47.828125 
Q 26.265625 48.1875 28.421875 48.1875 
Q 40.625 48.1875 47.75 41.5 
Q 54.890625 34.8125 54.890625 23.390625 
Q 54.890625 11.625 47.5625 5.09375 
Q 40.234375 -1.421875 26.90625 -1.421875 
Q 22.3125 -1.421875 17.546875 -0.640625 
Q 12.796875 0.140625 7.71875 1.703125 
L 7.71875 11.625 
Q 12.109375 9.234375 16.796875 8.0625 
Q 21.484375 6.890625 26.703125 6.890625 
Q 35.15625 6.890625 40.078125 11.328125 
Q 45.015625 15.765625 45.015625 23.390625 
Q 45.015625 31 40.078125 35.4375 
Q 35.15625 39.890625 26.703125 39.890625 
Q 22.75 39.890625 18.8125 39.015625 
Q 14.890625 38.140625 10.796875 36.28125 
z
" id="DejaVuSans-53"/>
       </defs>
       <use xlink:href="#DejaVuSans-48"/>
       <use x="63.623047" xlink:href="#DejaVuSans-46"/>
       <use x="95.410156" xlink:href="#DejaVuSans-53"/>
      </g>
     </g>
    </g>
    <g id="ytick_5">
     <g id="line2d_11">
      <g>
       <use style="stroke:#000000;stroke-width:0.8;" x="54" xlink:href="#m026eb24082" y="44.443647"/>
      </g>
     </g>
     <g id="text_12">
      <!-- 0.6 -->
      <g transform="translate(31.096875 48.242865)scale(0.1 -0.1)">
       <use xlink:href="#DejaVuSans-48"/>
       <use x="63.623047" xlink:href="#DejaVuSans-46"/>
       <use x="95.410156" xlink:href="#DejaVuSans-54"/>
      </g>
     </g>
    </g>
    <g id="text_13">
     <!-- Accuracy -->
     <g transform="translate(25.017187 166.108125)rotate(-90)scale(0.1 -0.1)">
      <defs>
       <path d="M 34.1875 63.1875 
L 20.796875 26.90625 
L 47.609375 26.90625 
z
M 28.609375 72.90625 
L 39.796875 72.90625 
L 67.578125 0 
L 57.328125 0 
L 50.6875 18.703125 
L 17.828125 18.703125 
L 11.1875 0 
L 0.78125 0 
z
" id="DejaVuSans-65"/>
       <path d="M 48.78125 52.59375 
L 48.78125 44.1875 
Q 44.96875 46.296875 41.140625 47.34375 
Q 37.3125 48.390625 33.40625 48.390625 
Q 24.65625 48.390625 19.8125 42.84375 
Q 14.984375 37.3125 14.984375 27.296875 
Q 14.984375 17.28125 19.8125 11.734375 
Q 24.65625 6.203125 33.40625 6.203125 
Q 37.3125 6.203125 41.140625 7.25 
Q 44.96875 8.296875 48.78125 10.40625 
L 48.78125 2.09375 
Q 45.015625 0.34375 40.984375 -0.53125 
Q 36.96875 -1.421875 32.421875 -1.421875 
Q 20.0625 -1.421875 12.78125 6.34375 
Q 5.515625 14.109375 5.515625 27.296875 
Q 5.515625 40.671875 12.859375 48.328125 
Q 20.21875 56 33.015625 56 
Q 37.15625 56 41.109375 55.140625 
Q 45.0625 54.296875 48.78125 52.59375 
z
" id="DejaVuSans-99"/>
       <path d="M 8.5 21.578125 
L 8.5 54.6875 
L 17.484375 54.6875 
L 17.484375 21.921875 
Q 17.484375 14.15625 20.5 10.265625 
Q 23.53125 6.390625 29.59375 6.390625 
Q 36.859375 6.390625 41.078125 11.03125 
Q 45.3125 15.671875 45.3125 23.6875 
L 45.3125 54.6875 
L 54.296875 54.6875 
L 54.296875 0 
L 45.3125 0 
L 45.3125 8.40625 
Q 42.046875 3.421875 37.71875 1 
Q 33.40625 -1.421875 27.6875 -1.421875 
Q 18.265625 -1.421875 13.375 4.4375 
Q 8.5 10.296875 8.5 21.578125 
z
M 31.109375 56 
z
" id="DejaVuSans-117"/>
       <path d="M 41.109375 46.296875 
Q 39.59375 47.171875 37.8125 47.578125 
Q 36.03125 48 33.890625 48 
Q 26.265625 48 22.1875 43.046875 
Q 18.109375 38.09375 18.109375 28.8125 
L 18.109375 0 
L 9.078125 0 
L 9.078125 54.6875 
L 18.109375 54.6875 
L 18.109375 46.1875 
Q 20.953125 51.171875 25.484375 53.578125 
Q 30.03125 56 36.53125 56 
Q 37.453125 56 38.578125 55.875 
Q 39.703125 55.765625 41.0625 55.515625 
z
" id="DejaVuSans-114"/>
       <path d="M 34.28125 27.484375 
Q 23.390625 27.484375 19.1875 25 
Q 14.984375 22.515625 14.984375 16.5 
Q 14.984375 11.71875 18.140625 8.90625 
Q 21.296875 6.109375 26.703125 6.109375 
Q 34.1875 6.109375 38.703125 11.40625 
Q 43.21875 16.703125 43.21875 25.484375 
L 43.21875 27.484375 
z
M 52.203125 31.203125 
L 52.203125 0 
L 43.21875 0 
L 43.21875 8.296875 
Q 40.140625 3.328125 35.546875 0.953125 
Q 30.953125 -1.421875 24.3125 -1.421875 
Q 15.921875 -1.421875 10.953125 3.296875 
Q 6 8.015625 6 15.921875 
Q 6 25.140625 12.171875 29.828125 
Q 18.359375 34.515625 30.609375 34.515625 
L 43.21875 34.515625 
L 43.21875 35.40625 
Q 43.21875 41.609375 39.140625 45 
Q 35.0625 48.390625 27.6875 48.390625 
Q 23 48.390625 18.546875 47.265625 
Q 14.109375 46.140625 10.015625 43.890625 
L 10.015625 52.203125 
Q 14.9375 54.109375 19.578125 55.046875 
Q 24.21875 56 28.609375 56 
Q 40.484375 56 46.34375 49.84375 
Q 52.203125 43.703125 52.203125 31.203125 
z
" id="DejaVuSans-97"/>
       <path d="M 32.171875 -5.078125 
Q 28.375 -14.84375 24.75 -17.8125 
Q 21.140625 -20.796875 15.09375 -20.796875 
L 7.90625 -20.796875 
L 7.90625 -13.28125 
L 13.1875 -13.28125 
Q 16.890625 -13.28125 18.9375 -11.515625 
Q 21 -9.765625 23.484375 -3.21875 
L 25.09375 0.875 
L 2.984375 54.6875 
L 12.5 54.6875 
L 29.59375 11.921875 
L 46.6875 54.6875 
L 56.203125 54.6875 
z
" id="DejaVuSans-121"/>
      </defs>
      <use xlink:href="#DejaVuSans-65"/>
      <use x="66.658203" xlink:href="#DejaVuSans-99"/>
      <use x="121.638672" xlink:href="#DejaVuSans-99"/>
      <use x="176.619141" xlink:href="#DejaVuSans-117"/>
      <use x="239.998047" xlink:href="#DejaVuSans-114"/>
      <use x="281.111328" xlink:href="#DejaVuSans-97"/>
      <use x="342.390625" xlink:href="#DejaVuSans-99"/>
      <use x="397.371094" xlink:href="#DejaVuSans-121"/>
     </g>
    </g>
   </g>
   <g id="line2d_12">
    <path clip-path="url(#p84fdc005dd)" d="M 69.218182 59.613776 
L 79.71348 60.284294 
L 90.208777 63.217746 
L 100.704075 68.204598 
L 111.199373 78.220249 
L 121.694671 92.217 
L 132.189969 105.543245 
L 142.685266 120.671476 
L 153.180564 134.919668 
L 163.675862 147.407784 
L 174.17116 158.973967 
L 184.666458 166.810478 
L 195.161755 179.089062 
L 205.657053 185.961717 
L 216.152351 190.194271 
L 226.647649 199.53941 
L 237.142947 204.484372 
L 247.638245 209.094081 
L 258.133542 212.111344 
L 268.62884 217.894435 
L 279.124138 219.10972 
L 289.619436 223.216553 
L 300.114734 224.389935 
L 310.610031 226.694789 
L 321.105329 231.849284 
L 331.600627 234.321762 
L 342.095925 234.070327 
L 352.591223 236.291364 
L 363.08652 236.584714 
L 373.581818 242.116364 
" style="fill:none;stroke:#1f77b4;stroke-linecap:square;stroke-width:1.5;"/>
    <defs>
     <path d="M 0 1.5 
C 0.397805 1.5 0.77937 1.341951 1.06066 1.06066 
C 1.341951 0.77937 1.5 0.397805 1.5 0 
C 1.5 -0.397805 1.341951 -0.77937 1.06066 -1.06066 
C 0.77937 -1.341951 0.397805 -1.5 0 -1.5 
C -0.397805 -1.5 -0.77937 -1.341951 -1.06066 -1.06066 
C -1.341951 -0.77937 -1.5 -0.397805 -1.5 0 
C -1.5 0.397805 -1.341951 0.77937 -1.06066 1.06066 
C -0.77937 1.341951 -0.397805 1.5 0 1.5 
z
" id="meef004f840" style="stroke:#1f77b4;"/>
    </defs>
    <g clip-path="url(#p84fdc005dd)">
     <use style="fill:#1f77b4;stroke:#1f77b4;" x="69.218182" xlink:href="#meef004f840" y="59.613776"/>
     <use style="fill:#1f77b4;stroke:#1f77b4;" x="79.71348" xlink:href="#meef004f840" y="60.284294"/>
     <use style="fill:#1f77b4;stroke:#1f77b4;" x="90.208777" xlink:href="#meef004f840" y="63.217746"/>
     <use style="fill:#1f77b4;stroke:#1f77b4;" x="100.704075" xlink:href="#meef004f840" y="68.204598"/>
     <use style="fill:#1f77b4;stroke:#1f77b4;" x="111.199373" xlink:href="#meef004f840" y="78.220249"/>
     <use style="fill:#1f77b4;stroke:#1f77b4;" x="121.694671" xlink:href="#meef004f840" y="92.217"/>
     <use style="fill:#1f77b4;stroke:#1f77b4;" x="132.189969" xlink:href="#meef004f840" y="105.543245"/>
     <use style="fill:#1f77b4;stroke:#1f77b4;" x="142.685266" xlink:href="#meef004f840" y="120.671476"/>
     <use style="fill:#1f77b4;stroke:#1f77b4;" x="153.180564" xlink:href="#meef004f840" y="134.919668"/>
     <use style="fill:#1f77b4;stroke:#1f77b4;" x="163.675862" xlink:href="#meef004f840" y="147.407784"/>
     <use style="fill:#1f77b4;stroke:#1f77b4;" x="174.17116" xlink:href="#meef004f840" y="158.973967"/>
     <use style="fill:#1f77b4;stroke:#1f77b4;" x="184.666458" xlink:href="#meef004f840" y="166.810478"/>
     <use style="fill:#1f77b4;stroke:#1f77b4;" x="195.161755" xlink:href="#meef004f840" y="179.089062"/>
     <use style="fill:#1f77b4;stroke:#1f77b4;" x="205.657053" xlink:href="#meef004f840" y="185.961717"/>
     <use style="fill:#1f77b4;stroke:#1f77b4;" x="216.152351" xlink:href="#meef004f840" y="190.194271"/>
     <use style="fill:#1f77b4;stroke:#1f77b4;" x="226.647649" xlink:href="#meef004f840" y="199.53941"/>
     <use style="fill:#1f77b4;stroke:#1f77b4;" x="237.142947" xlink:href="#meef004f840" y="204.484372"/>
     <use style="fill:#1f77b4;stroke:#1f77b4;" x="247.638245" xlink:href="#meef004f840" y="209.094081"/>
     <use style="fill:#1f77b4;stroke:#1f77b4;" x="258.133542" xlink:href="#meef004f840" y="212.111344"/>
     <use style="fill:#1f77b4;stroke:#1f77b4;" x="268.62884" xlink:href="#meef004f840" y="217.894435"/>
     <use style="fill:#1f77b4;stroke:#1f77b4;" x="279.124138" xlink:href="#meef004f840" y="219.10972"/>
     <use style="fill:#1f77b4;stroke:#1f77b4;" x="289.619436" xlink:href="#meef004f840" y="223.216553"/>
     <use style="fill:#1f77b4;stroke:#1f77b4;" x="300.114734" xlink:href="#meef004f840" y="224.389935"/>
     <use style="fill:#1f77b4;stroke:#1f77b4;" x="310.610031" xlink:href="#meef004f840" y="226.694789"/>
     <use style="fill:#1f77b4;stroke:#1f77b4;" x="321.105329" xlink:href="#meef004f840" y="231.849284"/>
     <use style="fill:#1f77b4;stroke:#1f77b4;" x="331.600627" xlink:href="#meef004f840" y="234.321762"/>
     <use style="fill:#1f77b4;stroke:#1f77b4;" x="342.095925" xlink:href="#meef004f840" y="234.070327"/>
     <use style="fill:#1f77b4;stroke:#1f77b4;" x="352.591223" xlink:href="#meef004f840" y="236.291364"/>
     <use style="fill:#1f77b4;stroke:#1f77b4;" x="363.08652" xlink:href="#meef004f840" y="236.584714"/>
     <use style="fill:#1f77b4;stroke:#1f77b4;" x="373.581818" xlink:href="#meef004f840" y="242.116364"/>
    </g>
   </g>
   <g id="line2d_13">
    <path clip-path="url(#p84fdc005dd)" d="M 69.218182 48.508567 
L 79.71348 50.268643 
L 90.208777 53.160198 
L 100.704075 61.331955 
L 111.199373 72.520957 
L 121.694671 84.757645 
L 132.189969 99.257278 
L 142.685266 114.175976 
L 153.180564 128.633701 
L 163.675862 140.116065 
L 174.17116 151.137469 
L 184.666458 160.692134 
L 195.161755 165.888531 
L 205.657053 173.054536 
L 216.152351 181.184384 
L 226.647649 184.662627 
L 237.142947 189.900933 
L 247.638245 195.306862 
L 258.133542 200.419448 
L 268.62884 201.59283 
L 279.124138 203.939587 
L 289.619436 210.309366 
L 300.114734 213.117103 
L 310.610031 215.673392 
L 321.105329 219.40307 
L 331.600627 219.989758 
L 342.095925 220.031667 
L 352.591223 223.803247 
L 363.08652 224.389935 
L 373.581818 226.694789 
" style="fill:none;stroke:#ff7f0e;stroke-linecap:square;stroke-width:1.5;"/>
    <defs>
     <path d="M 0 1.5 
C 0.397805 1.5 0.77937 1.341951 1.06066 1.06066 
C 1.341951 0.77937 1.5 0.397805 1.5 0 
C 1.5 -0.397805 1.341951 -0.77937 1.06066 -1.06066 
C 0.77937 -1.341951 0.397805 -1.5 0 -1.5 
C -0.397805 -1.5 -0.77937 -1.341951 -1.06066 -1.06066 
C -1.341951 -0.77937 -1.5 -0.397805 -1.5 0 
C -1.5 0.397805 -1.341951 0.77937 -1.06066 1.06066 
C -0.77937 1.341951 -0.397805 1.5 0 1.5 
z
" id="ma1d7b7cd63" style="stroke:#ff7f0e;"/>
    </defs>
    <g clip-path="url(#p84fdc005dd)">
     <use style="fill:#ff7f0e;stroke:#ff7f0e;" x="69.218182" xlink:href="#ma1d7b7cd63" y="48.508567"/>
     <use style="fill:#ff7f0e;stroke:#ff7f0e;" x="79.71348" xlink:href="#ma1d7b7cd63" y="50.268643"/>
     <use style="fill:#ff7f0e;stroke:#ff7f0e;" x="90.208777" xlink:href="#ma1d7b7cd63" y="53.160198"/>
     <use style="fill:#ff7f0e;stroke:#ff7f0e;" x="100.704075" xlink:href="#ma1d7b7cd63" y="61.331955"/>
     <use style="fill:#ff7f0e;stroke:#ff7f0e;" x="111.199373" xlink:href="#ma1d7b7cd63" y="72.520957"/>
     <use style="fill:#ff7f0e;stroke:#ff7f0e;" x="121.694671" xlink:href="#ma1d7b7cd63" y="84.757645"/>
     <use style="fill:#ff7f0e;stroke:#ff7f0e;" x="132.189969" xlink:href="#ma1d7b7cd63" y="99.257278"/>
     <use style="fill:#ff7f0e;stroke:#ff7f0e;" x="142.685266" xlink:href="#ma1d7b7cd63" y="114.175976"/>
     <use style="fill:#ff7f0e;stroke:#ff7f0e;" x="153.180564" xlink:href="#ma1d7b7cd63" y="128.633701"/>
     <use style="fill:#ff7f0e;stroke:#ff7f0e;" x="163.675862" xlink:href="#ma1d7b7cd63" y="140.116065"/>
     <use style="fill:#ff7f0e;stroke:#ff7f0e;" x="174.17116" xlink:href="#ma1d7b7cd63" y="151.137469"/>
     <use style="fill:#ff7f0e;stroke:#ff7f0e;" x="184.666458" xlink:href="#ma1d7b7cd63" y="160.692134"/>
     <use style="fill:#ff7f0e;stroke:#ff7f0e;" x="195.161755" xlink:href="#ma1d7b7cd63" y="165.888531"/>
     <use style="fill:#ff7f0e;stroke:#ff7f0e;" x="205.657053" xlink:href="#ma1d7b7cd63" y="173.054536"/>
     <use style="fill:#ff7f0e;stroke:#ff7f0e;" x="216.152351" xlink:href="#ma1d7b7cd63" y="181.184384"/>
     <use style="fill:#ff7f0e;stroke:#ff7f0e;" x="226.647649" xlink:href="#ma1d7b7cd63" y="184.662627"/>
     <use style="fill:#ff7f0e;stroke:#ff7f0e;" x="237.142947" xlink:href="#ma1d7b7cd63" y="189.900933"/>
     <use style="fill:#ff7f0e;stroke:#ff7f0e;" x="247.638245" xlink:href="#ma1d7b7cd63" y="195.306862"/>
     <use style="fill:#ff7f0e;stroke:#ff7f0e;" x="258.133542" xlink:href="#ma1d7b7cd63" y="200.419448"/>
     <use style="fill:#ff7f0e;stroke:#ff7f0e;" x="268.62884" xlink:href="#ma1d7b7cd63" y="201.59283"/>
     <use style="fill:#ff7f0e;stroke:#ff7f0e;" x="279.124138" xlink:href="#ma1d7b7cd63" y="203.939587"/>
     <use style="fill:#ff7f0e;stroke:#ff7f0e;" x="289.619436" xlink:href="#ma1d7b7cd63" y="210.309366"/>
     <use style="fill:#ff7f0e;stroke:#ff7f0e;" x="300.114734" xlink:href="#ma1d7b7cd63" y="213.117103"/>
     <use style="fill:#ff7f0e;stroke:#ff7f0e;" x="310.610031" xlink:href="#ma1d7b7cd63" y="215.673392"/>
     <use style="fill:#ff7f0e;stroke:#ff7f0e;" x="321.105329" xlink:href="#ma1d7b7cd63" y="219.40307"/>
     <use style="fill:#ff7f0e;stroke:#ff7f0e;" x="331.600627" xlink:href="#ma1d7b7cd63" y="219.989758"/>
     <use style="fill:#ff7f0e;stroke:#ff7f0e;" x="342.095925" xlink:href="#ma1d7b7cd63" y="220.031667"/>
     <use style="fill:#ff7f0e;stroke:#ff7f0e;" x="352.591223" xlink:href="#ma1d7b7cd63" y="223.803247"/>
     <use style="fill:#ff7f0e;stroke:#ff7f0e;" x="363.08652" xlink:href="#ma1d7b7cd63" y="224.389935"/>
     <use style="fill:#ff7f0e;stroke:#ff7f0e;" x="373.581818" xlink:href="#ma1d7b7cd63" y="226.694789"/>
    </g>
   </g>
   <g id="line2d_14">
    <path clip-path="url(#p84fdc005dd)" d="M 69.218182 49.220982 
L 79.71348 51.19059 
L 90.208777 56.512714 
L 100.704075 63.804421 
L 111.199373 78.052613 
L 121.694671 92.049377 
L 132.189969 107.470945 
L 142.685266 125.029744 
L 153.180564 137.140705 
L 163.675862 148.539264 
L 174.17116 161.907418 
L 184.666458 171.29446 
L 195.161755 179.633853 
L 205.657053 187.637975 
L 216.152351 193.798228 
L 226.647649 196.354524 
L 237.142947 203.269088 
L 247.638245 206.076818 
L 258.133542 208.549296 
L 268.62884 213.200914 
L 279.124138 218.858285 
L 289.619436 221.079328 
L 300.114734 223.090832 
L 310.610031 224.683279 
L 321.105329 228.245327 
L 331.600627 230.005396 
L 342.095925 228.957735 
L 352.591223 232.980757 
L 363.08652 234.908456 
L 373.581818 234.992267 
" style="fill:none;stroke:#2ca02c;stroke-linecap:square;stroke-width:1.5;"/>
    <defs>
     <path d="M 0 1.5 
C 0.397805 1.5 0.77937 1.341951 1.06066 1.06066 
C 1.341951 0.77937 1.5 0.397805 1.5 0 
C 1.5 -0.397805 1.341951 -0.77937 1.06066 -1.06066 
C 0.77937 -1.341951 0.397805 -1.5 0 -1.5 
C -0.397805 -1.5 -0.77937 -1.341951 -1.06066 -1.06066 
C -1.341951 -0.77937 -1.5 -0.397805 -1.5 0 
C -1.5 0.397805 -1.341951 0.77937 -1.06066 1.06066 
C -0.77937 1.341951 -0.397805 1.5 0 1.5 
z
" id="mada592769a" style="stroke:#2ca02c;"/>
    </defs>
    <g clip-path="url(#p84fdc005dd)">
     <use style="fill:#2ca02c;stroke:#2ca02c;" x="69.218182" xlink:href="#mada592769a" y="49.220982"/>
     <use style="fill:#2ca02c;stroke:#2ca02c;" x="79.71348" xlink:href="#mada592769a" y="51.19059"/>
     <use style="fill:#2ca02c;stroke:#2ca02c;" x="90.208777" xlink:href="#mada592769a" y="56.512714"/>
     <use style="fill:#2ca02c;stroke:#2ca02c;" x="100.704075" xlink:href="#mada592769a" y="63.804421"/>
     <use style="fill:#2ca02c;stroke:#2ca02c;" x="111.199373" xlink:href="#mada592769a" y="78.052613"/>
     <use style="fill:#2ca02c;stroke:#2ca02c;" x="121.694671" xlink:href="#mada592769a" y="92.049377"/>
     <use style="fill:#2ca02c;stroke:#2ca02c;" x="132.189969" xlink:href="#mada592769a" y="107.470945"/>
     <use style="fill:#2ca02c;stroke:#2ca02c;" x="142.685266" xlink:href="#mada592769a" y="125.029744"/>
     <use style="fill:#2ca02c;stroke:#2ca02c;" x="153.180564" xlink:href="#mada592769a" y="137.140705"/>
     <use style="fill:#2ca02c;stroke:#2ca02c;" x="163.675862" xlink:href="#mada592769a" y="148.539264"/>
     <use style="fill:#2ca02c;stroke:#2ca02c;" x="174.17116" xlink:href="#mada592769a" y="161.907418"/>
     <use style="fill:#2ca02c;stroke:#2ca02c;" x="184.666458" xlink:href="#mada592769a" y="171.29446"/>
     <use style="fill:#2ca02c;stroke:#2ca02c;" x="195.161755" xlink:href="#mada592769a" y="179.633853"/>
     <use style="fill:#2ca02c;stroke:#2ca02c;" x="205.657053" xlink:href="#mada592769a" y="187.637975"/>
     <use style="fill:#2ca02c;stroke:#2ca02c;" x="216.152351" xlink:href="#mada592769a" y="193.798228"/>
     <use style="fill:#2ca02c;stroke:#2ca02c;" x="226.647649" xlink:href="#mada592769a" y="196.354524"/>
     <use style="fill:#2ca02c;stroke:#2ca02c;" x="237.142947" xlink:href="#mada592769a" y="203.269088"/>
     <use style="fill:#2ca02c;stroke:#2ca02c;" x="247.638245" xlink:href="#mada592769a" y="206.076818"/>
     <use style="fill:#2ca02c;stroke:#2ca02c;" x="258.133542" xlink:href="#mada592769a" y="208.549296"/>
     <use style="fill:#2ca02c;stroke:#2ca02c;" x="268.62884" xlink:href="#mada592769a" y="213.200914"/>
     <use style="fill:#2ca02c;stroke:#2ca02c;" x="279.124138" xlink:href="#mada592769a" y="218.858285"/>
     <use style="fill:#2ca02c;stroke:#2ca02c;" x="289.619436" xlink:href="#mada592769a" y="221.079328"/>
     <use style="fill:#2ca02c;stroke:#2ca02c;" x="300.114734" xlink:href="#mada592769a" y="223.090832"/>
     <use style="fill:#2ca02c;stroke:#2ca02c;" x="310.610031" xlink:href="#mada592769a" y="224.683279"/>
     <use style="fill:#2ca02c;stroke:#2ca02c;" x="321.105329" xlink:href="#mada592769a" y="228.245327"/>
     <use style="fill:#2ca02c;stroke:#2ca02c;" x="331.600627" xlink:href="#mada592769a" y="230.005396"/>
     <use style="fill:#2ca02c;stroke:#2ca02c;" x="342.095925" xlink:href="#mada592769a" y="228.957735"/>
     <use style="fill:#2ca02c;stroke:#2ca02c;" x="352.591223" xlink:href="#mada592769a" y="232.980757"/>
     <use style="fill:#2ca02c;stroke:#2ca02c;" x="363.08652" xlink:href="#mada592769a" y="234.908456"/>
     <use style="fill:#2ca02c;stroke:#2ca02c;" x="373.581818" xlink:href="#mada592769a" y="234.992267"/>
    </g>
   </g>
   <g id="line2d_15">
    <path clip-path="url(#p84fdc005dd)" d="M 69.218182 44.443636 
L 79.71348 44.69509 
L 90.208777 49.346696 
L 100.704075 54.710716 
L 111.199373 67.156936 
L 121.694671 77.67547 
L 132.189969 91.797936 
L 142.685266 104.87274 
L 153.180564 118.827595 
L 163.675862 134.249162 
L 174.17116 144.013372 
L 184.666458 153.861388 
L 195.161755 167.564789 
L 205.657053 173.305977 
L 216.152351 182.190136 
L 226.647649 188.30848 
L 237.142947 194.720168 
L 247.638245 198.240314 
L 258.133542 203.436711 
L 268.62884 208.465485 
L 279.124138 213.033285 
L 289.619436 213.368538 
L 300.114734 220.576445 
L 310.610031 221.414574 
L 321.105329 221.875548 
L 331.600627 225.605219 
L 342.095925 229.963494 
L 352.591223 231.053057 
L 363.08652 232.519783 
L 373.581818 232.896945 
" style="fill:none;stroke:#d62728;stroke-linecap:square;stroke-width:1.5;"/>
    <defs>
     <path d="M 0 1.5 
C 0.397805 1.5 0.77937 1.341951 1.06066 1.06066 
C 1.341951 0.77937 1.5 0.397805 1.5 0 
C 1.5 -0.397805 1.341951 -0.77937 1.06066 -1.06066 
C 0.77937 -1.341951 0.397805 -1.5 0 -1.5 
C -0.397805 -1.5 -0.77937 -1.341951 -1.06066 -1.06066 
C -1.341951 -0.77937 -1.5 -0.397805 -1.5 0 
C -1.5 0.397805 -1.341951 0.77937 -1.06066 1.06066 
C -0.77937 1.341951 -0.397805 1.5 0 1.5 
z
" id="m6908a7f83f" style="stroke:#d62728;"/>
    </defs>
    <g clip-path="url(#p84fdc005dd)">
     <use style="fill:#d62728;stroke:#d62728;" x="69.218182" xlink:href="#m6908a7f83f" y="44.443636"/>
     <use style="fill:#d62728;stroke:#d62728;" x="79.71348" xlink:href="#m6908a7f83f" y="44.69509"/>
     <use style="fill:#d62728;stroke:#d62728;" x="90.208777" xlink:href="#m6908a7f83f" y="49.346696"/>
     <use style="fill:#d62728;stroke:#d62728;" x="100.704075" xlink:href="#m6908a7f83f" y="54.710716"/>
     <use style="fill:#d62728;stroke:#d62728;" x="111.199373" xlink:href="#m6908a7f83f" y="67.156936"/>
     <use style="fill:#d62728;stroke:#d62728;" x="121.694671" xlink:href="#m6908a7f83f" y="77.67547"/>
     <use style="fill:#d62728;stroke:#d62728;" x="132.189969" xlink:href="#m6908a7f83f" y="91.797936"/>
     <use style="fill:#d62728;stroke:#d62728;" x="142.685266" xlink:href="#m6908a7f83f" y="104.87274"/>
     <use style="fill:#d62728;stroke:#d62728;" x="153.180564" xlink:href="#m6908a7f83f" y="118.827595"/>
     <use style="fill:#d62728;stroke:#d62728;" x="163.675862" xlink:href="#m6908a7f83f" y="134.249162"/>
     <use style="fill:#d62728;stroke:#d62728;" x="174.17116" xlink:href="#m6908a7f83f" y="144.013372"/>
     <use style="fill:#d62728;stroke:#d62728;" x="184.666458" xlink:href="#m6908a7f83f" y="153.861388"/>
     <use style="fill:#d62728;stroke:#d62728;" x="195.161755" xlink:href="#m6908a7f83f" y="167.564789"/>
     <use style="fill:#d62728;stroke:#d62728;" x="205.657053" xlink:href="#m6908a7f83f" y="173.305977"/>
     <use style="fill:#d62728;stroke:#d62728;" x="216.152351" xlink:href="#m6908a7f83f" y="182.190136"/>
     <use style="fill:#d62728;stroke:#d62728;" x="226.647649" xlink:href="#m6908a7f83f" y="188.30848"/>
     <use style="fill:#d62728;stroke:#d62728;" x="237.142947" xlink:href="#m6908a7f83f" y="194.720168"/>
     <use style="fill:#d62728;stroke:#d62728;" x="247.638245" xlink:href="#m6908a7f83f" y="198.240314"/>
     <use style="fill:#d62728;stroke:#d62728;" x="258.133542" xlink:href="#m6908a7f83f" y="203.436711"/>
     <use style="fill:#d62728;stroke:#d62728;" x="268.62884" xlink:href="#m6908a7f83f" y="208.465485"/>
     <use style="fill:#d62728;stroke:#d62728;" x="279.124138" xlink:href="#m6908a7f83f" y="213.033285"/>
     <use style="fill:#d62728;stroke:#d62728;" x="289.619436" xlink:href="#m6908a7f83f" y="213.368538"/>
     <use style="fill:#d62728;stroke:#d62728;" x="300.114734" xlink:href="#m6908a7f83f" y="220.576445"/>
     <use style="fill:#d62728;stroke:#d62728;" x="310.610031" xlink:href="#m6908a7f83f" y="221.414574"/>
     <use style="fill:#d62728;stroke:#d62728;" x="321.105329" xlink:href="#m6908a7f83f" y="221.875548"/>
     <use style="fill:#d62728;stroke:#d62728;" x="331.600627" xlink:href="#m6908a7f83f" y="225.605219"/>
     <use style="fill:#d62728;stroke:#d62728;" x="342.095925" xlink:href="#m6908a7f83f" y="229.963494"/>
     <use style="fill:#d62728;stroke:#d62728;" x="352.591223" xlink:href="#m6908a7f83f" y="231.053057"/>
     <use style="fill:#d62728;stroke:#d62728;" x="363.08652" xlink:href="#m6908a7f83f" y="232.519783"/>
     <use style="fill:#d62728;stroke:#d62728;" x="373.581818" xlink:href="#m6908a7f83f" y="232.896945"/>
    </g>
   </g>
   <g id="line2d_16">
    <path clip-path="url(#p84fdc005dd)" d="M 69.218182 60.912891 
L 79.71348 60.912891 
L 90.208777 60.912891 
L 100.704075 60.912891 
L 111.199373 60.912891 
L 121.694671 60.912891 
L 132.189969 60.912891 
L 142.685266 60.912891 
L 153.180564 60.912891 
L 163.675862 60.912891 
L 174.17116 60.912891 
L 184.666458 60.912891 
L 195.161755 60.912891 
L 205.657053 60.912891 
L 216.152351 60.912891 
L 226.647649 60.912891 
L 237.142947 60.912891 
L 247.638245 60.912891 
L 258.133542 60.912891 
L 268.62884 60.912891 
L 279.124138 60.912891 
L 289.619436 60.912891 
L 300.114734 60.912891 
L 310.610031 60.912891 
L 321.105329 60.912891 
L 331.600627 60.912891 
L 342.095925 60.912891 
L 352.591223 60.912891 
L 363.08652 60.912891 
L 373.581818 60.912891 
" style="fill:none;stroke:#000000;stroke-linecap:square;stroke-opacity:0.5;stroke-width:1.5;"/>
   </g>
   <g id="patch_3">
    <path d="M 54 252 
L 54 34.56 
" style="fill:none;stroke:#000000;stroke-linecap:square;stroke-linejoin:miter;stroke-width:0.8;"/>
   </g>
   <g id="patch_4">
    <path d="M 388.8 252 
L 388.8 34.56 
" style="fill:none;stroke:#000000;stroke-linecap:square;stroke-linejoin:miter;stroke-width:0.8;"/>
   </g>
   <g id="patch_5">
    <path d="M 54 252 
L 388.8 252 
" style="fill:none;stroke:#000000;stroke-linecap:square;stroke-linejoin:miter;stroke-width:0.8;"/>
   </g>
   <g id="patch_6">
    <path d="M 54 34.56 
L 388.8 34.56 
" style="fill:none;stroke:#000000;stroke-linecap:square;stroke-linejoin:miter;stroke-width:0.8;"/>
   </g>
   <g id="text_14">
    <!-- Accuracy of pruned classifiers with noise -->
    <g transform="translate(98.99625 28.56)scale(0.12 -0.12)">
     <defs>
      <path id="DejaVuSans-32"/>
      <path d="M 37.109375 75.984375 
L 37.109375 68.5 
L 28.515625 68.5 
Q 23.6875 68.5 21.796875 66.546875 
Q 19.921875 64.59375 19.921875 59.515625 
L 19.921875 54.6875 
L 34.71875 54.6875 
L 34.71875 47.703125 
L 19.921875 47.703125 
L 19.921875 0 
L 10.890625 0 
L 10.890625 47.703125 
L 2.296875 47.703125 
L 2.296875 54.6875 
L 10.890625 54.6875 
L 10.890625 58.5 
Q 10.890625 67.625 15.140625 71.796875 
Q 19.390625 75.984375 28.609375 75.984375 
z
" id="DejaVuSans-102"/>
      <path d="M 18.109375 8.203125 
L 18.109375 -20.796875 
L 9.078125 -20.796875 
L 9.078125 54.6875 
L 18.109375 54.6875 
L 18.109375 46.390625 
Q 20.953125 51.265625 25.265625 53.625 
Q 29.59375 56 35.59375 56 
Q 45.5625 56 51.78125 48.09375 
Q 58.015625 40.1875 58.015625 27.296875 
Q 58.015625 14.40625 51.78125 6.484375 
Q 45.5625 -1.421875 35.59375 -1.421875 
Q 29.59375 -1.421875 25.265625 0.953125 
Q 20.953125 3.328125 18.109375 8.203125 
z
M 48.6875 27.296875 
Q 48.6875 37.203125 44.609375 42.84375 
Q 40.53125 48.484375 33.40625 48.484375 
Q 26.265625 48.484375 22.1875 42.84375 
Q 18.109375 37.203125 18.109375 27.296875 
Q 18.109375 17.390625 22.1875 11.75 
Q 26.265625 6.109375 33.40625 6.109375 
Q 40.53125 6.109375 44.609375 11.75 
Q 48.6875 17.390625 48.6875 27.296875 
z
" id="DejaVuSans-112"/>
      <path d="M 54.890625 33.015625 
L 54.890625 0 
L 45.90625 0 
L 45.90625 32.71875 
Q 45.90625 40.484375 42.875 44.328125 
Q 39.84375 48.1875 33.796875 48.1875 
Q 26.515625 48.1875 22.3125 43.546875 
Q 18.109375 38.921875 18.109375 30.90625 
L 18.109375 0 
L 9.078125 0 
L 9.078125 54.6875 
L 18.109375 54.6875 
L 18.109375 46.1875 
Q 21.34375 51.125 25.703125 53.5625 
Q 30.078125 56 35.796875 56 
Q 45.21875 56 50.046875 50.171875 
Q 54.890625 44.34375 54.890625 33.015625 
z
" id="DejaVuSans-110"/>
      <path d="M 45.40625 46.390625 
L 45.40625 75.984375 
L 54.390625 75.984375 
L 54.390625 0 
L 45.40625 0 
L 45.40625 8.203125 
Q 42.578125 3.328125 38.25 0.953125 
Q 33.9375 -1.421875 27.875 -1.421875 
Q 17.96875 -1.421875 11.734375 6.484375 
Q 5.515625 14.40625 5.515625 27.296875 
Q 5.515625 40.1875 11.734375 48.09375 
Q 17.96875 56 27.875 56 
Q 33.9375 56 38.25 53.625 
Q 42.578125 51.265625 45.40625 46.390625 
z
M 14.796875 27.296875 
Q 14.796875 17.390625 18.875 11.75 
Q 22.953125 6.109375 30.078125 6.109375 
Q 37.203125 6.109375 41.296875 11.75 
Q 45.40625 17.390625 45.40625 27.296875 
Q 45.40625 37.203125 41.296875 42.84375 
Q 37.203125 48.484375 30.078125 48.484375 
Q 22.953125 48.484375 18.875 42.84375 
Q 14.796875 37.203125 14.796875 27.296875 
z
" id="DejaVuSans-100"/>
      <path d="M 9.421875 75.984375 
L 18.40625 75.984375 
L 18.40625 0 
L 9.421875 0 
z
" id="DejaVuSans-108"/>
      <path d="M 4.203125 54.6875 
L 13.1875 54.6875 
L 24.421875 12.015625 
L 35.59375 54.6875 
L 46.1875 54.6875 
L 57.421875 12.015625 
L 68.609375 54.6875 
L 77.59375 54.6875 
L 63.28125 0 
L 52.6875 0 
L 40.921875 44.828125 
L 29.109375 0 
L 18.5 0 
z
" id="DejaVuSans-119"/>
      <path d="M 18.3125 70.21875 
L 18.3125 54.6875 
L 36.8125 54.6875 
L 36.8125 47.703125 
L 18.3125 47.703125 
L 18.3125 18.015625 
Q 18.3125 11.328125 20.140625 9.421875 
Q 21.96875 7.515625 27.59375 7.515625 
L 36.8125 7.515625 
L 36.8125 0 
L 27.59375 0 
Q 17.1875 0 13.234375 3.875 
Q 9.28125 7.765625 9.28125 18.015625 
L 9.28125 47.703125 
L 2.6875 47.703125 
L 2.6875 54.6875 
L 9.28125 54.6875 
L 9.28125 70.21875 
z
" id="DejaVuSans-116"/>
      <path d="M 54.890625 33.015625 
L 54.890625 0 
L 45.90625 0 
L 45.90625 32.71875 
Q 45.90625 40.484375 42.875 44.328125 
Q 39.84375 48.1875 33.796875 48.1875 
Q 26.515625 48.1875 22.3125 43.546875 
Q 18.109375 38.921875 18.109375 30.90625 
L 18.109375 0 
L 9.078125 0 
L 9.078125 75.984375 
L 18.109375 75.984375 
L 18.109375 46.1875 
Q 21.34375 51.125 25.703125 53.5625 
Q 30.078125 56 35.796875 56 
Q 45.21875 56 50.046875 50.171875 
Q 54.890625 44.34375 54.890625 33.015625 
z
" id="DejaVuSans-104"/>
     </defs>
     <use xlink:href="#DejaVuSans-65"/>
     <use x="66.658203" xlink:href="#DejaVuSans-99"/>
     <use x="121.638672" xlink:href="#DejaVuSans-99"/>
     <use x="176.619141" xlink:href="#DejaVuSans-117"/>
     <use x="239.998047" xlink:href="#DejaVuSans-114"/>
     <use x="281.111328" xlink:href="#DejaVuSans-97"/>
     <use x="342.390625" xlink:href="#DejaVuSans-99"/>
     <use x="397.371094" xlink:href="#DejaVuSans-121"/>
     <use x="456.550781" xlink:href="#DejaVuSans-32"/>
     <use x="488.337891" xlink:href="#DejaVuSans-111"/>
     <use x="549.519531" xlink:href="#DejaVuSans-102"/>
     <use x="584.724609" xlink:href="#DejaVuSans-32"/>
     <use x="616.511719" xlink:href="#DejaVuSans-112"/>
     <use x="679.988281" xlink:href="#DejaVuSans-114"/>
     <use x="721.101562" xlink:href="#DejaVuSans-117"/>
     <use x="784.480469" xlink:href="#DejaVuSans-110"/>
     <use x="847.859375" xlink:href="#DejaVuSans-101"/>
     <use x="909.382812" xlink:href="#DejaVuSans-100"/>
     <use x="972.859375" xlink:href="#DejaVuSans-32"/>
     <use x="1004.646484" xlink:href="#DejaVuSans-99"/>
     <use x="1059.626953" xlink:href="#DejaVuSans-108"/>
     <use x="1087.410156" xlink:href="#DejaVuSans-97"/>
     <use x="1148.689453" xlink:href="#DejaVuSans-115"/>
     <use x="1200.789062" xlink:href="#DejaVuSans-115"/>
     <use x="1252.888672" xlink:href="#DejaVuSans-105"/>
     <use x="1280.671875" xlink:href="#DejaVuSans-102"/>
     <use x="1315.876953" xlink:href="#DejaVuSans-105"/>
     <use x="1343.660156" xlink:href="#DejaVuSans-101"/>
     <use x="1405.183594" xlink:href="#DejaVuSans-114"/>
     <use x="1446.296875" xlink:href="#DejaVuSans-115"/>
     <use x="1498.396484" xlink:href="#DejaVuSans-32"/>
     <use x="1530.183594" xlink:href="#DejaVuSans-119"/>
     <use x="1611.970703" xlink:href="#DejaVuSans-105"/>
     <use x="1639.753906" xlink:href="#DejaVuSans-116"/>
     <use x="1678.962891" xlink:href="#DejaVuSans-104"/>
     <use x="1742.341797" xlink:href="#DejaVuSans-32"/>
     <use x="1774.128906" xlink:href="#DejaVuSans-110"/>
     <use x="1837.507812" xlink:href="#DejaVuSans-111"/>
     <use x="1898.689453" xlink:href="#DejaVuSans-105"/>
     <use x="1926.472656" xlink:href="#DejaVuSans-115"/>
     <use x="1978.572266" xlink:href="#DejaVuSans-101"/>
    </g>
   </g>
   <g id="legend_1">
    <g id="patch_7">
     <path d="M 205.289062 181.475313 
L 381.8 181.475313 
Q 383.8 181.475313 383.8 179.475313 
L 383.8 107.084688 
Q 383.8 105.084688 381.8 105.084688 
L 205.289062 105.084688 
Q 203.289062 105.084688 203.289062 107.084688 
L 203.289062 179.475313 
Q 203.289062 181.475313 205.289062 181.475313 
z
" style="fill:#ffffff;opacity:0.8;stroke:#cccccc;stroke-linejoin:miter;"/>
    </g>
    <g id="line2d_17">
     <path d="M 207.289062 113.183125 
L 227.289062 113.183125 
" style="fill:none;stroke:#1f77b4;stroke-linecap:square;stroke-width:1.5;"/>
    </g>
    <g id="line2d_18">
     <g>
      <use style="fill:#1f77b4;stroke:#1f77b4;" x="217.289062" xlink:href="#meef004f840" y="113.183125"/>
     </g>
    </g>
    <g id="text_15">
     <!-- Standard Pruning -->
     <g transform="translate(235.289062 116.683125)scale(0.1 -0.1)">
      <defs>
       <path d="M 53.515625 70.515625 
L 53.515625 60.890625 
Q 47.90625 63.578125 42.921875 64.890625 
Q 37.9375 66.21875 33.296875 66.21875 
Q 25.25 66.21875 20.875 63.09375 
Q 16.5 59.96875 16.5 54.203125 
Q 16.5 49.359375 19.40625 46.890625 
Q 22.3125 44.4375 30.421875 42.921875 
L 36.375 41.703125 
Q 47.40625 39.59375 52.65625 34.296875 
Q 57.90625 29 57.90625 20.125 
Q 57.90625 9.515625 50.796875 4.046875 
Q 43.703125 -1.421875 29.984375 -1.421875 
Q 24.8125 -1.421875 18.96875 -0.25 
Q 13.140625 0.921875 6.890625 3.21875 
L 6.890625 13.375 
Q 12.890625 10.015625 18.65625 8.296875 
Q 24.421875 6.59375 29.984375 6.59375 
Q 38.421875 6.59375 43.015625 9.90625 
Q 47.609375 13.234375 47.609375 19.390625 
Q 47.609375 24.75 44.3125 27.78125 
Q 41.015625 30.8125 33.5 32.328125 
L 27.484375 33.5 
Q 16.453125 35.6875 11.515625 40.375 
Q 6.59375 45.0625 6.59375 53.421875 
Q 6.59375 63.09375 13.40625 68.65625 
Q 20.21875 74.21875 32.171875 74.21875 
Q 37.3125 74.21875 42.625 73.28125 
Q 47.953125 72.359375 53.515625 70.515625 
z
" id="DejaVuSans-83"/>
       <path d="M 19.671875 64.796875 
L 19.671875 37.40625 
L 32.078125 37.40625 
Q 38.96875 37.40625 42.71875 40.96875 
Q 46.484375 44.53125 46.484375 51.125 
Q 46.484375 57.671875 42.71875 61.234375 
Q 38.96875 64.796875 32.078125 64.796875 
z
M 9.8125 72.90625 
L 32.078125 72.90625 
Q 44.34375 72.90625 50.609375 67.359375 
Q 56.890625 61.8125 56.890625 51.125 
Q 56.890625 40.328125 50.609375 34.8125 
Q 44.34375 29.296875 32.078125 29.296875 
L 19.671875 29.296875 
L 19.671875 0 
L 9.8125 0 
z
" id="DejaVuSans-80"/>
       <path d="M 45.40625 27.984375 
Q 45.40625 37.75 41.375 43.109375 
Q 37.359375 48.484375 30.078125 48.484375 
Q 22.859375 48.484375 18.828125 43.109375 
Q 14.796875 37.75 14.796875 27.984375 
Q 14.796875 18.265625 18.828125 12.890625 
Q 22.859375 7.515625 30.078125 7.515625 
Q 37.359375 7.515625 41.375 12.890625 
Q 45.40625 18.265625 45.40625 27.984375 
z
M 54.390625 6.78125 
Q 54.390625 -7.171875 48.1875 -13.984375 
Q 42 -20.796875 29.203125 -20.796875 
Q 24.46875 -20.796875 20.265625 -20.09375 
Q 16.0625 -19.390625 12.109375 -17.921875 
L 12.109375 -9.1875 
Q 16.0625 -11.328125 19.921875 -12.34375 
Q 23.78125 -13.375 27.78125 -13.375 
Q 36.625 -13.375 41.015625 -8.765625 
Q 45.40625 -4.15625 45.40625 5.171875 
L 45.40625 9.625 
Q 42.625 4.78125 38.28125 2.390625 
Q 33.9375 0 27.875 0 
Q 17.828125 0 11.671875 7.65625 
Q 5.515625 15.328125 5.515625 27.984375 
Q 5.515625 40.671875 11.671875 48.328125 
Q 17.828125 56 27.875 56 
Q 33.9375 56 38.28125 53.609375 
Q 42.625 51.21875 45.40625 46.390625 
L 45.40625 54.6875 
L 54.390625 54.6875 
z
" id="DejaVuSans-103"/>
      </defs>
      <use xlink:href="#DejaVuSans-83"/>
      <use x="63.476562" xlink:href="#DejaVuSans-116"/>
      <use x="102.685547" xlink:href="#DejaVuSans-97"/>
      <use x="163.964844" xlink:href="#DejaVuSans-110"/>
      <use x="227.34375" xlink:href="#DejaVuSans-100"/>
      <use x="290.820312" xlink:href="#DejaVuSans-97"/>
      <use x="352.099609" xlink:href="#DejaVuSans-114"/>
      <use x="391.462891" xlink:href="#DejaVuSans-100"/>
      <use x="454.939453" xlink:href="#DejaVuSans-32"/>
      <use x="486.726562" xlink:href="#DejaVuSans-80"/>
      <use x="545.279297" xlink:href="#DejaVuSans-114"/>
      <use x="586.392578" xlink:href="#DejaVuSans-117"/>
      <use x="649.771484" xlink:href="#DejaVuSans-110"/>
      <use x="713.150391" xlink:href="#DejaVuSans-105"/>
      <use x="740.933594" xlink:href="#DejaVuSans-110"/>
      <use x="804.3125" xlink:href="#DejaVuSans-103"/>
     </g>
    </g>
    <g id="line2d_19">
     <path d="M 207.289062 127.86125 
L 227.289062 127.86125 
" style="fill:none;stroke:#ff7f0e;stroke-linecap:square;stroke-width:1.5;"/>
    </g>
    <g id="line2d_20">
     <g>
      <use style="fill:#ff7f0e;stroke:#ff7f0e;" x="217.289062" xlink:href="#ma1d7b7cd63" y="127.86125"/>
     </g>
    </g>
    <g id="text_16">
     <!-- Weight evolution -->
     <g transform="translate(235.289062 131.36125)scale(0.1 -0.1)">
      <defs>
       <path d="M 3.328125 72.90625 
L 13.28125 72.90625 
L 28.609375 11.28125 
L 43.890625 72.90625 
L 54.984375 72.90625 
L 70.3125 11.28125 
L 85.59375 72.90625 
L 95.609375 72.90625 
L 77.296875 0 
L 64.890625 0 
L 49.515625 63.28125 
L 33.984375 0 
L 21.578125 0 
z
" id="DejaVuSans-87"/>
       <path d="M 2.984375 54.6875 
L 12.5 54.6875 
L 29.59375 8.796875 
L 46.6875 54.6875 
L 56.203125 54.6875 
L 35.6875 0 
L 23.484375 0 
z
" id="DejaVuSans-118"/>
      </defs>
      <use xlink:href="#DejaVuSans-87"/>
      <use x="93.001953" xlink:href="#DejaVuSans-101"/>
      <use x="154.525391" xlink:href="#DejaVuSans-105"/>
      <use x="182.308594" xlink:href="#DejaVuSans-103"/>
      <use x="245.785156" xlink:href="#DejaVuSans-104"/>
      <use x="309.164062" xlink:href="#DejaVuSans-116"/>
      <use x="348.373047" xlink:href="#DejaVuSans-32"/>
      <use x="380.160156" xlink:href="#DejaVuSans-101"/>
      <use x="441.683594" xlink:href="#DejaVuSans-118"/>
      <use x="500.863281" xlink:href="#DejaVuSans-111"/>
      <use x="562.044922" xlink:href="#DejaVuSans-108"/>
      <use x="589.828125" xlink:href="#DejaVuSans-117"/>
      <use x="653.207031" xlink:href="#DejaVuSans-116"/>
      <use x="692.416016" xlink:href="#DejaVuSans-105"/>
      <use x="720.199219" xlink:href="#DejaVuSans-111"/>
      <use x="781.380859" xlink:href="#DejaVuSans-110"/>
     </g>
    </g>
    <g id="line2d_21">
     <path d="M 207.289062 142.539375 
L 227.289062 142.539375 
" style="fill:none;stroke:#2ca02c;stroke-linecap:square;stroke-width:1.5;"/>
    </g>
    <g id="line2d_22">
     <g>
      <use style="fill:#2ca02c;stroke:#2ca02c;" x="217.289062" xlink:href="#mada592769a" y="142.539375"/>
     </g>
    </g>
    <g id="text_17">
     <!-- Curve on weight evolution -->
     <g transform="translate(235.289062 146.039375)scale(0.1 -0.1)">
      <defs>
       <path d="M 64.40625 67.28125 
L 64.40625 56.890625 
Q 59.421875 61.53125 53.78125 63.8125 
Q 48.140625 66.109375 41.796875 66.109375 
Q 29.296875 66.109375 22.65625 58.46875 
Q 16.015625 50.828125 16.015625 36.375 
Q 16.015625 21.96875 22.65625 14.328125 
Q 29.296875 6.6875 41.796875 6.6875 
Q 48.140625 6.6875 53.78125 8.984375 
Q 59.421875 11.28125 64.40625 15.921875 
L 64.40625 5.609375 
Q 59.234375 2.09375 53.4375 0.328125 
Q 47.65625 -1.421875 41.21875 -1.421875 
Q 24.65625 -1.421875 15.125 8.703125 
Q 5.609375 18.84375 5.609375 36.375 
Q 5.609375 53.953125 15.125 64.078125 
Q 24.65625 74.21875 41.21875 74.21875 
Q 47.75 74.21875 53.53125 72.484375 
Q 59.328125 70.75 64.40625 67.28125 
z
" id="DejaVuSans-67"/>
      </defs>
      <use xlink:href="#DejaVuSans-67"/>
      <use x="69.824219" xlink:href="#DejaVuSans-117"/>
      <use x="133.203125" xlink:href="#DejaVuSans-114"/>
      <use x="174.316406" xlink:href="#DejaVuSans-118"/>
      <use x="233.496094" xlink:href="#DejaVuSans-101"/>
      <use x="295.019531" xlink:href="#DejaVuSans-32"/>
      <use x="326.806641" xlink:href="#DejaVuSans-111"/>
      <use x="387.988281" xlink:href="#DejaVuSans-110"/>
      <use x="451.367188" xlink:href="#DejaVuSans-32"/>
      <use x="483.154297" xlink:href="#DejaVuSans-119"/>
      <use x="564.941406" xlink:href="#DejaVuSans-101"/>
      <use x="626.464844" xlink:href="#DejaVuSans-105"/>
      <use x="654.248047" xlink:href="#DejaVuSans-103"/>
      <use x="717.724609" xlink:href="#DejaVuSans-104"/>
      <use x="781.103516" xlink:href="#DejaVuSans-116"/>
      <use x="820.3125" xlink:href="#DejaVuSans-32"/>
      <use x="852.099609" xlink:href="#DejaVuSans-101"/>
      <use x="913.623047" xlink:href="#DejaVuSans-118"/>
      <use x="972.802734" xlink:href="#DejaVuSans-111"/>
      <use x="1033.984375" xlink:href="#DejaVuSans-108"/>
      <use x="1061.767578" xlink:href="#DejaVuSans-117"/>
      <use x="1125.146484" xlink:href="#DejaVuSans-116"/>
      <use x="1164.355469" xlink:href="#DejaVuSans-105"/>
      <use x="1192.138672" xlink:href="#DejaVuSans-111"/>
      <use x="1253.320312" xlink:href="#DejaVuSans-110"/>
     </g>
    </g>
    <g id="line2d_23">
     <path d="M 207.289062 157.2175 
L 227.289062 157.2175 
" style="fill:none;stroke:#d62728;stroke-linecap:square;stroke-width:1.5;"/>
    </g>
    <g id="line2d_24">
     <g>
      <use style="fill:#d62728;stroke:#d62728;" x="217.289062" xlink:href="#m6908a7f83f" y="157.2175"/>
     </g>
    </g>
    <g id="text_18">
     <!-- Curve on weight magnitudes -->
     <g transform="translate(235.289062 160.7175)scale(0.1 -0.1)">
      <defs>
       <path d="M 52 44.1875 
Q 55.375 50.25 60.0625 53.125 
Q 64.75 56 71.09375 56 
Q 79.640625 56 84.28125 50.015625 
Q 88.921875 44.046875 88.921875 33.015625 
L 88.921875 0 
L 79.890625 0 
L 79.890625 32.71875 
Q 79.890625 40.578125 77.09375 44.375 
Q 74.3125 48.1875 68.609375 48.1875 
Q 61.625 48.1875 57.5625 43.546875 
Q 53.515625 38.921875 53.515625 30.90625 
L 53.515625 0 
L 44.484375 0 
L 44.484375 32.71875 
Q 44.484375 40.625 41.703125 44.40625 
Q 38.921875 48.1875 33.109375 48.1875 
Q 26.21875 48.1875 22.15625 43.53125 
Q 18.109375 38.875 18.109375 30.90625 
L 18.109375 0 
L 9.078125 0 
L 9.078125 54.6875 
L 18.109375 54.6875 
L 18.109375 46.1875 
Q 21.1875 51.21875 25.484375 53.609375 
Q 29.78125 56 35.6875 56 
Q 41.65625 56 45.828125 52.96875 
Q 50 49.953125 52 44.1875 
z
" id="DejaVuSans-109"/>
      </defs>
      <use xlink:href="#DejaVuSans-67"/>
      <use x="69.824219" xlink:href="#DejaVuSans-117"/>
      <use x="133.203125" xlink:href="#DejaVuSans-114"/>
      <use x="174.316406" xlink:href="#DejaVuSans-118"/>
      <use x="233.496094" xlink:href="#DejaVuSans-101"/>
      <use x="295.019531" xlink:href="#DejaVuSans-32"/>
      <use x="326.806641" xlink:href="#DejaVuSans-111"/>
      <use x="387.988281" xlink:href="#DejaVuSans-110"/>
      <use x="451.367188" xlink:href="#DejaVuSans-32"/>
      <use x="483.154297" xlink:href="#DejaVuSans-119"/>
      <use x="564.941406" xlink:href="#DejaVuSans-101"/>
      <use x="626.464844" xlink:href="#DejaVuSans-105"/>
      <use x="654.248047" xlink:href="#DejaVuSans-103"/>
      <use x="717.724609" xlink:href="#DejaVuSans-104"/>
      <use x="781.103516" xlink:href="#DejaVuSans-116"/>
      <use x="820.3125" xlink:href="#DejaVuSans-32"/>
      <use x="852.099609" xlink:href="#DejaVuSans-109"/>
      <use x="949.511719" xlink:href="#DejaVuSans-97"/>
      <use x="1010.791016" xlink:href="#DejaVuSans-103"/>
      <use x="1074.267578" xlink:href="#DejaVuSans-110"/>
      <use x="1137.646484" xlink:href="#DejaVuSans-105"/>
      <use x="1165.429688" xlink:href="#DejaVuSans-116"/>
      <use x="1204.638672" xlink:href="#DejaVuSans-117"/>
      <use x="1268.017578" xlink:href="#DejaVuSans-100"/>
      <use x="1331.494141" xlink:href="#DejaVuSans-101"/>
      <use x="1393.017578" xlink:href="#DejaVuSans-115"/>
     </g>
    </g>
    <g id="line2d_25">
     <path d="M 207.289062 171.895625 
L 227.289062 171.895625 
" style="fill:none;stroke:#000000;stroke-linecap:square;stroke-opacity:0.5;stroke-width:1.5;"/>
    </g>
    <g id="line2d_26"/>
    <g id="text_19">
     <!-- Baseline -->
     <g transform="translate(235.289062 175.395625)scale(0.1 -0.1)">
      <defs>
       <path d="M 19.671875 34.8125 
L 19.671875 8.109375 
L 35.5 8.109375 
Q 43.453125 8.109375 47.28125 11.40625 
Q 51.125 14.703125 51.125 21.484375 
Q 51.125 28.328125 47.28125 31.5625 
Q 43.453125 34.8125 35.5 34.8125 
z
M 19.671875 64.796875 
L 19.671875 42.828125 
L 34.28125 42.828125 
Q 41.5 42.828125 45.03125 45.53125 
Q 48.578125 48.25 48.578125 53.8125 
Q 48.578125 59.328125 45.03125 62.0625 
Q 41.5 64.796875 34.28125 64.796875 
z
M 9.8125 72.90625 
L 35.015625 72.90625 
Q 46.296875 72.90625 52.390625 68.21875 
Q 58.5 63.53125 58.5 54.890625 
Q 58.5 48.1875 55.375 44.234375 
Q 52.25 40.28125 46.1875 39.3125 
Q 53.46875 37.75 57.5 32.78125 
Q 61.53125 27.828125 61.53125 20.40625 
Q 61.53125 10.640625 54.890625 5.3125 
Q 48.25 0 35.984375 0 
L 9.8125 0 
z
" id="DejaVuSans-66"/>
      </defs>
      <use xlink:href="#DejaVuSans-66"/>
      <use x="68.603516" xlink:href="#DejaVuSans-97"/>
      <use x="129.882812" xlink:href="#DejaVuSans-115"/>
      <use x="181.982422" xlink:href="#DejaVuSans-101"/>
      <use x="243.505859" xlink:href="#DejaVuSans-108"/>
      <use x="271.289062" xlink:href="#DejaVuSans-105"/>
      <use x="299.072266" xlink:href="#DejaVuSans-110"/>
      <use x="362.451172" xlink:href="#DejaVuSans-101"/>
     </g>
    </g>
   </g>
  </g>
 </g>
 <defs>
  <clipPath id="p84fdc005dd">
   <rect height="217.44" width="334.8" x="54" y="34.56"/>
  </clipPath>
 </defs>
</svg>
