<?xml version="1.0" encoding="utf-8" standalone="no"?>
<!DOCTYPE svg PUBLIC "-//W3C//DTD SVG 1.1//EN"
  "http://www.w3.org/Graphics/SVG/1.1/DTD/svg11.dtd">
<svg height="720pt" version="1.1" viewBox="0 0 576 720" width="576pt" xmlns="http://www.w3.org/2000/svg" xmlns:xlink="http://www.w3.org/1999/xlink">
 <metadata>
  <rdf:RDF xmlns:cc="http://creativecommons.org/ns#" xmlns:dc="http://purl.org/dc/elements/1.1/" xmlns:rdf="http://www.w3.org/1999/02/22-rdf-syntax-ns#">
   <cc:Work>
    <dc:type rdf:resource="http://purl.org/dc/dcmitype/StillImage"/>
    <dc:date>2022-01-01T15:22:57.745883</dc:date>
    <dc:format>image/svg+xml</dc:format>
    <dc:creator>
     <cc:Agent>
      <dc:title>Matplotlib v3.4.2, https://matplotlib.org/</dc:title>
     </cc:Agent>
    </dc:creator>
   </cc:Work>
  </rdf:RDF>
 </metadata>
 <defs>
  <style type="text/css">*{stroke-linecap:butt;stroke-linejoin:round;}</style>
 </defs>
 <g id="figure_1">
  <g id="patch_1">
   <path d="M 0 720 
L 576 720 
L 576 0 
L 0 0 
z
" style="fill:none;"/>
  </g>
  <g id="axes_1">
   <g id="patch_2">
    <path d="M 40.175 181.006421 
L 281.0375 181.006421 
L 281.0375 38.408561 
L 40.175 38.408561 
z
" style="fill:#ffffff;"/>
   </g>
   <g id="matplotlib.axis_1">
    <g id="xtick_1">
     <g id="line2d_1">
      <defs>
       <path d="M 0 0 
L 0 3.5 
" id="md9f5f535ea" style="stroke:#000000;stroke-width:0.8;"/>
      </defs>
      <g>
       <use style="stroke:#000000;stroke-width:0.8;" x="66.760256" xlink:href="#md9f5f535ea" y="181.006421"/>
      </g>
     </g>
     <g id="text_1">
      <!-- −0.10 -->
      <g transform="translate(51.4376 195.604859)scale(0.1 -0.1)">
       <defs>
        <path d="M 678 2272 
L 4684 2272 
L 4684 1741 
L 678 1741 
L 678 2272 
z
" id="DejaVuSans-2212" transform="scale(0.015625)"/>
        <path d="M 2034 4250 
Q 1547 4250 1301 3770 
Q 1056 3291 1056 2328 
Q 1056 1369 1301 889 
Q 1547 409 2034 409 
Q 2525 409 2770 889 
Q 3016 1369 3016 2328 
Q 3016 3291 2770 3770 
Q 2525 4250 2034 4250 
z
M 2034 4750 
Q 2819 4750 3233 4129 
Q 3647 3509 3647 2328 
Q 3647 1150 3233 529 
Q 2819 -91 2034 -91 
Q 1250 -91 836 529 
Q 422 1150 422 2328 
Q 422 3509 836 4129 
Q 1250 4750 2034 4750 
z
" id="DejaVuSans-30" transform="scale(0.015625)"/>
        <path d="M 684 794 
L 1344 794 
L 1344 0 
L 684 0 
L 684 794 
z
" id="DejaVuSans-2e" transform="scale(0.015625)"/>
        <path d="M 794 531 
L 1825 531 
L 1825 4091 
L 703 3866 
L 703 4441 
L 1819 4666 
L 2450 4666 
L 2450 531 
L 3481 531 
L 3481 0 
L 794 0 
L 794 531 
z
" id="DejaVuSans-31" transform="scale(0.015625)"/>
       </defs>
       <use xlink:href="#DejaVuSans-2212"/>
       <use x="83.789062" xlink:href="#DejaVuSans-30"/>
       <use x="147.412109" xlink:href="#DejaVuSans-2e"/>
       <use x="179.199219" xlink:href="#DejaVuSans-31"/>
       <use x="242.822266" xlink:href="#DejaVuSans-30"/>
      </g>
     </g>
    </g>
    <g id="xtick_2">
     <g id="line2d_2">
      <g>
       <use style="stroke:#000000;stroke-width:0.8;" x="110.45245" xlink:href="#md9f5f535ea" y="181.006421"/>
      </g>
     </g>
     <g id="text_2">
      <!-- −0.05 -->
      <g transform="translate(95.129794 195.604859)scale(0.1 -0.1)">
       <defs>
        <path d="M 691 4666 
L 3169 4666 
L 3169 4134 
L 1269 4134 
L 1269 2991 
Q 1406 3038 1543 3061 
Q 1681 3084 1819 3084 
Q 2600 3084 3056 2656 
Q 3513 2228 3513 1497 
Q 3513 744 3044 326 
Q 2575 -91 1722 -91 
Q 1428 -91 1123 -41 
Q 819 9 494 109 
L 494 744 
Q 775 591 1075 516 
Q 1375 441 1709 441 
Q 2250 441 2565 725 
Q 2881 1009 2881 1497 
Q 2881 1984 2565 2268 
Q 2250 2553 1709 2553 
Q 1456 2553 1204 2497 
Q 953 2441 691 2322 
L 691 4666 
z
" id="DejaVuSans-35" transform="scale(0.015625)"/>
       </defs>
       <use xlink:href="#DejaVuSans-2212"/>
       <use x="83.789062" xlink:href="#DejaVuSans-30"/>
       <use x="147.412109" xlink:href="#DejaVuSans-2e"/>
       <use x="179.199219" xlink:href="#DejaVuSans-30"/>
       <use x="242.822266" xlink:href="#DejaVuSans-35"/>
      </g>
     </g>
    </g>
    <g id="xtick_3">
     <g id="line2d_3">
      <g>
       <use style="stroke:#000000;stroke-width:0.8;" x="154.144644" xlink:href="#md9f5f535ea" y="181.006421"/>
      </g>
     </g>
     <g id="text_3">
      <!-- 0.00 -->
      <g transform="translate(143.011831 195.604859)scale(0.1 -0.1)">
       <use xlink:href="#DejaVuSans-30"/>
       <use x="63.623047" xlink:href="#DejaVuSans-2e"/>
       <use x="95.410156" xlink:href="#DejaVuSans-30"/>
       <use x="159.033203" xlink:href="#DejaVuSans-30"/>
      </g>
     </g>
    </g>
    <g id="xtick_4">
     <g id="line2d_4">
      <g>
       <use style="stroke:#000000;stroke-width:0.8;" x="197.836838" xlink:href="#md9f5f535ea" y="181.006421"/>
      </g>
     </g>
     <g id="text_4">
      <!-- 0.05 -->
      <g transform="translate(186.704025 195.604859)scale(0.1 -0.1)">
       <use xlink:href="#DejaVuSans-30"/>
       <use x="63.623047" xlink:href="#DejaVuSans-2e"/>
       <use x="95.410156" xlink:href="#DejaVuSans-30"/>
       <use x="159.033203" xlink:href="#DejaVuSans-35"/>
      </g>
     </g>
    </g>
    <g id="xtick_5">
     <g id="line2d_5">
      <g>
       <use style="stroke:#000000;stroke-width:0.8;" x="241.529032" xlink:href="#md9f5f535ea" y="181.006421"/>
      </g>
     </g>
     <g id="text_5">
      <!-- 0.10 -->
      <g transform="translate(230.396219 195.604859)scale(0.1 -0.1)">
       <use xlink:href="#DejaVuSans-30"/>
       <use x="63.623047" xlink:href="#DejaVuSans-2e"/>
       <use x="95.410156" xlink:href="#DejaVuSans-31"/>
       <use x="159.033203" xlink:href="#DejaVuSans-30"/>
      </g>
     </g>
    </g>
   </g>
   <g id="matplotlib.axis_2">
    <g id="ytick_1">
     <g id="line2d_6">
      <defs>
       <path d="M 0 0 
L -3.5 0 
" id="m1bf031ef01" style="stroke:#000000;stroke-width:0.8;"/>
      </defs>
      <g>
       <use style="stroke:#000000;stroke-width:0.8;" x="40.175" xlink:href="#m1bf031ef01" y="174.5247"/>
      </g>
     </g>
     <g id="text_6">
      <!-- 0.0 -->
      <g transform="translate(17.271875 178.323919)scale(0.1 -0.1)">
       <use xlink:href="#DejaVuSans-30"/>
       <use x="63.623047" xlink:href="#DejaVuSans-2e"/>
       <use x="95.410156" xlink:href="#DejaVuSans-30"/>
      </g>
     </g>
    </g>
    <g id="ytick_2">
     <g id="line2d_7">
      <g>
       <use style="stroke:#000000;stroke-width:0.8;" x="40.175" xlink:href="#m1bf031ef01" y="148.597817"/>
      </g>
     </g>
     <g id="text_7">
      <!-- 0.2 -->
      <g transform="translate(17.271875 152.397035)scale(0.1 -0.1)">
       <defs>
        <path d="M 1228 531 
L 3431 531 
L 3431 0 
L 469 0 
L 469 531 
Q 828 903 1448 1529 
Q 2069 2156 2228 2338 
Q 2531 2678 2651 2914 
Q 2772 3150 2772 3378 
Q 2772 3750 2511 3984 
Q 2250 4219 1831 4219 
Q 1534 4219 1204 4116 
Q 875 4013 500 3803 
L 500 4441 
Q 881 4594 1212 4672 
Q 1544 4750 1819 4750 
Q 2544 4750 2975 4387 
Q 3406 4025 3406 3419 
Q 3406 3131 3298 2873 
Q 3191 2616 2906 2266 
Q 2828 2175 2409 1742 
Q 1991 1309 1228 531 
z
" id="DejaVuSans-32" transform="scale(0.015625)"/>
       </defs>
       <use xlink:href="#DejaVuSans-30"/>
       <use x="63.623047" xlink:href="#DejaVuSans-2e"/>
       <use x="95.410156" xlink:href="#DejaVuSans-32"/>
      </g>
     </g>
    </g>
    <g id="ytick_3">
     <g id="line2d_8">
      <g>
       <use style="stroke:#000000;stroke-width:0.8;" x="40.175" xlink:href="#m1bf031ef01" y="122.670933"/>
      </g>
     </g>
     <g id="text_8">
      <!-- 0.4 -->
      <g transform="translate(17.271875 126.470152)scale(0.1 -0.1)">
       <defs>
        <path d="M 2419 4116 
L 825 1625 
L 2419 1625 
L 2419 4116 
z
M 2253 4666 
L 3047 4666 
L 3047 1625 
L 3713 1625 
L 3713 1100 
L 3047 1100 
L 3047 0 
L 2419 0 
L 2419 1100 
L 313 1100 
L 313 1709 
L 2253 4666 
z
" id="DejaVuSans-34" transform="scale(0.015625)"/>
       </defs>
       <use xlink:href="#DejaVuSans-30"/>
       <use x="63.623047" xlink:href="#DejaVuSans-2e"/>
       <use x="95.410156" xlink:href="#DejaVuSans-34"/>
      </g>
     </g>
    </g>
    <g id="ytick_4">
     <g id="line2d_9">
      <g>
       <use style="stroke:#000000;stroke-width:0.8;" x="40.175" xlink:href="#m1bf031ef01" y="96.744049"/>
      </g>
     </g>
     <g id="text_9">
      <!-- 0.6 -->
      <g transform="translate(17.271875 100.543268)scale(0.1 -0.1)">
       <defs>
        <path d="M 2113 2584 
Q 1688 2584 1439 2293 
Q 1191 2003 1191 1497 
Q 1191 994 1439 701 
Q 1688 409 2113 409 
Q 2538 409 2786 701 
Q 3034 994 3034 1497 
Q 3034 2003 2786 2293 
Q 2538 2584 2113 2584 
z
M 3366 4563 
L 3366 3988 
Q 3128 4100 2886 4159 
Q 2644 4219 2406 4219 
Q 1781 4219 1451 3797 
Q 1122 3375 1075 2522 
Q 1259 2794 1537 2939 
Q 1816 3084 2150 3084 
Q 2853 3084 3261 2657 
Q 3669 2231 3669 1497 
Q 3669 778 3244 343 
Q 2819 -91 2113 -91 
Q 1303 -91 875 529 
Q 447 1150 447 2328 
Q 447 3434 972 4092 
Q 1497 4750 2381 4750 
Q 2619 4750 2861 4703 
Q 3103 4656 3366 4563 
z
" id="DejaVuSans-36" transform="scale(0.015625)"/>
       </defs>
       <use xlink:href="#DejaVuSans-30"/>
       <use x="63.623047" xlink:href="#DejaVuSans-2e"/>
       <use x="95.410156" xlink:href="#DejaVuSans-36"/>
      </g>
     </g>
    </g>
    <g id="ytick_5">
     <g id="line2d_10">
      <g>
       <use style="stroke:#000000;stroke-width:0.8;" x="40.175" xlink:href="#m1bf031ef01" y="70.817166"/>
      </g>
     </g>
     <g id="text_10">
      <!-- 0.8 -->
      <g transform="translate(17.271875 74.616385)scale(0.1 -0.1)">
       <defs>
        <path d="M 2034 2216 
Q 1584 2216 1326 1975 
Q 1069 1734 1069 1313 
Q 1069 891 1326 650 
Q 1584 409 2034 409 
Q 2484 409 2743 651 
Q 3003 894 3003 1313 
Q 3003 1734 2745 1975 
Q 2488 2216 2034 2216 
z
M 1403 2484 
Q 997 2584 770 2862 
Q 544 3141 544 3541 
Q 544 4100 942 4425 
Q 1341 4750 2034 4750 
Q 2731 4750 3128 4425 
Q 3525 4100 3525 3541 
Q 3525 3141 3298 2862 
Q 3072 2584 2669 2484 
Q 3125 2378 3379 2068 
Q 3634 1759 3634 1313 
Q 3634 634 3220 271 
Q 2806 -91 2034 -91 
Q 1263 -91 848 271 
Q 434 634 434 1313 
Q 434 1759 690 2068 
Q 947 2378 1403 2484 
z
M 1172 3481 
Q 1172 3119 1398 2916 
Q 1625 2713 2034 2713 
Q 2441 2713 2670 2916 
Q 2900 3119 2900 3481 
Q 2900 3844 2670 4047 
Q 2441 4250 2034 4250 
Q 1625 4250 1398 4047 
Q 1172 3844 1172 3481 
z
" id="DejaVuSans-38" transform="scale(0.015625)"/>
       </defs>
       <use xlink:href="#DejaVuSans-30"/>
       <use x="63.623047" xlink:href="#DejaVuSans-2e"/>
       <use x="95.410156" xlink:href="#DejaVuSans-38"/>
      </g>
     </g>
    </g>
    <g id="ytick_6">
     <g id="line2d_11">
      <g>
       <use style="stroke:#000000;stroke-width:0.8;" x="40.175" xlink:href="#m1bf031ef01" y="44.890282"/>
      </g>
     </g>
     <g id="text_11">
      <!-- 1.0 -->
      <g transform="translate(17.271875 48.689501)scale(0.1 -0.1)">
       <use xlink:href="#DejaVuSans-31"/>
       <use x="63.623047" xlink:href="#DejaVuSans-2e"/>
       <use x="95.410156" xlink:href="#DejaVuSans-30"/>
      </g>
     </g>
    </g>
   </g>
   <g id="line2d_12">
    <path clip-path="url(#p2352ca3f9a)" d="M 51.123295 174.142072 
L 55.591987 174.448175 
L 60.060678 174.218598 
L 64.52937 174.448175 
L 68.998061 174.295123 
L 73.466759 174.295123 
L 77.93545 173.912495 
L 82.404141 173.453341 
L 86.872833 173.759444 
L 91.341524 172.611559 
L 95.810216 171.769777 
L 100.27891 170.621893 
L 104.747602 167.484342 
L 109.216293 165.647727 
L 113.684984 158.76042 
L 118.153679 145.138858 
L 122.62237 92.795327 
L 127.091062 67.847971 
L 131.559755 60.731088 
L 136.028446 55.221242 
L 140.497138 55.756922 
L 144.96583 50.553179 
L 149.434522 44.890282 
L 153.903215 51.394961 
L 158.371907 47.415628 
L 162.840599 45.196385 
L 167.309291 52.236743 
L 171.777983 57.057858 
L 176.246675 67.312292 
L 180.715368 76.342316 
L 185.184059 131.746873 
L 189.65275 151.796588 
L 194.121445 157.842113 
L 198.590136 164.805945 
L 203.058828 168.479175 
L 207.527519 170.85147 
L 211.99621 172.228931 
L 216.464902 173.147239 
L 220.9336 173.682918 
L 225.402291 173.989021 
L 229.870982 174.065546 
L 234.339674 174.295123 
L 238.808365 174.448175 
L 243.277056 174.5247 
L 247.745748 174.448175 
L 252.214439 174.371649 
L 256.683137 174.5247 
L 261.151828 174.371649 
L 265.62052 174.5247 
L 270.089205 174.448175 
" style="fill:none;stroke:#1f77b4;stroke-linecap:square;stroke-width:1.5;"/>
   </g>
   <g id="line2d_13">
    <path clip-path="url(#p2352ca3f9a)" d="M 51.123295 174.5247 
L 55.591987 158.9862 
L 60.060678 144.741793 
L 64.52937 131.735215 
L 68.998061 119.9102 
L 73.466759 109.210484 
L 77.93545 99.579802 
L 82.404141 90.961889 
L 86.872833 83.30048 
L 91.341524 76.53931 
L 95.810216 70.622114 
L 100.27891 65.492627 
L 104.747602 61.094585 
L 109.216293 57.371721 
L 113.684984 54.267772 
L 118.153679 51.726472 
L 122.62237 49.691557 
L 127.091062 48.106761 
L 131.559755 46.91582 
L 136.028446 46.062469 
L 140.497138 45.490442 
L 144.96583 45.143475 
L 149.434522 44.965302 
L 153.903215 44.89966 
L 158.371907 44.890282 
L 162.840599 44.890282 
L 167.309291 44.89966 
L 171.777983 44.965302 
L 176.246675 45.143475 
L 180.715368 45.490442 
L 185.184059 46.062469 
L 189.65275 46.91582 
L 194.121445 48.106761 
L 198.590136 49.691557 
L 203.058828 51.726472 
L 207.527519 54.267772 
L 211.99621 57.371721 
L 216.464902 61.094585 
L 220.9336 65.492627 
L 225.402291 70.622114 
L 229.870982 76.53931 
L 234.339674 83.30048 
L 238.808365 90.961889 
L 243.277056 99.579802 
L 247.745748 109.210484 
L 252.214439 119.9102 
L 256.683137 131.735215 
L 261.151828 144.741793 
L 265.62052 158.9862 
L 270.089205 174.5247 
" style="fill:none;stroke:#ff7f0e;stroke-linecap:square;stroke-width:1.5;"/>
   </g>
   <g id="patch_3">
    <path d="M 40.175 181.006421 
L 40.175 38.408561 
" style="fill:none;stroke:#000000;stroke-linecap:square;stroke-linejoin:miter;stroke-width:0.8;"/>
   </g>
   <g id="patch_4">
    <path d="M 281.0375 181.006421 
L 281.0375 38.408561 
" style="fill:none;stroke:#000000;stroke-linecap:square;stroke-linejoin:miter;stroke-width:0.8;"/>
   </g>
   <g id="patch_5">
    <path d="M 40.175 181.006421 
L 281.0375 181.006421 
" style="fill:none;stroke:#000000;stroke-linecap:square;stroke-linejoin:miter;stroke-width:0.8;"/>
   </g>
   <g id="patch_6">
    <path d="M 40.175 38.408561 
L 281.0375 38.408561 
" style="fill:none;stroke:#000000;stroke-linecap:square;stroke-linejoin:miter;stroke-width:0.8;"/>
   </g>
  </g>
  <g id="axes_2">
   <g id="patch_7">
    <path d="M 324.3375 181.006421 
L 565.2 181.006421 
L 565.2 38.408561 
L 324.3375 38.408561 
z
" style="fill:#ffffff;"/>
   </g>
   <g id="matplotlib.axis_3">
    <g id="xtick_6">
     <g id="line2d_14">
      <g>
       <use style="stroke:#000000;stroke-width:0.8;" x="350.922756" xlink:href="#md9f5f535ea" y="181.006421"/>
      </g>
     </g>
     <g id="text_12">
      <!-- −0.10 -->
      <g transform="translate(335.6001 195.604859)scale(0.1 -0.1)">
       <use xlink:href="#DejaVuSans-2212"/>
       <use x="83.789062" xlink:href="#DejaVuSans-30"/>
       <use x="147.412109" xlink:href="#DejaVuSans-2e"/>
       <use x="179.199219" xlink:href="#DejaVuSans-31"/>
       <use x="242.822266" xlink:href="#DejaVuSans-30"/>
      </g>
     </g>
    </g>
    <g id="xtick_7">
     <g id="line2d_15">
      <g>
       <use style="stroke:#000000;stroke-width:0.8;" x="394.61495" xlink:href="#md9f5f535ea" y="181.006421"/>
      </g>
     </g>
     <g id="text_13">
      <!-- −0.05 -->
      <g transform="translate(379.292294 195.604859)scale(0.1 -0.1)">
       <use xlink:href="#DejaVuSans-2212"/>
       <use x="83.789062" xlink:href="#DejaVuSans-30"/>
       <use x="147.412109" xlink:href="#DejaVuSans-2e"/>
       <use x="179.199219" xlink:href="#DejaVuSans-30"/>
       <use x="242.822266" xlink:href="#DejaVuSans-35"/>
      </g>
     </g>
    </g>
    <g id="xtick_8">
     <g id="line2d_16">
      <g>
       <use style="stroke:#000000;stroke-width:0.8;" x="438.307144" xlink:href="#md9f5f535ea" y="181.006421"/>
      </g>
     </g>
     <g id="text_14">
      <!-- 0.00 -->
      <g transform="translate(427.174331 195.604859)scale(0.1 -0.1)">
       <use xlink:href="#DejaVuSans-30"/>
       <use x="63.623047" xlink:href="#DejaVuSans-2e"/>
       <use x="95.410156" xlink:href="#DejaVuSans-30"/>
       <use x="159.033203" xlink:href="#DejaVuSans-30"/>
      </g>
     </g>
    </g>
    <g id="xtick_9">
     <g id="line2d_17">
      <g>
       <use style="stroke:#000000;stroke-width:0.8;" x="481.999338" xlink:href="#md9f5f535ea" y="181.006421"/>
      </g>
     </g>
     <g id="text_15">
      <!-- 0.05 -->
      <g transform="translate(470.866525 195.604859)scale(0.1 -0.1)">
       <use xlink:href="#DejaVuSans-30"/>
       <use x="63.623047" xlink:href="#DejaVuSans-2e"/>
       <use x="95.410156" xlink:href="#DejaVuSans-30"/>
       <use x="159.033203" xlink:href="#DejaVuSans-35"/>
      </g>
     </g>
    </g>
    <g id="xtick_10">
     <g id="line2d_18">
      <g>
       <use style="stroke:#000000;stroke-width:0.8;" x="525.691532" xlink:href="#md9f5f535ea" y="181.006421"/>
      </g>
     </g>
     <g id="text_16">
      <!-- 0.10 -->
      <g transform="translate(514.558719 195.604859)scale(0.1 -0.1)">
       <use xlink:href="#DejaVuSans-30"/>
       <use x="63.623047" xlink:href="#DejaVuSans-2e"/>
       <use x="95.410156" xlink:href="#DejaVuSans-31"/>
       <use x="159.033203" xlink:href="#DejaVuSans-30"/>
      </g>
     </g>
    </g>
   </g>
   <g id="matplotlib.axis_4">
    <g id="ytick_7">
     <g id="line2d_19">
      <g>
       <use style="stroke:#000000;stroke-width:0.8;" x="324.3375" xlink:href="#m1bf031ef01" y="174.5247"/>
      </g>
     </g>
     <g id="text_17">
      <!-- 0 -->
      <g transform="translate(310.975 178.323919)scale(0.1 -0.1)">
       <use xlink:href="#DejaVuSans-30"/>
      </g>
     </g>
    </g>
    <g id="ytick_8">
     <g id="line2d_20">
      <g>
       <use style="stroke:#000000;stroke-width:0.8;" x="324.3375" xlink:href="#m1bf031ef01" y="151.877178"/>
      </g>
     </g>
     <g id="text_18">
      <!-- 250 -->
      <g transform="translate(298.25 155.676397)scale(0.1 -0.1)">
       <use xlink:href="#DejaVuSans-32"/>
       <use x="63.623047" xlink:href="#DejaVuSans-35"/>
       <use x="127.246094" xlink:href="#DejaVuSans-30"/>
      </g>
     </g>
    </g>
    <g id="ytick_9">
     <g id="line2d_21">
      <g>
       <use style="stroke:#000000;stroke-width:0.8;" x="324.3375" xlink:href="#m1bf031ef01" y="129.229655"/>
      </g>
     </g>
     <g id="text_19">
      <!-- 500 -->
      <g transform="translate(298.25 133.028874)scale(0.1 -0.1)">
       <use xlink:href="#DejaVuSans-35"/>
       <use x="63.623047" xlink:href="#DejaVuSans-30"/>
       <use x="127.246094" xlink:href="#DejaVuSans-30"/>
      </g>
     </g>
    </g>
    <g id="ytick_10">
     <g id="line2d_22">
      <g>
       <use style="stroke:#000000;stroke-width:0.8;" x="324.3375" xlink:href="#m1bf031ef01" y="106.582133"/>
      </g>
     </g>
     <g id="text_20">
      <!-- 750 -->
      <g transform="translate(298.25 110.381352)scale(0.1 -0.1)">
       <defs>
        <path d="M 525 4666 
L 3525 4666 
L 3525 4397 
L 1831 0 
L 1172 0 
L 2766 4134 
L 525 4134 
L 525 4666 
z
" id="DejaVuSans-37" transform="scale(0.015625)"/>
       </defs>
       <use xlink:href="#DejaVuSans-37"/>
       <use x="63.623047" xlink:href="#DejaVuSans-35"/>
       <use x="127.246094" xlink:href="#DejaVuSans-30"/>
      </g>
     </g>
    </g>
    <g id="ytick_11">
     <g id="line2d_23">
      <g>
       <use style="stroke:#000000;stroke-width:0.8;" x="324.3375" xlink:href="#m1bf031ef01" y="83.934611"/>
      </g>
     </g>
     <g id="text_21">
      <!-- 1000 -->
      <g transform="translate(291.8875 87.73383)scale(0.1 -0.1)">
       <use xlink:href="#DejaVuSans-31"/>
       <use x="63.623047" xlink:href="#DejaVuSans-30"/>
       <use x="127.246094" xlink:href="#DejaVuSans-30"/>
       <use x="190.869141" xlink:href="#DejaVuSans-30"/>
      </g>
     </g>
    </g>
    <g id="ytick_12">
     <g id="line2d_24">
      <g>
       <use style="stroke:#000000;stroke-width:0.8;" x="324.3375" xlink:href="#m1bf031ef01" y="61.287088"/>
      </g>
     </g>
     <g id="text_22">
      <!-- 1250 -->
      <g transform="translate(291.8875 65.086307)scale(0.1 -0.1)">
       <use xlink:href="#DejaVuSans-31"/>
       <use x="63.623047" xlink:href="#DejaVuSans-32"/>
       <use x="127.246094" xlink:href="#DejaVuSans-35"/>
       <use x="190.869141" xlink:href="#DejaVuSans-30"/>
      </g>
     </g>
    </g>
    <g id="ytick_13">
     <g id="line2d_25">
      <g>
       <use style="stroke:#000000;stroke-width:0.8;" x="324.3375" xlink:href="#m1bf031ef01" y="38.639566"/>
      </g>
     </g>
     <g id="text_23">
      <!-- 1500 -->
      <g transform="translate(291.8875 42.438785)scale(0.1 -0.1)">
       <use xlink:href="#DejaVuSans-31"/>
       <use x="63.623047" xlink:href="#DejaVuSans-35"/>
       <use x="127.246094" xlink:href="#DejaVuSans-30"/>
       <use x="190.869141" xlink:href="#DejaVuSans-30"/>
      </g>
     </g>
    </g>
   </g>
   <g id="line2d_26">
    <path clip-path="url(#p99dd9a02e6)" d="M 335.285795 174.07175 
L 339.754487 174.43411 
L 344.223178 174.16234 
L 348.69187 174.43411 
L 353.160561 174.34352 
L 357.629259 174.34352 
L 362.09795 174.16234 
L 366.566641 174.07175 
L 371.035333 174.25293 
L 375.504024 173.89057 
L 379.972716 173.799979 
L 384.44141 173.709389 
L 388.910102 173.437619 
L 393.378793 173.437619 
L 397.847484 173.165849 
L 402.316179 172.622308 
L 406.78487 170.901097 
L 411.253562 171.354047 
L 415.722255 172.350538 
L 420.190946 173.165849 
L 424.659638 173.799979 
L 429.12833 174.16234 
L 433.597022 174.43411 
L 438.065715 44.890282 
L 442.534407 174.5247 
L 447.003099 174.5247 
L 451.471791 174.43411 
L 455.940483 174.43411 
L 460.409175 174.25293 
L 464.877868 173.98116 
L 469.346559 173.98116 
L 473.81525 174.07175 
L 478.283945 173.98116 
L 482.752636 174.07175 
L 487.221328 174.07175 
L 491.690019 174.16234 
L 496.15871 174.25293 
L 500.627402 174.25293 
L 505.0961 174.34352 
L 509.564791 174.34352 
L 514.033482 174.34352 
L 518.502174 174.43411 
L 522.970865 174.43411 
L 527.439556 174.5247 
L 531.908248 174.43411 
L 536.376939 174.34352 
L 540.845637 174.5247 
L 545.314328 174.34352 
L 549.78302 174.5247 
L 554.251705 174.43411 
" style="fill:none;stroke:#1f77b4;stroke-linecap:square;stroke-width:1.5;"/>
   </g>
   <g id="patch_8">
    <path d="M 324.3375 181.006421 
L 324.3375 38.408561 
" style="fill:none;stroke:#000000;stroke-linecap:square;stroke-linejoin:miter;stroke-width:0.8;"/>
   </g>
   <g id="patch_9">
    <path d="M 565.2 181.006421 
L 565.2 38.408561 
" style="fill:none;stroke:#000000;stroke-linecap:square;stroke-linejoin:miter;stroke-width:0.8;"/>
   </g>
   <g id="patch_10">
    <path d="M 324.3375 181.006421 
L 565.2 181.006421 
" style="fill:none;stroke:#000000;stroke-linecap:square;stroke-linejoin:miter;stroke-width:0.8;"/>
   </g>
   <g id="patch_11">
    <path d="M 324.3375 38.408561 
L 565.2 38.408561 
" style="fill:none;stroke:#000000;stroke-linecap:square;stroke-linejoin:miter;stroke-width:0.8;"/>
   </g>
  </g>
  <g id="axes_3">
   <g id="patch_12">
    <path d="M 40.175 351.404281 
L 281.0375 351.404281 
L 281.0375 208.806421 
L 40.175 208.806421 
z
" style="fill:#ffffff;"/>
   </g>
   <g id="matplotlib.axis_5">
    <g id="xtick_11">
     <g id="line2d_27">
      <g>
       <use style="stroke:#000000;stroke-width:0.8;" x="66.760256" xlink:href="#md9f5f535ea" y="351.404281"/>
      </g>
     </g>
     <g id="text_24">
      <!-- −0.10 -->
      <g transform="translate(51.4376 366.002718)scale(0.1 -0.1)">
       <use xlink:href="#DejaVuSans-2212"/>
       <use x="83.789062" xlink:href="#DejaVuSans-30"/>
       <use x="147.412109" xlink:href="#DejaVuSans-2e"/>
       <use x="179.199219" xlink:href="#DejaVuSans-31"/>
       <use x="242.822266" xlink:href="#DejaVuSans-30"/>
      </g>
     </g>
    </g>
    <g id="xtick_12">
     <g id="line2d_28">
      <g>
       <use style="stroke:#000000;stroke-width:0.8;" x="110.45245" xlink:href="#md9f5f535ea" y="351.404281"/>
      </g>
     </g>
     <g id="text_25">
      <!-- −0.05 -->
      <g transform="translate(95.129794 366.002718)scale(0.1 -0.1)">
       <use xlink:href="#DejaVuSans-2212"/>
       <use x="83.789062" xlink:href="#DejaVuSans-30"/>
       <use x="147.412109" xlink:href="#DejaVuSans-2e"/>
       <use x="179.199219" xlink:href="#DejaVuSans-30"/>
       <use x="242.822266" xlink:href="#DejaVuSans-35"/>
      </g>
     </g>
    </g>
    <g id="xtick_13">
     <g id="line2d_29">
      <g>
       <use style="stroke:#000000;stroke-width:0.8;" x="154.144644" xlink:href="#md9f5f535ea" y="351.404281"/>
      </g>
     </g>
     <g id="text_26">
      <!-- 0.00 -->
      <g transform="translate(143.011831 366.002718)scale(0.1 -0.1)">
       <use xlink:href="#DejaVuSans-30"/>
       <use x="63.623047" xlink:href="#DejaVuSans-2e"/>
       <use x="95.410156" xlink:href="#DejaVuSans-30"/>
       <use x="159.033203" xlink:href="#DejaVuSans-30"/>
      </g>
     </g>
    </g>
    <g id="xtick_14">
     <g id="line2d_30">
      <g>
       <use style="stroke:#000000;stroke-width:0.8;" x="197.836838" xlink:href="#md9f5f535ea" y="351.404281"/>
      </g>
     </g>
     <g id="text_27">
      <!-- 0.05 -->
      <g transform="translate(186.704025 366.002718)scale(0.1 -0.1)">
       <use xlink:href="#DejaVuSans-30"/>
       <use x="63.623047" xlink:href="#DejaVuSans-2e"/>
       <use x="95.410156" xlink:href="#DejaVuSans-30"/>
       <use x="159.033203" xlink:href="#DejaVuSans-35"/>
      </g>
     </g>
    </g>
    <g id="xtick_15">
     <g id="line2d_31">
      <g>
       <use style="stroke:#000000;stroke-width:0.8;" x="241.529032" xlink:href="#md9f5f535ea" y="351.404281"/>
      </g>
     </g>
     <g id="text_28">
      <!-- 0.10 -->
      <g transform="translate(230.396219 366.002718)scale(0.1 -0.1)">
       <use xlink:href="#DejaVuSans-30"/>
       <use x="63.623047" xlink:href="#DejaVuSans-2e"/>
       <use x="95.410156" xlink:href="#DejaVuSans-31"/>
       <use x="159.033203" xlink:href="#DejaVuSans-30"/>
      </g>
     </g>
    </g>
   </g>
   <g id="matplotlib.axis_6">
    <g id="ytick_14">
     <g id="line2d_32">
      <g>
       <use style="stroke:#000000;stroke-width:0.8;" x="40.175" xlink:href="#m1bf031ef01" y="344.92256"/>
      </g>
     </g>
     <g id="text_29">
      <!-- 0.0 -->
      <g transform="translate(17.271875 348.721779)scale(0.1 -0.1)">
       <use xlink:href="#DejaVuSans-30"/>
       <use x="63.623047" xlink:href="#DejaVuSans-2e"/>
       <use x="95.410156" xlink:href="#DejaVuSans-30"/>
      </g>
     </g>
    </g>
    <g id="ytick_15">
     <g id="line2d_33">
      <g>
       <use style="stroke:#000000;stroke-width:0.8;" x="40.175" xlink:href="#m1bf031ef01" y="318.995676"/>
      </g>
     </g>
     <g id="text_30">
      <!-- 0.2 -->
      <g transform="translate(17.271875 322.794895)scale(0.1 -0.1)">
       <use xlink:href="#DejaVuSans-30"/>
       <use x="63.623047" xlink:href="#DejaVuSans-2e"/>
       <use x="95.410156" xlink:href="#DejaVuSans-32"/>
      </g>
     </g>
    </g>
    <g id="ytick_16">
     <g id="line2d_34">
      <g>
       <use style="stroke:#000000;stroke-width:0.8;" x="40.175" xlink:href="#m1bf031ef01" y="293.068793"/>
      </g>
     </g>
     <g id="text_31">
      <!-- 0.4 -->
      <g transform="translate(17.271875 296.868011)scale(0.1 -0.1)">
       <use xlink:href="#DejaVuSans-30"/>
       <use x="63.623047" xlink:href="#DejaVuSans-2e"/>
       <use x="95.410156" xlink:href="#DejaVuSans-34"/>
      </g>
     </g>
    </g>
    <g id="ytick_17">
     <g id="line2d_35">
      <g>
       <use style="stroke:#000000;stroke-width:0.8;" x="40.175" xlink:href="#m1bf031ef01" y="267.141909"/>
      </g>
     </g>
     <g id="text_32">
      <!-- 0.6 -->
      <g transform="translate(17.271875 270.941128)scale(0.1 -0.1)">
       <use xlink:href="#DejaVuSans-30"/>
       <use x="63.623047" xlink:href="#DejaVuSans-2e"/>
       <use x="95.410156" xlink:href="#DejaVuSans-36"/>
      </g>
     </g>
    </g>
    <g id="ytick_18">
     <g id="line2d_36">
      <g>
       <use style="stroke:#000000;stroke-width:0.8;" x="40.175" xlink:href="#m1bf031ef01" y="241.215026"/>
      </g>
     </g>
     <g id="text_33">
      <!-- 0.8 -->
      <g transform="translate(17.271875 245.014244)scale(0.1 -0.1)">
       <use xlink:href="#DejaVuSans-30"/>
       <use x="63.623047" xlink:href="#DejaVuSans-2e"/>
       <use x="95.410156" xlink:href="#DejaVuSans-38"/>
      </g>
     </g>
    </g>
    <g id="ytick_19">
     <g id="line2d_37">
      <g>
       <use style="stroke:#000000;stroke-width:0.8;" x="40.175" xlink:href="#m1bf031ef01" y="215.288142"/>
      </g>
     </g>
     <g id="text_34">
      <!-- 1.0 -->
      <g transform="translate(17.271875 219.087361)scale(0.1 -0.1)">
       <use xlink:href="#DejaVuSans-31"/>
       <use x="63.623047" xlink:href="#DejaVuSans-2e"/>
       <use x="95.410156" xlink:href="#DejaVuSans-30"/>
      </g>
     </g>
    </g>
   </g>
   <g id="line2d_38">
    <path clip-path="url(#pde36c89d67)" d="M 51.123295 344.539932 
L 55.591987 344.846034 
L 60.060678 344.616457 
L 64.52937 344.846034 
L 68.998061 344.692983 
L 73.466759 344.692983 
L 77.93545 344.310355 
L 82.404141 343.851201 
L 86.872833 344.157304 
L 91.341524 343.009419 
L 95.810216 342.167637 
L 100.27891 341.019753 
L 104.747602 337.882202 
L 109.216293 336.045587 
L 113.684984 329.15828 
L 118.153679 315.536718 
L 122.62237 263.193187 
L 127.091062 238.245831 
L 131.559755 231.128947 
L 136.028446 225.619102 
L 140.497138 226.154781 
L 144.96583 220.951039 
L 149.434522 215.288142 
L 153.903215 221.792821 
L 158.371907 217.813488 
L 162.840599 215.594244 
L 167.309291 222.634602 
L 171.777983 227.455717 
L 176.246675 237.710152 
L 180.715368 246.740176 
L 185.184059 302.144732 
L 189.65275 322.194448 
L 194.121445 328.239972 
L 198.590136 335.203805 
L 203.058828 338.877035 
L 207.527519 341.24933 
L 211.99621 342.626791 
L 216.464902 343.545098 
L 220.9336 344.080778 
L 225.402291 344.38688 
L 229.870982 344.463406 
L 234.339674 344.692983 
L 238.808365 344.846034 
L 243.277056 344.92256 
L 247.745748 344.846034 
L 252.214439 344.769509 
L 256.683137 344.92256 
L 261.151828 344.769509 
L 265.62052 344.92256 
L 270.089205 344.846034 
" style="fill:none;stroke:#1f77b4;stroke-linecap:square;stroke-width:1.5;"/>
   </g>
   <g id="line2d_39">
    <path clip-path="url(#pde36c89d67)" d="M 51.123295 344.92256 
L 55.591987 336.825097 
L 60.060678 328.755768 
L 64.52937 320.742703 
L 68.998061 312.814035 
L 73.466759 304.997897 
L 77.93545 297.322422 
L 82.404141 289.815741 
L 86.872833 282.505988 
L 91.341524 275.421295 
L 95.810216 268.589794 
L 100.27891 262.039617 
L 104.747602 255.798898 
L 109.216293 249.895768 
L 113.684984 244.35836 
L 118.153679 239.214807 
L 122.62237 234.493241 
L 127.091062 230.221794 
L 131.559755 226.4286 
L 136.028446 223.14179 
L 140.497138 220.389496 
L 144.96583 218.199853 
L 149.434522 216.600991 
L 153.903215 215.621043 
L 158.371907 215.288142 
L 162.840599 215.288142 
L 167.309291 215.621043 
L 171.777983 216.600991 
L 176.246675 218.199853 
L 180.715368 220.389496 
L 185.184059 223.14179 
L 189.65275 226.4286 
L 194.121445 230.221794 
L 198.590136 234.493241 
L 203.058828 239.214807 
L 207.527519 244.35836 
L 211.99621 249.895768 
L 216.464902 255.798898 
L 220.9336 262.039617 
L 225.402291 268.589794 
L 229.870982 275.421295 
L 234.339674 282.505988 
L 238.808365 289.815741 
L 243.277056 297.322422 
L 247.745748 304.997897 
L 252.214439 312.814035 
L 256.683137 320.742703 
L 261.151828 328.755768 
L 265.62052 336.825097 
L 270.089205 344.92256 
" style="fill:none;stroke:#ff7f0e;stroke-linecap:square;stroke-width:1.5;"/>
   </g>
   <g id="patch_13">
    <path d="M 40.175 351.404281 
L 40.175 208.806421 
" style="fill:none;stroke:#000000;stroke-linecap:square;stroke-linejoin:miter;stroke-width:0.8;"/>
   </g>
   <g id="patch_14">
    <path d="M 281.0375 351.404281 
L 281.0375 208.806421 
" style="fill:none;stroke:#000000;stroke-linecap:square;stroke-linejoin:miter;stroke-width:0.8;"/>
   </g>
   <g id="patch_15">
    <path d="M 40.175 351.404281 
L 281.0375 351.404281 
" style="fill:none;stroke:#000000;stroke-linecap:square;stroke-linejoin:miter;stroke-width:0.8;"/>
   </g>
   <g id="patch_16">
    <path d="M 40.175 208.806421 
L 281.0375 208.806421 
" style="fill:none;stroke:#000000;stroke-linecap:square;stroke-linejoin:miter;stroke-width:0.8;"/>
   </g>
  </g>
  <g id="axes_4">
   <g id="patch_17">
    <path d="M 324.3375 351.404281 
L 565.2 351.404281 
L 565.2 208.806421 
L 324.3375 208.806421 
z
" style="fill:#ffffff;"/>
   </g>
   <g id="matplotlib.axis_7">
    <g id="xtick_16">
     <g id="line2d_40">
      <g>
       <use style="stroke:#000000;stroke-width:0.8;" x="350.922756" xlink:href="#md9f5f535ea" y="351.404281"/>
      </g>
     </g>
     <g id="text_35">
      <!-- −0.10 -->
      <g transform="translate(335.6001 366.002718)scale(0.1 -0.1)">
       <use xlink:href="#DejaVuSans-2212"/>
       <use x="83.789062" xlink:href="#DejaVuSans-30"/>
       <use x="147.412109" xlink:href="#DejaVuSans-2e"/>
       <use x="179.199219" xlink:href="#DejaVuSans-31"/>
       <use x="242.822266" xlink:href="#DejaVuSans-30"/>
      </g>
     </g>
    </g>
    <g id="xtick_17">
     <g id="line2d_41">
      <g>
       <use style="stroke:#000000;stroke-width:0.8;" x="394.61495" xlink:href="#md9f5f535ea" y="351.404281"/>
      </g>
     </g>
     <g id="text_36">
      <!-- −0.05 -->
      <g transform="translate(379.292294 366.002718)scale(0.1 -0.1)">
       <use xlink:href="#DejaVuSans-2212"/>
       <use x="83.789062" xlink:href="#DejaVuSans-30"/>
       <use x="147.412109" xlink:href="#DejaVuSans-2e"/>
       <use x="179.199219" xlink:href="#DejaVuSans-30"/>
       <use x="242.822266" xlink:href="#DejaVuSans-35"/>
      </g>
     </g>
    </g>
    <g id="xtick_18">
     <g id="line2d_42">
      <g>
       <use style="stroke:#000000;stroke-width:0.8;" x="438.307144" xlink:href="#md9f5f535ea" y="351.404281"/>
      </g>
     </g>
     <g id="text_37">
      <!-- 0.00 -->
      <g transform="translate(427.174331 366.002718)scale(0.1 -0.1)">
       <use xlink:href="#DejaVuSans-30"/>
       <use x="63.623047" xlink:href="#DejaVuSans-2e"/>
       <use x="95.410156" xlink:href="#DejaVuSans-30"/>
       <use x="159.033203" xlink:href="#DejaVuSans-30"/>
      </g>
     </g>
    </g>
    <g id="xtick_19">
     <g id="line2d_43">
      <g>
       <use style="stroke:#000000;stroke-width:0.8;" x="481.999338" xlink:href="#md9f5f535ea" y="351.404281"/>
      </g>
     </g>
     <g id="text_38">
      <!-- 0.05 -->
      <g transform="translate(470.866525 366.002718)scale(0.1 -0.1)">
       <use xlink:href="#DejaVuSans-30"/>
       <use x="63.623047" xlink:href="#DejaVuSans-2e"/>
       <use x="95.410156" xlink:href="#DejaVuSans-30"/>
       <use x="159.033203" xlink:href="#DejaVuSans-35"/>
      </g>
     </g>
    </g>
    <g id="xtick_20">
     <g id="line2d_44">
      <g>
       <use style="stroke:#000000;stroke-width:0.8;" x="525.691532" xlink:href="#md9f5f535ea" y="351.404281"/>
      </g>
     </g>
     <g id="text_39">
      <!-- 0.10 -->
      <g transform="translate(514.558719 366.002718)scale(0.1 -0.1)">
       <use xlink:href="#DejaVuSans-30"/>
       <use x="63.623047" xlink:href="#DejaVuSans-2e"/>
       <use x="95.410156" xlink:href="#DejaVuSans-31"/>
       <use x="159.033203" xlink:href="#DejaVuSans-30"/>
      </g>
     </g>
    </g>
   </g>
   <g id="matplotlib.axis_8">
    <g id="ytick_20">
     <g id="line2d_45">
      <g>
       <use style="stroke:#000000;stroke-width:0.8;" x="324.3375" xlink:href="#m1bf031ef01" y="344.92256"/>
      </g>
     </g>
     <g id="text_40">
      <!-- 0 -->
      <g transform="translate(310.975 348.721779)scale(0.1 -0.1)">
       <use xlink:href="#DejaVuSans-30"/>
      </g>
     </g>
    </g>
    <g id="ytick_21">
     <g id="line2d_46">
      <g>
       <use style="stroke:#000000;stroke-width:0.8;" x="324.3375" xlink:href="#m1bf031ef01" y="321.590231"/>
      </g>
     </g>
     <g id="text_41">
      <!-- 250 -->
      <g transform="translate(298.25 325.38945)scale(0.1 -0.1)">
       <use xlink:href="#DejaVuSans-32"/>
       <use x="63.623047" xlink:href="#DejaVuSans-35"/>
       <use x="127.246094" xlink:href="#DejaVuSans-30"/>
      </g>
     </g>
    </g>
    <g id="ytick_22">
     <g id="line2d_47">
      <g>
       <use style="stroke:#000000;stroke-width:0.8;" x="324.3375" xlink:href="#m1bf031ef01" y="298.257903"/>
      </g>
     </g>
     <g id="text_42">
      <!-- 500 -->
      <g transform="translate(298.25 302.057121)scale(0.1 -0.1)">
       <use xlink:href="#DejaVuSans-35"/>
       <use x="63.623047" xlink:href="#DejaVuSans-30"/>
       <use x="127.246094" xlink:href="#DejaVuSans-30"/>
      </g>
     </g>
    </g>
    <g id="ytick_23">
     <g id="line2d_48">
      <g>
       <use style="stroke:#000000;stroke-width:0.8;" x="324.3375" xlink:href="#m1bf031ef01" y="274.925574"/>
      </g>
     </g>
     <g id="text_43">
      <!-- 750 -->
      <g transform="translate(298.25 278.724793)scale(0.1 -0.1)">
       <use xlink:href="#DejaVuSans-37"/>
       <use x="63.623047" xlink:href="#DejaVuSans-35"/>
       <use x="127.246094" xlink:href="#DejaVuSans-30"/>
      </g>
     </g>
    </g>
    <g id="ytick_24">
     <g id="line2d_49">
      <g>
       <use style="stroke:#000000;stroke-width:0.8;" x="324.3375" xlink:href="#m1bf031ef01" y="251.593245"/>
      </g>
     </g>
     <g id="text_44">
      <!-- 1000 -->
      <g transform="translate(291.8875 255.392464)scale(0.1 -0.1)">
       <use xlink:href="#DejaVuSans-31"/>
       <use x="63.623047" xlink:href="#DejaVuSans-30"/>
       <use x="127.246094" xlink:href="#DejaVuSans-30"/>
       <use x="190.869141" xlink:href="#DejaVuSans-30"/>
      </g>
     </g>
    </g>
    <g id="ytick_25">
     <g id="line2d_50">
      <g>
       <use style="stroke:#000000;stroke-width:0.8;" x="324.3375" xlink:href="#m1bf031ef01" y="228.260917"/>
      </g>
     </g>
     <g id="text_45">
      <!-- 1250 -->
      <g transform="translate(291.8875 232.060135)scale(0.1 -0.1)">
       <use xlink:href="#DejaVuSans-31"/>
       <use x="63.623047" xlink:href="#DejaVuSans-32"/>
       <use x="127.246094" xlink:href="#DejaVuSans-35"/>
       <use x="190.869141" xlink:href="#DejaVuSans-30"/>
      </g>
     </g>
    </g>
   </g>
   <g id="line2d_51">
    <path clip-path="url(#pb9baa37d31)" d="M 335.285795 344.455913 
L 339.754487 344.82923 
L 344.223178 344.549243 
L 348.69187 344.82923 
L 353.160561 344.642572 
L 357.629259 344.642572 
L 362.09795 344.362584 
L 366.566641 344.082596 
L 371.035333 344.362584 
L 375.504024 343.802608 
L 379.972716 343.52262 
L 384.44141 343.149303 
L 388.910102 342.21601 
L 393.378793 342.029351 
L 397.847484 340.536082 
L 402.316179 338.296178 
L 406.78487 330.083199 
L 411.253562 329.89654 
L 415.722255 332.976408 
L 420.190946 336.056275 
L 424.659638 339.136142 
L 429.12833 341.469375 
L 433.597022 343.242632 
L 438.065715 215.288142 
L 442.534407 344.92256 
L 447.003099 344.92256 
L 451.471791 344.455913 
L 455.940483 343.429291 
L 460.409175 341.936022 
L 464.877868 340.162765 
L 469.346559 341.749363 
L 473.81525 342.495998 
L 478.283945 342.495998 
L 482.752636 343.149303 
L 487.221328 343.52262 
L 491.690019 343.895937 
L 496.15871 344.082596 
L 500.627402 344.362584 
L 505.0961 344.549243 
L 509.564791 344.642572 
L 514.033482 344.642572 
L 518.502174 344.735901 
L 522.970865 344.82923 
L 527.439556 344.92256 
L 531.908248 344.82923 
L 536.376939 344.735901 
L 540.845637 344.92256 
L 545.314328 344.735901 
L 549.78302 344.92256 
L 554.251705 344.82923 
" style="fill:none;stroke:#1f77b4;stroke-linecap:square;stroke-width:1.5;"/>
   </g>
   <g id="patch_18">
    <path d="M 324.3375 351.404281 
L 324.3375 208.806421 
" style="fill:none;stroke:#000000;stroke-linecap:square;stroke-linejoin:miter;stroke-width:0.8;"/>
   </g>
   <g id="patch_19">
    <path d="M 565.2 351.404281 
L 565.2 208.806421 
" style="fill:none;stroke:#000000;stroke-linecap:square;stroke-linejoin:miter;stroke-width:0.8;"/>
   </g>
   <g id="patch_20">
    <path d="M 324.3375 351.404281 
L 565.2 351.404281 
" style="fill:none;stroke:#000000;stroke-linecap:square;stroke-linejoin:miter;stroke-width:0.8;"/>
   </g>
   <g id="patch_21">
    <path d="M 324.3375 208.806421 
L 565.2 208.806421 
" style="fill:none;stroke:#000000;stroke-linecap:square;stroke-linejoin:miter;stroke-width:0.8;"/>
   </g>
  </g>
  <g id="axes_5">
   <g id="patch_22">
    <path d="M 40.175 521.80214 
L 281.0375 521.80214 
L 281.0375 379.204281 
L 40.175 379.204281 
z
" style="fill:#ffffff;"/>
   </g>
   <g id="matplotlib.axis_9">
    <g id="xtick_21">
     <g id="line2d_52">
      <g>
       <use style="stroke:#000000;stroke-width:0.8;" x="66.760256" xlink:href="#md9f5f535ea" y="521.80214"/>
      </g>
     </g>
     <g id="text_46">
      <!-- −0.10 -->
      <g transform="translate(51.4376 536.400578)scale(0.1 -0.1)">
       <use xlink:href="#DejaVuSans-2212"/>
       <use x="83.789062" xlink:href="#DejaVuSans-30"/>
       <use x="147.412109" xlink:href="#DejaVuSans-2e"/>
       <use x="179.199219" xlink:href="#DejaVuSans-31"/>
       <use x="242.822266" xlink:href="#DejaVuSans-30"/>
      </g>
     </g>
    </g>
    <g id="xtick_22">
     <g id="line2d_53">
      <g>
       <use style="stroke:#000000;stroke-width:0.8;" x="110.45245" xlink:href="#md9f5f535ea" y="521.80214"/>
      </g>
     </g>
     <g id="text_47">
      <!-- −0.05 -->
      <g transform="translate(95.129794 536.400578)scale(0.1 -0.1)">
       <use xlink:href="#DejaVuSans-2212"/>
       <use x="83.789062" xlink:href="#DejaVuSans-30"/>
       <use x="147.412109" xlink:href="#DejaVuSans-2e"/>
       <use x="179.199219" xlink:href="#DejaVuSans-30"/>
       <use x="242.822266" xlink:href="#DejaVuSans-35"/>
      </g>
     </g>
    </g>
    <g id="xtick_23">
     <g id="line2d_54">
      <g>
       <use style="stroke:#000000;stroke-width:0.8;" x="154.144644" xlink:href="#md9f5f535ea" y="521.80214"/>
      </g>
     </g>
     <g id="text_48">
      <!-- 0.00 -->
      <g transform="translate(143.011831 536.400578)scale(0.1 -0.1)">
       <use xlink:href="#DejaVuSans-30"/>
       <use x="63.623047" xlink:href="#DejaVuSans-2e"/>
       <use x="95.410156" xlink:href="#DejaVuSans-30"/>
       <use x="159.033203" xlink:href="#DejaVuSans-30"/>
      </g>
     </g>
    </g>
    <g id="xtick_24">
     <g id="line2d_55">
      <g>
       <use style="stroke:#000000;stroke-width:0.8;" x="197.836838" xlink:href="#md9f5f535ea" y="521.80214"/>
      </g>
     </g>
     <g id="text_49">
      <!-- 0.05 -->
      <g transform="translate(186.704025 536.400578)scale(0.1 -0.1)">
       <use xlink:href="#DejaVuSans-30"/>
       <use x="63.623047" xlink:href="#DejaVuSans-2e"/>
       <use x="95.410156" xlink:href="#DejaVuSans-30"/>
       <use x="159.033203" xlink:href="#DejaVuSans-35"/>
      </g>
     </g>
    </g>
    <g id="xtick_25">
     <g id="line2d_56">
      <g>
       <use style="stroke:#000000;stroke-width:0.8;" x="241.529032" xlink:href="#md9f5f535ea" y="521.80214"/>
      </g>
     </g>
     <g id="text_50">
      <!-- 0.10 -->
      <g transform="translate(230.396219 536.400578)scale(0.1 -0.1)">
       <use xlink:href="#DejaVuSans-30"/>
       <use x="63.623047" xlink:href="#DejaVuSans-2e"/>
       <use x="95.410156" xlink:href="#DejaVuSans-31"/>
       <use x="159.033203" xlink:href="#DejaVuSans-30"/>
      </g>
     </g>
    </g>
   </g>
   <g id="matplotlib.axis_10">
    <g id="ytick_26">
     <g id="line2d_57">
      <g>
       <use style="stroke:#000000;stroke-width:0.8;" x="40.175" xlink:href="#m1bf031ef01" y="515.320419"/>
      </g>
     </g>
     <g id="text_51">
      <!-- 0.0 -->
      <g transform="translate(17.271875 519.119638)scale(0.1 -0.1)">
       <use xlink:href="#DejaVuSans-30"/>
       <use x="63.623047" xlink:href="#DejaVuSans-2e"/>
       <use x="95.410156" xlink:href="#DejaVuSans-30"/>
      </g>
     </g>
    </g>
    <g id="ytick_27">
     <g id="line2d_58">
      <g>
       <use style="stroke:#000000;stroke-width:0.8;" x="40.175" xlink:href="#m1bf031ef01" y="489.393536"/>
      </g>
     </g>
     <g id="text_52">
      <!-- 0.2 -->
      <g transform="translate(17.271875 493.192755)scale(0.1 -0.1)">
       <use xlink:href="#DejaVuSans-30"/>
       <use x="63.623047" xlink:href="#DejaVuSans-2e"/>
       <use x="95.410156" xlink:href="#DejaVuSans-32"/>
      </g>
     </g>
    </g>
    <g id="ytick_28">
     <g id="line2d_59">
      <g>
       <use style="stroke:#000000;stroke-width:0.8;" x="40.175" xlink:href="#m1bf031ef01" y="463.466652"/>
      </g>
     </g>
     <g id="text_53">
      <!-- 0.4 -->
      <g transform="translate(17.271875 467.265871)scale(0.1 -0.1)">
       <use xlink:href="#DejaVuSans-30"/>
       <use x="63.623047" xlink:href="#DejaVuSans-2e"/>
       <use x="95.410156" xlink:href="#DejaVuSans-34"/>
      </g>
     </g>
    </g>
    <g id="ytick_29">
     <g id="line2d_60">
      <g>
       <use style="stroke:#000000;stroke-width:0.8;" x="40.175" xlink:href="#m1bf031ef01" y="437.539769"/>
      </g>
     </g>
     <g id="text_54">
      <!-- 0.6 -->
      <g transform="translate(17.271875 441.338987)scale(0.1 -0.1)">
       <use xlink:href="#DejaVuSans-30"/>
       <use x="63.623047" xlink:href="#DejaVuSans-2e"/>
       <use x="95.410156" xlink:href="#DejaVuSans-36"/>
      </g>
     </g>
    </g>
    <g id="ytick_30">
     <g id="line2d_61">
      <g>
       <use style="stroke:#000000;stroke-width:0.8;" x="40.175" xlink:href="#m1bf031ef01" y="411.612885"/>
      </g>
     </g>
     <g id="text_55">
      <!-- 0.8 -->
      <g transform="translate(17.271875 415.412104)scale(0.1 -0.1)">
       <use xlink:href="#DejaVuSans-30"/>
       <use x="63.623047" xlink:href="#DejaVuSans-2e"/>
       <use x="95.410156" xlink:href="#DejaVuSans-38"/>
      </g>
     </g>
    </g>
    <g id="ytick_31">
     <g id="line2d_62">
      <g>
       <use style="stroke:#000000;stroke-width:0.8;" x="40.175" xlink:href="#m1bf031ef01" y="385.686002"/>
      </g>
     </g>
     <g id="text_56">
      <!-- 1.0 -->
      <g transform="translate(17.271875 389.48522)scale(0.1 -0.1)">
       <use xlink:href="#DejaVuSans-31"/>
       <use x="63.623047" xlink:href="#DejaVuSans-2e"/>
       <use x="95.410156" xlink:href="#DejaVuSans-30"/>
      </g>
     </g>
    </g>
   </g>
   <g id="line2d_63">
    <path clip-path="url(#pd6f67bd2a7)" d="M 51.123295 514.937791 
L 55.591987 515.243894 
L 60.060678 515.014317 
L 64.52937 515.243894 
L 68.998061 515.090843 
L 73.466759 515.090843 
L 77.93545 514.708214 
L 82.404141 514.249061 
L 86.872833 514.555163 
L 91.341524 513.407279 
L 95.810216 512.565497 
L 100.27891 511.417612 
L 104.747602 508.280061 
L 109.216293 506.443446 
L 113.684984 499.55614 
L 118.153679 485.934577 
L 122.62237 433.591046 
L 127.091062 408.643691 
L 131.559755 401.526807 
L 136.028446 396.016962 
L 140.497138 396.552641 
L 144.96583 391.348898 
L 149.434522 385.686002 
L 153.903215 392.19068 
L 158.371907 388.211347 
L 162.840599 385.992104 
L 167.309291 393.032462 
L 171.777983 397.853577 
L 176.246675 408.108011 
L 180.715368 417.138036 
L 185.184059 472.542592 
L 189.65275 492.592307 
L 194.121445 498.637832 
L 198.590136 505.601664 
L 203.058828 509.274895 
L 207.527519 511.647189 
L 211.99621 513.024651 
L 216.464902 513.942958 
L 220.9336 514.478638 
L 225.402291 514.78474 
L 229.870982 514.861266 
L 234.339674 515.090843 
L 238.808365 515.243894 
L 243.277056 515.320419 
L 247.745748 515.243894 
L 252.214439 515.167368 
L 256.683137 515.320419 
L 261.151828 515.167368 
L 265.62052 515.320419 
L 270.089205 515.243894 
" style="fill:none;stroke:#1f77b4;stroke-linecap:square;stroke-width:1.5;"/>
   </g>
   <g id="line2d_64">
    <path clip-path="url(#pd6f67bd2a7)" d="M 51.123295 515.320419 
L 55.591987 507.54648 
L 60.060678 500.391456 
L 64.52937 493.799081 
L 68.998061 487.71309 
L 73.466759 482.077218 
L 77.93545 476.835202 
L 82.404141 471.930775 
L 86.872833 467.307672 
L 91.341524 462.909629 
L 95.810216 458.680382 
L 100.27891 454.563664 
L 104.747602 450.503211 
L 109.216293 446.442757 
L 113.684984 442.326039 
L 118.153679 438.096792 
L 122.62237 433.698749 
L 127.091062 429.075647 
L 131.559755 424.171219 
L 136.028446 418.929203 
L 140.497138 413.293331 
L 144.96583 407.207341 
L 149.434522 400.614965 
L 153.903215 393.459941 
L 158.371907 385.686002 
L 162.840599 385.686002 
L 167.309291 393.459941 
L 171.777983 400.614965 
L 176.246675 407.207341 
L 180.715368 413.293331 
L 185.184059 418.929203 
L 189.65275 424.171219 
L 194.121445 429.075647 
L 198.590136 433.698749 
L 203.058828 438.096792 
L 207.527519 442.326039 
L 211.99621 446.442757 
L 216.464902 450.503211 
L 220.9336 454.563664 
L 225.402291 458.680382 
L 229.870982 462.909629 
L 234.339674 467.307672 
L 238.808365 471.930775 
L 243.277056 476.835202 
L 247.745748 482.077218 
L 252.214439 487.71309 
L 256.683137 493.799081 
L 261.151828 500.391456 
L 265.62052 507.54648 
L 270.089205 515.320419 
" style="fill:none;stroke:#ff7f0e;stroke-linecap:square;stroke-width:1.5;"/>
   </g>
   <g id="patch_23">
    <path d="M 40.175 521.80214 
L 40.175 379.204281 
" style="fill:none;stroke:#000000;stroke-linecap:square;stroke-linejoin:miter;stroke-width:0.8;"/>
   </g>
   <g id="patch_24">
    <path d="M 281.0375 521.80214 
L 281.0375 379.204281 
" style="fill:none;stroke:#000000;stroke-linecap:square;stroke-linejoin:miter;stroke-width:0.8;"/>
   </g>
   <g id="patch_25">
    <path d="M 40.175 521.80214 
L 281.0375 521.80214 
" style="fill:none;stroke:#000000;stroke-linecap:square;stroke-linejoin:miter;stroke-width:0.8;"/>
   </g>
   <g id="patch_26">
    <path d="M 40.175 379.204281 
L 281.0375 379.204281 
" style="fill:none;stroke:#000000;stroke-linecap:square;stroke-linejoin:miter;stroke-width:0.8;"/>
   </g>
  </g>
  <g id="axes_6">
   <g id="patch_27">
    <path d="M 324.3375 521.80214 
L 565.2 521.80214 
L 565.2 379.204281 
L 324.3375 379.204281 
z
" style="fill:#ffffff;"/>
   </g>
   <g id="matplotlib.axis_11">
    <g id="xtick_26">
     <g id="line2d_65">
      <g>
       <use style="stroke:#000000;stroke-width:0.8;" x="350.922756" xlink:href="#md9f5f535ea" y="521.80214"/>
      </g>
     </g>
     <g id="text_57">
      <!-- −0.10 -->
      <g transform="translate(335.6001 536.400578)scale(0.1 -0.1)">
       <use xlink:href="#DejaVuSans-2212"/>
       <use x="83.789062" xlink:href="#DejaVuSans-30"/>
       <use x="147.412109" xlink:href="#DejaVuSans-2e"/>
       <use x="179.199219" xlink:href="#DejaVuSans-31"/>
       <use x="242.822266" xlink:href="#DejaVuSans-30"/>
      </g>
     </g>
    </g>
    <g id="xtick_27">
     <g id="line2d_66">
      <g>
       <use style="stroke:#000000;stroke-width:0.8;" x="394.61495" xlink:href="#md9f5f535ea" y="521.80214"/>
      </g>
     </g>
     <g id="text_58">
      <!-- −0.05 -->
      <g transform="translate(379.292294 536.400578)scale(0.1 -0.1)">
       <use xlink:href="#DejaVuSans-2212"/>
       <use x="83.789062" xlink:href="#DejaVuSans-30"/>
       <use x="147.412109" xlink:href="#DejaVuSans-2e"/>
       <use x="179.199219" xlink:href="#DejaVuSans-30"/>
       <use x="242.822266" xlink:href="#DejaVuSans-35"/>
      </g>
     </g>
    </g>
    <g id="xtick_28">
     <g id="line2d_67">
      <g>
       <use style="stroke:#000000;stroke-width:0.8;" x="438.307144" xlink:href="#md9f5f535ea" y="521.80214"/>
      </g>
     </g>
     <g id="text_59">
      <!-- 0.00 -->
      <g transform="translate(427.174331 536.400578)scale(0.1 -0.1)">
       <use xlink:href="#DejaVuSans-30"/>
       <use x="63.623047" xlink:href="#DejaVuSans-2e"/>
       <use x="95.410156" xlink:href="#DejaVuSans-30"/>
       <use x="159.033203" xlink:href="#DejaVuSans-30"/>
      </g>
     </g>
    </g>
    <g id="xtick_29">
     <g id="line2d_68">
      <g>
       <use style="stroke:#000000;stroke-width:0.8;" x="481.999338" xlink:href="#md9f5f535ea" y="521.80214"/>
      </g>
     </g>
     <g id="text_60">
      <!-- 0.05 -->
      <g transform="translate(470.866525 536.400578)scale(0.1 -0.1)">
       <use xlink:href="#DejaVuSans-30"/>
       <use x="63.623047" xlink:href="#DejaVuSans-2e"/>
       <use x="95.410156" xlink:href="#DejaVuSans-30"/>
       <use x="159.033203" xlink:href="#DejaVuSans-35"/>
      </g>
     </g>
    </g>
    <g id="xtick_30">
     <g id="line2d_69">
      <g>
       <use style="stroke:#000000;stroke-width:0.8;" x="525.691532" xlink:href="#md9f5f535ea" y="521.80214"/>
      </g>
     </g>
     <g id="text_61">
      <!-- 0.10 -->
      <g transform="translate(514.558719 536.400578)scale(0.1 -0.1)">
       <use xlink:href="#DejaVuSans-30"/>
       <use x="63.623047" xlink:href="#DejaVuSans-2e"/>
       <use x="95.410156" xlink:href="#DejaVuSans-31"/>
       <use x="159.033203" xlink:href="#DejaVuSans-30"/>
      </g>
     </g>
    </g>
   </g>
   <g id="matplotlib.axis_12">
    <g id="ytick_32">
     <g id="line2d_70">
      <g>
       <use style="stroke:#000000;stroke-width:0.8;" x="324.3375" xlink:href="#m1bf031ef01" y="515.320419"/>
      </g>
     </g>
     <g id="text_62">
      <!-- 0 -->
      <g transform="translate(310.975 519.119638)scale(0.1 -0.1)">
       <use xlink:href="#DejaVuSans-30"/>
      </g>
     </g>
    </g>
    <g id="ytick_33">
     <g id="line2d_71">
      <g>
       <use style="stroke:#000000;stroke-width:0.8;" x="324.3375" xlink:href="#m1bf031ef01" y="491.612589"/>
      </g>
     </g>
     <g id="text_63">
      <!-- 250 -->
      <g transform="translate(298.25 495.411808)scale(0.1 -0.1)">
       <use xlink:href="#DejaVuSans-32"/>
       <use x="63.623047" xlink:href="#DejaVuSans-35"/>
       <use x="127.246094" xlink:href="#DejaVuSans-30"/>
      </g>
     </g>
    </g>
    <g id="ytick_34">
     <g id="line2d_72">
      <g>
       <use style="stroke:#000000;stroke-width:0.8;" x="324.3375" xlink:href="#m1bf031ef01" y="467.904758"/>
      </g>
     </g>
     <g id="text_64">
      <!-- 500 -->
      <g transform="translate(298.25 471.703977)scale(0.1 -0.1)">
       <use xlink:href="#DejaVuSans-35"/>
       <use x="63.623047" xlink:href="#DejaVuSans-30"/>
       <use x="127.246094" xlink:href="#DejaVuSans-30"/>
      </g>
     </g>
    </g>
    <g id="ytick_35">
     <g id="line2d_73">
      <g>
       <use style="stroke:#000000;stroke-width:0.8;" x="324.3375" xlink:href="#m1bf031ef01" y="444.196928"/>
      </g>
     </g>
     <g id="text_65">
      <!-- 750 -->
      <g transform="translate(298.25 447.996146)scale(0.1 -0.1)">
       <use xlink:href="#DejaVuSans-37"/>
       <use x="63.623047" xlink:href="#DejaVuSans-35"/>
       <use x="127.246094" xlink:href="#DejaVuSans-30"/>
      </g>
     </g>
    </g>
    <g id="ytick_36">
     <g id="line2d_74">
      <g>
       <use style="stroke:#000000;stroke-width:0.8;" x="324.3375" xlink:href="#m1bf031ef01" y="420.489097"/>
      </g>
     </g>
     <g id="text_66">
      <!-- 1000 -->
      <g transform="translate(291.8875 424.288316)scale(0.1 -0.1)">
       <use xlink:href="#DejaVuSans-31"/>
       <use x="63.623047" xlink:href="#DejaVuSans-30"/>
       <use x="127.246094" xlink:href="#DejaVuSans-30"/>
       <use x="190.869141" xlink:href="#DejaVuSans-30"/>
      </g>
     </g>
    </g>
    <g id="ytick_37">
     <g id="line2d_75">
      <g>
       <use style="stroke:#000000;stroke-width:0.8;" x="324.3375" xlink:href="#m1bf031ef01" y="396.781266"/>
      </g>
     </g>
     <g id="text_67">
      <!-- 1250 -->
      <g transform="translate(291.8875 400.580485)scale(0.1 -0.1)">
       <use xlink:href="#DejaVuSans-31"/>
       <use x="63.623047" xlink:href="#DejaVuSans-32"/>
       <use x="127.246094" xlink:href="#DejaVuSans-35"/>
       <use x="190.869141" xlink:href="#DejaVuSans-30"/>
      </g>
     </g>
    </g>
   </g>
   <g id="line2d_76">
    <path clip-path="url(#p7ef5a7e90a)" d="M 335.285795 514.846263 
L 339.754487 515.225588 
L 344.223178 514.941094 
L 348.69187 515.225588 
L 353.160561 515.035925 
L 357.629259 515.035925 
L 362.09795 514.751432 
L 366.566641 514.372106 
L 371.035333 514.6566 
L 375.504024 513.89795 
L 379.972716 513.328962 
L 384.44141 512.665142 
L 388.910102 510.958179 
L 393.378793 510.104697 
L 397.847484 506.690769 
L 402.316179 500.526733 
L 406.78487 477.767216 
L 411.253562 471.034192 
L 415.722255 473.404975 
L 420.190946 477.38789 
L 424.659638 483.931252 
L 429.12833 489.810794 
L 433.597022 496.73348 
L 438.065715 385.686002 
L 442.534407 515.320419 
L 447.003099 515.320419 
L 451.471791 506.216613 
L 455.940483 498.535275 
L 460.409175 493.224721 
L 464.877868 489.336637 
L 469.346559 501.664709 
L 473.81525 506.880432 
L 478.283945 508.397733 
L 482.752636 510.768516 
L 487.221328 512.285817 
L 491.690019 513.328962 
L 496.15871 513.89795 
L 500.627402 514.466938 
L 505.0961 514.751432 
L 509.564791 514.941094 
L 514.033482 514.941094 
L 518.502174 515.130757 
L 522.970865 515.225588 
L 527.439556 515.320419 
L 531.908248 515.225588 
L 536.376939 515.130757 
L 540.845637 515.320419 
L 545.314328 515.130757 
L 549.78302 515.320419 
L 554.251705 515.225588 
" style="fill:none;stroke:#1f77b4;stroke-linecap:square;stroke-width:1.5;"/>
   </g>
   <g id="patch_28">
    <path d="M 324.3375 521.80214 
L 324.3375 379.204281 
" style="fill:none;stroke:#000000;stroke-linecap:square;stroke-linejoin:miter;stroke-width:0.8;"/>
   </g>
   <g id="patch_29">
    <path d="M 565.2 521.80214 
L 565.2 379.204281 
" style="fill:none;stroke:#000000;stroke-linecap:square;stroke-linejoin:miter;stroke-width:0.8;"/>
   </g>
   <g id="patch_30">
    <path d="M 324.3375 521.80214 
L 565.2 521.80214 
" style="fill:none;stroke:#000000;stroke-linecap:square;stroke-linejoin:miter;stroke-width:0.8;"/>
   </g>
   <g id="patch_31">
    <path d="M 324.3375 379.204281 
L 565.2 379.204281 
" style="fill:none;stroke:#000000;stroke-linecap:square;stroke-linejoin:miter;stroke-width:0.8;"/>
   </g>
  </g>
  <g id="axes_7">
   <g id="patch_32">
    <path d="M 40.175 692.2 
L 281.0375 692.2 
L 281.0375 549.60214 
L 40.175 549.60214 
z
" style="fill:#ffffff;"/>
   </g>
   <g id="matplotlib.axis_13">
    <g id="xtick_31">
     <g id="line2d_77">
      <g>
       <use style="stroke:#000000;stroke-width:0.8;" x="66.760256" xlink:href="#md9f5f535ea" y="692.2"/>
      </g>
     </g>
     <g id="text_68">
      <!-- −0.10 -->
      <g transform="translate(51.4376 706.798437)scale(0.1 -0.1)">
       <use xlink:href="#DejaVuSans-2212"/>
       <use x="83.789062" xlink:href="#DejaVuSans-30"/>
       <use x="147.412109" xlink:href="#DejaVuSans-2e"/>
       <use x="179.199219" xlink:href="#DejaVuSans-31"/>
       <use x="242.822266" xlink:href="#DejaVuSans-30"/>
      </g>
     </g>
    </g>
    <g id="xtick_32">
     <g id="line2d_78">
      <g>
       <use style="stroke:#000000;stroke-width:0.8;" x="110.45245" xlink:href="#md9f5f535ea" y="692.2"/>
      </g>
     </g>
     <g id="text_69">
      <!-- −0.05 -->
      <g transform="translate(95.129794 706.798437)scale(0.1 -0.1)">
       <use xlink:href="#DejaVuSans-2212"/>
       <use x="83.789062" xlink:href="#DejaVuSans-30"/>
       <use x="147.412109" xlink:href="#DejaVuSans-2e"/>
       <use x="179.199219" xlink:href="#DejaVuSans-30"/>
       <use x="242.822266" xlink:href="#DejaVuSans-35"/>
      </g>
     </g>
    </g>
    <g id="xtick_33">
     <g id="line2d_79">
      <g>
       <use style="stroke:#000000;stroke-width:0.8;" x="154.144644" xlink:href="#md9f5f535ea" y="692.2"/>
      </g>
     </g>
     <g id="text_70">
      <!-- 0.00 -->
      <g transform="translate(143.011831 706.798437)scale(0.1 -0.1)">
       <use xlink:href="#DejaVuSans-30"/>
       <use x="63.623047" xlink:href="#DejaVuSans-2e"/>
       <use x="95.410156" xlink:href="#DejaVuSans-30"/>
       <use x="159.033203" xlink:href="#DejaVuSans-30"/>
      </g>
     </g>
    </g>
    <g id="xtick_34">
     <g id="line2d_80">
      <g>
       <use style="stroke:#000000;stroke-width:0.8;" x="197.836838" xlink:href="#md9f5f535ea" y="692.2"/>
      </g>
     </g>
     <g id="text_71">
      <!-- 0.05 -->
      <g transform="translate(186.704025 706.798437)scale(0.1 -0.1)">
       <use xlink:href="#DejaVuSans-30"/>
       <use x="63.623047" xlink:href="#DejaVuSans-2e"/>
       <use x="95.410156" xlink:href="#DejaVuSans-30"/>
       <use x="159.033203" xlink:href="#DejaVuSans-35"/>
      </g>
     </g>
    </g>
    <g id="xtick_35">
     <g id="line2d_81">
      <g>
       <use style="stroke:#000000;stroke-width:0.8;" x="241.529032" xlink:href="#md9f5f535ea" y="692.2"/>
      </g>
     </g>
     <g id="text_72">
      <!-- 0.10 -->
      <g transform="translate(230.396219 706.798437)scale(0.1 -0.1)">
       <use xlink:href="#DejaVuSans-30"/>
       <use x="63.623047" xlink:href="#DejaVuSans-2e"/>
       <use x="95.410156" xlink:href="#DejaVuSans-31"/>
       <use x="159.033203" xlink:href="#DejaVuSans-30"/>
      </g>
     </g>
    </g>
   </g>
   <g id="matplotlib.axis_14">
    <g id="ytick_38">
     <g id="line2d_82">
      <g>
       <use style="stroke:#000000;stroke-width:0.8;" x="40.175" xlink:href="#m1bf031ef01" y="685.718279"/>
      </g>
     </g>
     <g id="text_73">
      <!-- 0.0 -->
      <g transform="translate(17.271875 689.517498)scale(0.1 -0.1)">
       <use xlink:href="#DejaVuSans-30"/>
       <use x="63.623047" xlink:href="#DejaVuSans-2e"/>
       <use x="95.410156" xlink:href="#DejaVuSans-30"/>
      </g>
     </g>
    </g>
    <g id="ytick_39">
     <g id="line2d_83">
      <g>
       <use style="stroke:#000000;stroke-width:0.8;" x="40.175" xlink:href="#m1bf031ef01" y="659.791396"/>
      </g>
     </g>
     <g id="text_74">
      <!-- 0.2 -->
      <g transform="translate(17.271875 663.590614)scale(0.1 -0.1)">
       <use xlink:href="#DejaVuSans-30"/>
       <use x="63.623047" xlink:href="#DejaVuSans-2e"/>
       <use x="95.410156" xlink:href="#DejaVuSans-32"/>
      </g>
     </g>
    </g>
    <g id="ytick_40">
     <g id="line2d_84">
      <g>
       <use style="stroke:#000000;stroke-width:0.8;" x="40.175" xlink:href="#m1bf031ef01" y="633.864512"/>
      </g>
     </g>
     <g id="text_75">
      <!-- 0.4 -->
      <g transform="translate(17.271875 637.663731)scale(0.1 -0.1)">
       <use xlink:href="#DejaVuSans-30"/>
       <use x="63.623047" xlink:href="#DejaVuSans-2e"/>
       <use x="95.410156" xlink:href="#DejaVuSans-34"/>
      </g>
     </g>
    </g>
    <g id="ytick_41">
     <g id="line2d_85">
      <g>
       <use style="stroke:#000000;stroke-width:0.8;" x="40.175" xlink:href="#m1bf031ef01" y="607.937628"/>
      </g>
     </g>
     <g id="text_76">
      <!-- 0.6 -->
      <g transform="translate(17.271875 611.736847)scale(0.1 -0.1)">
       <use xlink:href="#DejaVuSans-30"/>
       <use x="63.623047" xlink:href="#DejaVuSans-2e"/>
       <use x="95.410156" xlink:href="#DejaVuSans-36"/>
      </g>
     </g>
    </g>
    <g id="ytick_42">
     <g id="line2d_86">
      <g>
       <use style="stroke:#000000;stroke-width:0.8;" x="40.175" xlink:href="#m1bf031ef01" y="582.010745"/>
      </g>
     </g>
     <g id="text_77">
      <!-- 0.8 -->
      <g transform="translate(17.271875 585.809964)scale(0.1 -0.1)">
       <use xlink:href="#DejaVuSans-30"/>
       <use x="63.623047" xlink:href="#DejaVuSans-2e"/>
       <use x="95.410156" xlink:href="#DejaVuSans-38"/>
      </g>
     </g>
    </g>
    <g id="ytick_43">
     <g id="line2d_87">
      <g>
       <use style="stroke:#000000;stroke-width:0.8;" x="40.175" xlink:href="#m1bf031ef01" y="556.083861"/>
      </g>
     </g>
     <g id="text_78">
      <!-- 1.0 -->
      <g transform="translate(17.271875 559.88308)scale(0.1 -0.1)">
       <use xlink:href="#DejaVuSans-31"/>
       <use x="63.623047" xlink:href="#DejaVuSans-2e"/>
       <use x="95.410156" xlink:href="#DejaVuSans-30"/>
      </g>
     </g>
    </g>
   </g>
   <g id="line2d_88">
    <path clip-path="url(#p72e9a8412f)" d="M 51.123295 685.335651 
L 55.591987 685.641753 
L 60.060678 685.412177 
L 64.52937 685.641753 
L 68.998061 685.488702 
L 73.466759 685.488702 
L 77.93545 685.106074 
L 82.404141 684.64692 
L 86.872833 684.953023 
L 91.341524 683.805138 
L 95.810216 682.963356 
L 100.27891 681.815472 
L 104.747602 678.677921 
L 109.216293 676.841306 
L 113.684984 669.953999 
L 118.153679 656.332437 
L 122.62237 603.988906 
L 127.091062 579.04155 
L 131.559755 571.924667 
L 136.028446 566.414821 
L 140.497138 566.950501 
L 144.96583 561.746758 
L 149.434522 556.083861 
L 153.903215 562.58854 
L 158.371907 558.609207 
L 162.840599 556.389964 
L 167.309291 563.430322 
L 171.777983 568.251436 
L 176.246675 578.505871 
L 180.715368 587.535895 
L 185.184059 642.940452 
L 189.65275 662.990167 
L 194.121445 669.035692 
L 198.590136 675.999524 
L 203.058828 679.672754 
L 207.527519 682.045049 
L 211.99621 683.42251 
L 216.464902 684.340818 
L 220.9336 684.876497 
L 225.402291 685.1826 
L 229.870982 685.259125 
L 234.339674 685.488702 
L 238.808365 685.641753 
L 243.277056 685.718279 
L 247.745748 685.641753 
L 252.214439 685.565228 
L 256.683137 685.718279 
L 261.151828 685.565228 
L 265.62052 685.718279 
L 270.089205 685.641753 
" style="fill:none;stroke:#1f77b4;stroke-linecap:square;stroke-width:1.5;"/>
   </g>
   <g id="line2d_89">
    <path clip-path="url(#p72e9a8412f)" d="M 51.123295 685.718279 
L 55.591987 680.532527 
L 60.060678 675.74063 
L 64.52937 671.286322 
L 68.998061 667.11334 
L 73.466759 663.165416 
L 77.93545 659.386288 
L 82.404141 655.719689 
L 86.872833 652.109356 
L 91.341524 648.499022 
L 95.810216 644.832424 
L 100.27891 641.053296 
L 104.747602 637.105372 
L 109.216293 632.932389 
L 113.684984 628.478082 
L 118.153679 623.686185 
L 122.62237 618.500433 
L 127.091062 612.864561 
L 131.559755 606.722306 
L 136.028446 600.017401 
L 140.497138 592.693581 
L 144.96583 584.694582 
L 149.434522 575.964139 
L 153.903215 566.445987 
L 158.371907 556.083861 
L 162.840599 556.083861 
L 167.309291 566.445987 
L 171.777983 575.964139 
L 176.246675 584.694582 
L 180.715368 592.693581 
L 185.184059 600.017401 
L 189.65275 606.722306 
L 194.121445 612.864561 
L 198.590136 618.500433 
L 203.058828 623.686185 
L 207.527519 628.478082 
L 211.99621 632.932389 
L 216.464902 637.105372 
L 220.9336 641.053296 
L 225.402291 644.832424 
L 229.870982 648.499022 
L 234.339674 652.109356 
L 238.808365 655.719689 
L 243.277056 659.386288 
L 247.745748 663.165416 
L 252.214439 667.11334 
L 256.683137 671.286322 
L 261.151828 675.74063 
L 265.62052 680.532527 
L 270.089205 685.718279 
" style="fill:none;stroke:#ff7f0e;stroke-linecap:square;stroke-width:1.5;"/>
   </g>
   <g id="patch_33">
    <path d="M 40.175 692.2 
L 40.175 549.60214 
" style="fill:none;stroke:#000000;stroke-linecap:square;stroke-linejoin:miter;stroke-width:0.8;"/>
   </g>
   <g id="patch_34">
    <path d="M 281.0375 692.2 
L 281.0375 549.60214 
" style="fill:none;stroke:#000000;stroke-linecap:square;stroke-linejoin:miter;stroke-width:0.8;"/>
   </g>
   <g id="patch_35">
    <path d="M 40.175 692.2 
L 281.0375 692.2 
" style="fill:none;stroke:#000000;stroke-linecap:square;stroke-linejoin:miter;stroke-width:0.8;"/>
   </g>
   <g id="patch_36">
    <path d="M 40.175 549.60214 
L 281.0375 549.60214 
" style="fill:none;stroke:#000000;stroke-linecap:square;stroke-linejoin:miter;stroke-width:0.8;"/>
   </g>
  </g>
  <g id="axes_8">
   <g id="patch_37">
    <path d="M 324.3375 692.2 
L 565.2 692.2 
L 565.2 549.60214 
L 324.3375 549.60214 
z
" style="fill:#ffffff;"/>
   </g>
   <g id="matplotlib.axis_15">
    <g id="xtick_36">
     <g id="line2d_90">
      <g>
       <use style="stroke:#000000;stroke-width:0.8;" x="350.922756" xlink:href="#md9f5f535ea" y="692.2"/>
      </g>
     </g>
     <g id="text_79">
      <!-- −0.10 -->
      <g transform="translate(335.6001 706.798437)scale(0.1 -0.1)">
       <use xlink:href="#DejaVuSans-2212"/>
       <use x="83.789062" xlink:href="#DejaVuSans-30"/>
       <use x="147.412109" xlink:href="#DejaVuSans-2e"/>
       <use x="179.199219" xlink:href="#DejaVuSans-31"/>
       <use x="242.822266" xlink:href="#DejaVuSans-30"/>
      </g>
     </g>
    </g>
    <g id="xtick_37">
     <g id="line2d_91">
      <g>
       <use style="stroke:#000000;stroke-width:0.8;" x="394.61495" xlink:href="#md9f5f535ea" y="692.2"/>
      </g>
     </g>
     <g id="text_80">
      <!-- −0.05 -->
      <g transform="translate(379.292294 706.798437)scale(0.1 -0.1)">
       <use xlink:href="#DejaVuSans-2212"/>
       <use x="83.789062" xlink:href="#DejaVuSans-30"/>
       <use x="147.412109" xlink:href="#DejaVuSans-2e"/>
       <use x="179.199219" xlink:href="#DejaVuSans-30"/>
       <use x="242.822266" xlink:href="#DejaVuSans-35"/>
      </g>
     </g>
    </g>
    <g id="xtick_38">
     <g id="line2d_92">
      <g>
       <use style="stroke:#000000;stroke-width:0.8;" x="438.307144" xlink:href="#md9f5f535ea" y="692.2"/>
      </g>
     </g>
     <g id="text_81">
      <!-- 0.00 -->
      <g transform="translate(427.174331 706.798437)scale(0.1 -0.1)">
       <use xlink:href="#DejaVuSans-30"/>
       <use x="63.623047" xlink:href="#DejaVuSans-2e"/>
       <use x="95.410156" xlink:href="#DejaVuSans-30"/>
       <use x="159.033203" xlink:href="#DejaVuSans-30"/>
      </g>
     </g>
    </g>
    <g id="xtick_39">
     <g id="line2d_93">
      <g>
       <use style="stroke:#000000;stroke-width:0.8;" x="481.999338" xlink:href="#md9f5f535ea" y="692.2"/>
      </g>
     </g>
     <g id="text_82">
      <!-- 0.05 -->
      <g transform="translate(470.866525 706.798437)scale(0.1 -0.1)">
       <use xlink:href="#DejaVuSans-30"/>
       <use x="63.623047" xlink:href="#DejaVuSans-2e"/>
       <use x="95.410156" xlink:href="#DejaVuSans-30"/>
       <use x="159.033203" xlink:href="#DejaVuSans-35"/>
      </g>
     </g>
    </g>
    <g id="xtick_40">
     <g id="line2d_94">
      <g>
       <use style="stroke:#000000;stroke-width:0.8;" x="525.691532" xlink:href="#md9f5f535ea" y="692.2"/>
      </g>
     </g>
     <g id="text_83">
      <!-- 0.10 -->
      <g transform="translate(514.558719 706.798437)scale(0.1 -0.1)">
       <use xlink:href="#DejaVuSans-30"/>
       <use x="63.623047" xlink:href="#DejaVuSans-2e"/>
       <use x="95.410156" xlink:href="#DejaVuSans-31"/>
       <use x="159.033203" xlink:href="#DejaVuSans-30"/>
      </g>
     </g>
    </g>
   </g>
   <g id="matplotlib.axis_16">
    <g id="ytick_44">
     <g id="line2d_95">
      <g>
       <use style="stroke:#000000;stroke-width:0.8;" x="324.3375" xlink:href="#m1bf031ef01" y="685.718279"/>
      </g>
     </g>
     <g id="text_84">
      <!-- 0 -->
      <g transform="translate(310.975 689.517498)scale(0.1 -0.1)">
       <use xlink:href="#DejaVuSans-30"/>
      </g>
     </g>
    </g>
    <g id="ytick_45">
     <g id="line2d_96">
      <g>
       <use style="stroke:#000000;stroke-width:0.8;" x="324.3375" xlink:href="#m1bf031ef01" y="661.747418"/>
      </g>
     </g>
     <g id="text_85">
      <!-- 250 -->
      <g transform="translate(298.25 665.546637)scale(0.1 -0.1)">
       <use xlink:href="#DejaVuSans-32"/>
       <use x="63.623047" xlink:href="#DejaVuSans-35"/>
       <use x="127.246094" xlink:href="#DejaVuSans-30"/>
      </g>
     </g>
    </g>
    <g id="ytick_46">
     <g id="line2d_97">
      <g>
       <use style="stroke:#000000;stroke-width:0.8;" x="324.3375" xlink:href="#m1bf031ef01" y="637.776557"/>
      </g>
     </g>
     <g id="text_86">
      <!-- 500 -->
      <g transform="translate(298.25 641.575775)scale(0.1 -0.1)">
       <use xlink:href="#DejaVuSans-35"/>
       <use x="63.623047" xlink:href="#DejaVuSans-30"/>
       <use x="127.246094" xlink:href="#DejaVuSans-30"/>
      </g>
     </g>
    </g>
    <g id="ytick_47">
     <g id="line2d_98">
      <g>
       <use style="stroke:#000000;stroke-width:0.8;" x="324.3375" xlink:href="#m1bf031ef01" y="613.805695"/>
      </g>
     </g>
     <g id="text_87">
      <!-- 750 -->
      <g transform="translate(298.25 617.604914)scale(0.1 -0.1)">
       <use xlink:href="#DejaVuSans-37"/>
       <use x="63.623047" xlink:href="#DejaVuSans-35"/>
       <use x="127.246094" xlink:href="#DejaVuSans-30"/>
      </g>
     </g>
    </g>
    <g id="ytick_48">
     <g id="line2d_99">
      <g>
       <use style="stroke:#000000;stroke-width:0.8;" x="324.3375" xlink:href="#m1bf031ef01" y="589.834834"/>
      </g>
     </g>
     <g id="text_88">
      <!-- 1000 -->
      <g transform="translate(291.8875 593.634053)scale(0.1 -0.1)">
       <use xlink:href="#DejaVuSans-31"/>
       <use x="63.623047" xlink:href="#DejaVuSans-30"/>
       <use x="127.246094" xlink:href="#DejaVuSans-30"/>
       <use x="190.869141" xlink:href="#DejaVuSans-30"/>
      </g>
     </g>
    </g>
    <g id="ytick_49">
     <g id="line2d_100">
      <g>
       <use style="stroke:#000000;stroke-width:0.8;" x="324.3375" xlink:href="#m1bf031ef01" y="565.863973"/>
      </g>
     </g>
     <g id="text_89">
      <!-- 1250 -->
      <g transform="translate(291.8875 569.663191)scale(0.1 -0.1)">
       <use xlink:href="#DejaVuSans-31"/>
       <use x="63.623047" xlink:href="#DejaVuSans-32"/>
       <use x="127.246094" xlink:href="#DejaVuSans-35"/>
       <use x="190.869141" xlink:href="#DejaVuSans-30"/>
      </g>
     </g>
    </g>
   </g>
   <g id="line2d_101">
    <path clip-path="url(#p13cc58364e)" d="M 335.285795 685.238862 
L 339.754487 685.622396 
L 344.223178 685.334745 
L 348.69187 685.622396 
L 353.160561 685.430629 
L 357.629259 685.430629 
L 362.09795 685.047095 
L 366.566641 684.663561 
L 371.035333 684.951212 
L 375.504024 683.992377 
L 379.972716 683.321193 
L 384.44141 682.458242 
L 388.910102 680.157039 
L 393.378793 679.102321 
L 397.847484 674.595799 
L 402.316179 666.445707 
L 406.78487 636.338305 
L 411.253562 627.133494 
L 415.722255 630.009997 
L 420.190946 634.995937 
L 424.659638 643.625447 
L 429.12833 651.392006 
L 433.597022 660.788583 
L 438.065715 556.083861 
L 442.534407 685.718279 
L 447.003099 685.718279 
L 451.471791 673.445198 
L 455.940483 663.089786 
L 460.409175 655.994411 
L 464.877868 650.912589 
L 469.346559 667.500425 
L 473.81525 674.499916 
L 478.283945 676.513468 
L 482.752636 679.773506 
L 487.221328 681.691174 
L 491.690019 683.129426 
L 496.15871 683.992377 
L 500.627402 684.567678 
L 505.0961 684.951212 
L 509.564791 685.238862 
L 514.033482 685.238862 
L 518.502174 685.430629 
L 522.970865 685.622396 
L 527.439556 685.718279 
L 531.908248 685.622396 
L 536.376939 685.526512 
L 540.845637 685.718279 
L 545.314328 685.526512 
L 549.78302 685.718279 
L 554.251705 685.622396 
" style="fill:none;stroke:#1f77b4;stroke-linecap:square;stroke-width:1.5;"/>
   </g>
   <g id="patch_38">
    <path d="M 324.3375 692.2 
L 324.3375 549.60214 
" style="fill:none;stroke:#000000;stroke-linecap:square;stroke-linejoin:miter;stroke-width:0.8;"/>
   </g>
   <g id="patch_39">
    <path d="M 565.2 692.2 
L 565.2 549.60214 
" style="fill:none;stroke:#000000;stroke-linecap:square;stroke-linejoin:miter;stroke-width:0.8;"/>
   </g>
   <g id="patch_40">
    <path d="M 324.3375 692.2 
L 565.2 692.2 
" style="fill:none;stroke:#000000;stroke-linecap:square;stroke-linejoin:miter;stroke-width:0.8;"/>
   </g>
   <g id="patch_41">
    <path d="M 324.3375 549.60214 
L 565.2 549.60214 
" style="fill:none;stroke:#000000;stroke-linecap:square;stroke-linejoin:miter;stroke-width:0.8;"/>
   </g>
  </g>
  <g id="text_90">
   <!-- Pruning for different Bezier Curves -->
   <g transform="translate(184.079063 23.518125)scale(0.12 -0.12)">
    <defs>
     <path d="M 1259 4147 
L 1259 2394 
L 2053 2394 
Q 2494 2394 2734 2622 
Q 2975 2850 2975 3272 
Q 2975 3691 2734 3919 
Q 2494 4147 2053 4147 
L 1259 4147 
z
M 628 4666 
L 2053 4666 
Q 2838 4666 3239 4311 
Q 3641 3956 3641 3272 
Q 3641 2581 3239 2228 
Q 2838 1875 2053 1875 
L 1259 1875 
L 1259 0 
L 628 0 
L 628 4666 
z
" id="DejaVuSans-50" transform="scale(0.015625)"/>
     <path d="M 2631 2963 
Q 2534 3019 2420 3045 
Q 2306 3072 2169 3072 
Q 1681 3072 1420 2755 
Q 1159 2438 1159 1844 
L 1159 0 
L 581 0 
L 581 3500 
L 1159 3500 
L 1159 2956 
Q 1341 3275 1631 3429 
Q 1922 3584 2338 3584 
Q 2397 3584 2469 3576 
Q 2541 3569 2628 3553 
L 2631 2963 
z
" id="DejaVuSans-72" transform="scale(0.015625)"/>
     <path d="M 544 1381 
L 544 3500 
L 1119 3500 
L 1119 1403 
Q 1119 906 1312 657 
Q 1506 409 1894 409 
Q 2359 409 2629 706 
Q 2900 1003 2900 1516 
L 2900 3500 
L 3475 3500 
L 3475 0 
L 2900 0 
L 2900 538 
Q 2691 219 2414 64 
Q 2138 -91 1772 -91 
Q 1169 -91 856 284 
Q 544 659 544 1381 
z
M 1991 3584 
L 1991 3584 
z
" id="DejaVuSans-75" transform="scale(0.015625)"/>
     <path d="M 3513 2113 
L 3513 0 
L 2938 0 
L 2938 2094 
Q 2938 2591 2744 2837 
Q 2550 3084 2163 3084 
Q 1697 3084 1428 2787 
Q 1159 2491 1159 1978 
L 1159 0 
L 581 0 
L 581 3500 
L 1159 3500 
L 1159 2956 
Q 1366 3272 1645 3428 
Q 1925 3584 2291 3584 
Q 2894 3584 3203 3211 
Q 3513 2838 3513 2113 
z
" id="DejaVuSans-6e" transform="scale(0.015625)"/>
     <path d="M 603 3500 
L 1178 3500 
L 1178 0 
L 603 0 
L 603 3500 
z
M 603 4863 
L 1178 4863 
L 1178 4134 
L 603 4134 
L 603 4863 
z
" id="DejaVuSans-69" transform="scale(0.015625)"/>
     <path d="M 2906 1791 
Q 2906 2416 2648 2759 
Q 2391 3103 1925 3103 
Q 1463 3103 1205 2759 
Q 947 2416 947 1791 
Q 947 1169 1205 825 
Q 1463 481 1925 481 
Q 2391 481 2648 825 
Q 2906 1169 2906 1791 
z
M 3481 434 
Q 3481 -459 3084 -895 
Q 2688 -1331 1869 -1331 
Q 1566 -1331 1297 -1286 
Q 1028 -1241 775 -1147 
L 775 -588 
Q 1028 -725 1275 -790 
Q 1522 -856 1778 -856 
Q 2344 -856 2625 -561 
Q 2906 -266 2906 331 
L 2906 616 
Q 2728 306 2450 153 
Q 2172 0 1784 0 
Q 1141 0 747 490 
Q 353 981 353 1791 
Q 353 2603 747 3093 
Q 1141 3584 1784 3584 
Q 2172 3584 2450 3431 
Q 2728 3278 2906 2969 
L 2906 3500 
L 3481 3500 
L 3481 434 
z
" id="DejaVuSans-67" transform="scale(0.015625)"/>
     <path id="DejaVuSans-20" transform="scale(0.015625)"/>
     <path d="M 2375 4863 
L 2375 4384 
L 1825 4384 
Q 1516 4384 1395 4259 
Q 1275 4134 1275 3809 
L 1275 3500 
L 2222 3500 
L 2222 3053 
L 1275 3053 
L 1275 0 
L 697 0 
L 697 3053 
L 147 3053 
L 147 3500 
L 697 3500 
L 697 3744 
Q 697 4328 969 4595 
Q 1241 4863 1831 4863 
L 2375 4863 
z
" id="DejaVuSans-66" transform="scale(0.015625)"/>
     <path d="M 1959 3097 
Q 1497 3097 1228 2736 
Q 959 2375 959 1747 
Q 959 1119 1226 758 
Q 1494 397 1959 397 
Q 2419 397 2687 759 
Q 2956 1122 2956 1747 
Q 2956 2369 2687 2733 
Q 2419 3097 1959 3097 
z
M 1959 3584 
Q 2709 3584 3137 3096 
Q 3566 2609 3566 1747 
Q 3566 888 3137 398 
Q 2709 -91 1959 -91 
Q 1206 -91 779 398 
Q 353 888 353 1747 
Q 353 2609 779 3096 
Q 1206 3584 1959 3584 
z
" id="DejaVuSans-6f" transform="scale(0.015625)"/>
     <path d="M 2906 2969 
L 2906 4863 
L 3481 4863 
L 3481 0 
L 2906 0 
L 2906 525 
Q 2725 213 2448 61 
Q 2172 -91 1784 -91 
Q 1150 -91 751 415 
Q 353 922 353 1747 
Q 353 2572 751 3078 
Q 1150 3584 1784 3584 
Q 2172 3584 2448 3432 
Q 2725 3281 2906 2969 
z
M 947 1747 
Q 947 1113 1208 752 
Q 1469 391 1925 391 
Q 2381 391 2643 752 
Q 2906 1113 2906 1747 
Q 2906 2381 2643 2742 
Q 2381 3103 1925 3103 
Q 1469 3103 1208 2742 
Q 947 2381 947 1747 
z
" id="DejaVuSans-64" transform="scale(0.015625)"/>
     <path d="M 3597 1894 
L 3597 1613 
L 953 1613 
Q 991 1019 1311 708 
Q 1631 397 2203 397 
Q 2534 397 2845 478 
Q 3156 559 3463 722 
L 3463 178 
Q 3153 47 2828 -22 
Q 2503 -91 2169 -91 
Q 1331 -91 842 396 
Q 353 884 353 1716 
Q 353 2575 817 3079 
Q 1281 3584 2069 3584 
Q 2775 3584 3186 3129 
Q 3597 2675 3597 1894 
z
M 3022 2063 
Q 3016 2534 2758 2815 
Q 2500 3097 2075 3097 
Q 1594 3097 1305 2825 
Q 1016 2553 972 2059 
L 3022 2063 
z
" id="DejaVuSans-65" transform="scale(0.015625)"/>
     <path d="M 1172 4494 
L 1172 3500 
L 2356 3500 
L 2356 3053 
L 1172 3053 
L 1172 1153 
Q 1172 725 1289 603 
Q 1406 481 1766 481 
L 2356 481 
L 2356 0 
L 1766 0 
Q 1100 0 847 248 
Q 594 497 594 1153 
L 594 3053 
L 172 3053 
L 172 3500 
L 594 3500 
L 594 4494 
L 1172 4494 
z
" id="DejaVuSans-74" transform="scale(0.015625)"/>
     <path d="M 1259 2228 
L 1259 519 
L 2272 519 
Q 2781 519 3026 730 
Q 3272 941 3272 1375 
Q 3272 1813 3026 2020 
Q 2781 2228 2272 2228 
L 1259 2228 
z
M 1259 4147 
L 1259 2741 
L 2194 2741 
Q 2656 2741 2882 2914 
Q 3109 3088 3109 3444 
Q 3109 3797 2882 3972 
Q 2656 4147 2194 4147 
L 1259 4147 
z
M 628 4666 
L 2241 4666 
Q 2963 4666 3353 4366 
Q 3744 4066 3744 3513 
Q 3744 3084 3544 2831 
Q 3344 2578 2956 2516 
Q 3422 2416 3680 2098 
Q 3938 1781 3938 1306 
Q 3938 681 3513 340 
Q 3088 0 2303 0 
L 628 0 
L 628 4666 
z
" id="DejaVuSans-42" transform="scale(0.015625)"/>
     <path d="M 353 3500 
L 3084 3500 
L 3084 2975 
L 922 459 
L 3084 459 
L 3084 0 
L 275 0 
L 275 525 
L 2438 3041 
L 353 3041 
L 353 3500 
z
" id="DejaVuSans-7a" transform="scale(0.015625)"/>
     <path d="M 4122 4306 
L 4122 3641 
Q 3803 3938 3442 4084 
Q 3081 4231 2675 4231 
Q 1875 4231 1450 3742 
Q 1025 3253 1025 2328 
Q 1025 1406 1450 917 
Q 1875 428 2675 428 
Q 3081 428 3442 575 
Q 3803 722 4122 1019 
L 4122 359 
Q 3791 134 3420 21 
Q 3050 -91 2638 -91 
Q 1578 -91 968 557 
Q 359 1206 359 2328 
Q 359 3453 968 4101 
Q 1578 4750 2638 4750 
Q 3056 4750 3426 4639 
Q 3797 4528 4122 4306 
z
" id="DejaVuSans-43" transform="scale(0.015625)"/>
     <path d="M 191 3500 
L 800 3500 
L 1894 563 
L 2988 3500 
L 3597 3500 
L 2284 0 
L 1503 0 
L 191 3500 
z
" id="DejaVuSans-76" transform="scale(0.015625)"/>
     <path d="M 2834 3397 
L 2834 2853 
Q 2591 2978 2328 3040 
Q 2066 3103 1784 3103 
Q 1356 3103 1142 2972 
Q 928 2841 928 2578 
Q 928 2378 1081 2264 
Q 1234 2150 1697 2047 
L 1894 2003 
Q 2506 1872 2764 1633 
Q 3022 1394 3022 966 
Q 3022 478 2636 193 
Q 2250 -91 1575 -91 
Q 1294 -91 989 -36 
Q 684 19 347 128 
L 347 722 
Q 666 556 975 473 
Q 1284 391 1588 391 
Q 1994 391 2212 530 
Q 2431 669 2431 922 
Q 2431 1156 2273 1281 
Q 2116 1406 1581 1522 
L 1381 1569 
Q 847 1681 609 1914 
Q 372 2147 372 2553 
Q 372 3047 722 3315 
Q 1072 3584 1716 3584 
Q 2034 3584 2315 3537 
Q 2597 3491 2834 3397 
z
" id="DejaVuSans-73" transform="scale(0.015625)"/>
    </defs>
    <use xlink:href="#DejaVuSans-50"/>
    <use x="58.552734" xlink:href="#DejaVuSans-72"/>
    <use x="99.666016" xlink:href="#DejaVuSans-75"/>
    <use x="163.044922" xlink:href="#DejaVuSans-6e"/>
    <use x="226.423828" xlink:href="#DejaVuSans-69"/>
    <use x="254.207031" xlink:href="#DejaVuSans-6e"/>
    <use x="317.585938" xlink:href="#DejaVuSans-67"/>
    <use x="381.0625" xlink:href="#DejaVuSans-20"/>
    <use x="412.849609" xlink:href="#DejaVuSans-66"/>
    <use x="448.054688" xlink:href="#DejaVuSans-6f"/>
    <use x="509.236328" xlink:href="#DejaVuSans-72"/>
    <use x="550.349609" xlink:href="#DejaVuSans-20"/>
    <use x="582.136719" xlink:href="#DejaVuSans-64"/>
    <use x="645.613281" xlink:href="#DejaVuSans-69"/>
    <use x="673.396484" xlink:href="#DejaVuSans-66"/>
    <use x="708.601562" xlink:href="#DejaVuSans-66"/>
    <use x="743.806641" xlink:href="#DejaVuSans-65"/>
    <use x="805.330078" xlink:href="#DejaVuSans-72"/>
    <use x="844.193359" xlink:href="#DejaVuSans-65"/>
    <use x="905.716797" xlink:href="#DejaVuSans-6e"/>
    <use x="969.095703" xlink:href="#DejaVuSans-74"/>
    <use x="1008.304688" xlink:href="#DejaVuSans-20"/>
    <use x="1040.091797" xlink:href="#DejaVuSans-42"/>
    <use x="1108.695312" xlink:href="#DejaVuSans-65"/>
    <use x="1170.21875" xlink:href="#DejaVuSans-7a"/>
    <use x="1222.708984" xlink:href="#DejaVuSans-69"/>
    <use x="1250.492188" xlink:href="#DejaVuSans-65"/>
    <use x="1312.015625" xlink:href="#DejaVuSans-72"/>
    <use x="1353.128906" xlink:href="#DejaVuSans-20"/>
    <use x="1384.916016" xlink:href="#DejaVuSans-43"/>
    <use x="1454.740234" xlink:href="#DejaVuSans-75"/>
    <use x="1518.119141" xlink:href="#DejaVuSans-72"/>
    <use x="1559.232422" xlink:href="#DejaVuSans-76"/>
    <use x="1618.412109" xlink:href="#DejaVuSans-65"/>
    <use x="1679.935547" xlink:href="#DejaVuSans-73"/>
   </g>
  </g>
 </g>
 <defs>
  <clipPath id="p2352ca3f9a">
   <rect height="142.59786" width="240.8625" x="40.175" y="38.408561"/>
  </clipPath>
  <clipPath id="p99dd9a02e6">
   <rect height="142.59786" width="240.8625" x="324.3375" y="38.408561"/>
  </clipPath>
  <clipPath id="pde36c89d67">
   <rect height="142.59786" width="240.8625" x="40.175" y="208.806421"/>
  </clipPath>
  <clipPath id="pb9baa37d31">
   <rect height="142.59786" width="240.8625" x="324.3375" y="208.806421"/>
  </clipPath>
  <clipPath id="pd6f67bd2a7">
   <rect height="142.59786" width="240.8625" x="40.175" y="379.204281"/>
  </clipPath>
  <clipPath id="p7ef5a7e90a">
   <rect height="142.59786" width="240.8625" x="324.3375" y="379.204281"/>
  </clipPath>
  <clipPath id="p72e9a8412f">
   <rect height="142.59786" width="240.8625" x="40.175" y="549.60214"/>
  </clipPath>
  <clipPath id="p13cc58364e">
   <rect height="142.59786" width="240.8625" x="324.3375" y="549.60214"/>
  </clipPath>
 </defs>
</svg>
